<?xml version="1.0" encoding="UTF-8"?>
<svg xmlns="http://www.w3.org/2000/svg" version="1.1" viewBox="0 0 512 512">
  <defs>
    <style>
      .cls-1 {
        fill: #1b1f21;
      }

      .cls-2 {
        fill: none;
        stroke: #e64539;
        stroke-miterlimit: 10;
        stroke-width: 9.9px;
      }

      .cls-3 {
        fill: #e64539;
      }
    </style>
  </defs>
  <!-- Generator: Adobe Illustrator 28.6.0, SVG Export Plug-In . SVG Version: 1.2.0 Build 709)  -->
  <g>
    <g id="Layer_1">
      <path class="cls-1" d="M0,0h512v512H0V0Z"/>
      <path class="cls-2" d="M445.7,181l-67.9-55.2c-2.2-1.8-5.4-1.8-7.6,0l-66.7,55.5c-4,3.3-1.4,9.5,4,9.4l11.9-.3c5.1,0,9.2,3.4,9.2,7.5v195.4c0,4.2,4.1,7.5,9.2,7.5h73.3c5.1,0,9.2-3.4,9.2-7.5v-195.4c0-4.2,4.1-7.5,9.2-7.5h12.6c5.3,0,7.8-6.2,3.8-9.4Z"/>
      <path class="cls-3" d="M138.3,73h130.9c5.2,0,9.3-3.4,9.3-7.6v-22.9h-149.6v22.9c0,4.2,4.2,7.6,9.3,7.6Z"/>
      <g>
        <path class="cls-3" d="M194.9,266h28.6c5.8,0,9.8-1.2,12.1-3.6,2.3-2.4,3.5-6.4,3.5-12v-22.7c0-5.8-1.2-9.8-3.5-12.3-2.3-2.4-6.4-3.6-12.1-3.6h-28.6c-2,0-3,1-3,3v48.3c0,2,1,3,3,3Z"/>
        <path class="cls-3" d="M283.9,177.3l69.4-57v-62.5c0-8.4-8.4-15.2-18.7-15.2h-37.4v22.9c0,12.6-12.6,22.9-28,22.9h-130.9c-15.5,0-28-10.2-28-22.9v-22.9h-37.4c-10.3,0-18.7,6.8-18.7,15.2v396.5c0,8.4,8.4,15.2,18.7,15.2h261.8c10.3,0,18.7-6.8,18.7-15.2v-38.1h-9.3c-15.5,0-28-10.2-28-22.9v-190.6h-19.1c-10,0-18.2-6.6-18.2-14.8,0-4,1.9-7.8,5.4-10.6ZM315.9,65.4c0-4.2,4.2-7.6,9.3-7.6s9.3,3.4,9.3,7.6v7.6c0,4.2-4.2,7.6-9.3,7.6s-9.3-3.4-9.3-7.6v-7.6ZM157.7,187.7c0-3.8,1.9-5.7,5.7-5.7h65.8c14,0,24.9,3.8,32.7,11.5,7.7,7.6,11.6,18.5,11.6,32.5v25.9c0,14-3.9,24.9-11.6,32.5-7.7,7.6-18.6,11.5-32.7,11.5h-34c-2.2,0-3.2,1-3.2,3v51c0,3.8-1.9,5.7-5.7,5.7h-22.9c-3.8,0-5.7-1.9-5.7-5.7v-162.2ZM72.8,73v-7.6c0-4.2,4.2-7.6,9.3-7.6s9.3,3.4,9.3,7.6v7.6c0,4.2-4.2,7.6-9.3,7.6s-9.3-3.4-9.3-7.6ZM121.3,349.9c0,3.8-1.9,5.7-5.7,5.7h-22.9c-3.8,0-5.7-1.9-5.7-5.7v-162.2c0-3.8,1.9-5.7,5.7-5.7h22.9c3.8,0,5.7,1.9,5.7,5.7v162.2ZM269.1,454.2h-130.9c-5.2,0-9.3-3.4-9.3-7.6s4.2-7.6,9.3-7.6h130.9c5.2,0,9.3,3.4,9.3,7.6s-4.2,7.6-9.3,7.6Z"/>
      </g>
    </g>
  </g>
</svg>