<svg xmlns="http://www.w3.org/2000/svg" viewBox="0 0 512 512" style="height: 512px; width: 512px;"><defs><filter id="shadow-1" height="300%" width="300%" x="-100%" y="-100%"><feFlood flood-color="rgba(58, 63, 94, 1)" result="flood"></feFlood><feComposite in="flood" in2="SourceGraphic" operator="atop" result="composite"></feComposite><feGaussianBlur in="composite" stdDeviation="15" result="blur"></feGaussianBlur><feOffset dx="0" dy="0" result="offset"></feOffset><feComposite in="SourceGraphic" in2="offset" operator="over"></feComposite></filter></defs><rect fill="#1b1f21" fill-opacity="1" height="512" width="512" rx="32" ry="32"></rect><g class="" transform="translate(0,0)" style=""><path d="M63.6 33c-17.23 0-31 13.77-31 31s13.77 31 31 31 31-13.77 31-31-13.77-31-31-31zm171.7 6.74l-122.7 25.6c-.4 14.13-6.9 26.86-16.83 35.56l42.83 114.5 11.5-20.8-41.2-110.1 115-24 9.4-17.15zm8.5 21.9L161.7 210.8l53.6 16.9 71.4-129.9zM48.6 110.6V479h30V110.6c-4.73 1.6-9.77 2.4-15 2.4s-10.27-.8-15-2.4zm288 29.3l-59.2 107.4 62.3 19.6 46.8-85zm99.9 84.1l-34.4 62.5 53.5 16.9 23.8-43.2z" fill="#e64539" fill-opacity="1" filter="url(#shadow-1)"></path></g></svg>