<?xml version="1.0" encoding="UTF-8" standalone="no"?>
<svg
   style="height: 512px; width: 512px;"
   viewBox="0 0 512 512"
   version="1.1"
   id="svg2"
   sodipodi:docname="beaverville-express.svg"
   inkscape:version="1.3.2 (091e20e, 2023-11-25, custom)"
   xmlns:inkscape="http://www.inkscape.org/namespaces/inkscape"
   xmlns:sodipodi="http://sodipodi.sourceforge.net/DTD/sodipodi-0.dtd"
   xmlns="http://www.w3.org/2000/svg"
   xmlns:svg="http://www.w3.org/2000/svg">
  <defs
     id="defs2">
    <filter
       style="color-interpolation-filters:sRGB;"
       inkscape:label="Drop Shadow"
       id="filter3"
       x="-0.10948905"
       y="-0.080062271"
       width="1.2189781"
       height="1.1601245">
      <feFlood
         result="flood"
         in="SourceGraphic"
         flood-opacity="1.000000"
         flood-color="rgb(58,63,94)"
         id="feFlood2" />
      <feGaussianBlur
         result="blur"
         in="SourceGraphic"
         stdDeviation="15.000000"
         id="feGaussianBlur2" />
      <feOffset
         result="offset"
         in="blur"
         dx="0.000000"
         dy="0.000000"
         id="feOffset2" />
      <feComposite
         result="comp1"
         operator="out"
         in="flood"
         in2="offset"
         id="feComposite2" />
      <feComposite
         result="comp2"
         operator="atop"
         in="comp1"
         in2="SourceGraphic"
         id="feComposite3" />
    </filter>
  </defs>
  <sodipodi:namedview
     id="namedview2"
     pagecolor="#505050"
     bordercolor="#ffffff"
     borderopacity="1"
     inkscape:showpageshadow="0"
     inkscape:pageopacity="0"
     inkscape:pagecheckerboard="1"
     inkscape:deskcolor="#505050"
     inkscape:zoom="1.6035156"
     inkscape:cx="255.68819"
     inkscape:cy="256"
     inkscape:window-width="1920"
     inkscape:window-height="1017"
     inkscape:window-x="-8"
     inkscape:window-y="-8"
     inkscape:window-maximized="1"
     inkscape:current-layer="svg2" />
  <path
     d="M0 0h512v512H0z"
     fill="#000"
     fill-opacity="1"
     id="path1"
     style="fill:#1b1f21;fill-opacity:1" />
  <g
     class=""
     style=""
     transform="translate(0,0)"
     id="g2">
    <path
       d="M136.1 37.15L105.4 328.8l26.3 26.3h248.6l26.3-26.3-30.7-291.65H361v44H151v-44zm32.9 0v26h174v-26zm-16.9 60h207.8l18.3 145.95H133.8zm15.8 17.95l-13.7 110h203.6l-13.7-110zm-7.9 158c18.1 0 33 14.9 33 33 0 18.2-14.9 33-33 33s-33-14.8-33-33c0-18.1 14.9-33 33-33zm192 0c18.1 0 33 14.9 33 33 0 18.2-14.9 33-33 33s-33-14.8-33-33c0-18.1 14.9-33 33-33zm-192 18c-8.4 0-15 6.7-15 15 0 8.4 6.6 15 15 15s15-6.6 15-15c0-8.3-6.6-15-15-15zm192 0c-8.4 0-15 6.7-15 15 0 8.4 6.6 15 15 15s15-6.6 15-15c0-8.3-6.6-15-15-15zm-204.5 82L91.6 486.8h46.8l13.5-28.7h208.2l13.5 28.7h46.8l-55.9-113.7h-42.4l6.3 14H183.6l6.3-14zm28 32h161l10.2 23H165.3z"
       fill="#fff"
       fill-opacity="1"
       id="path2"
       style="fill:#e64539;fill-opacity:1;filter:url(#filter3)" />
  </g>
</svg>
