<?xml version="1.0" encoding="UTF-8" standalone="no"?>
<svg
   style="height: 512px; width: 512px;"
   viewBox="0 0 512 512"
   version="1.1"
   id="svg3"
   sodipodi:docname="bed.svg"
   inkscape:version="1.3.2 (091e20e, 2023-11-25, custom)"
   xmlns:inkscape="http://www.inkscape.org/namespaces/inkscape"
   xmlns:sodipodi="http://sodipodi.sourceforge.net/DTD/sodipodi-0.dtd"
   xmlns="http://www.w3.org/2000/svg"
   xmlns:svg="http://www.w3.org/2000/svg">
  <sodipodi:namedview
     id="namedview3"
     pagecolor="#505050"
     bordercolor="#ffffff"
     borderopacity="1"
     inkscape:showpageshadow="0"
     inkscape:pageopacity="0"
     inkscape:pagecheckerboard="1"
     inkscape:deskcolor="#505050"
     inkscape:zoom="1.6035156"
     inkscape:cx="255.68819"
     inkscape:cy="256"
     inkscape:window-width="1920"
     inkscape:window-height="1017"
     inkscape:window-x="-8"
     inkscape:window-y="-8"
     inkscape:window-maximized="1"
     inkscape:current-layer="svg3" />
  <defs
     id="defs2">
    <filter
       id="shadow-1"
       height="1.1982816"
       width="1.154914"
       x="-0.077457001"
       y="-0.09914078">
      <feFlood
         flood-color="rgba(58, 63, 94, 1)"
         result="flood"
         id="feFlood1" />
      <feComposite
         in="flood"
         in2="SourceGraphic"
         operator="atop"
         result="composite"
         id="feComposite1" />
      <feGaussianBlur
         in="composite"
         stdDeviation="15"
         result="blur"
         id="feGaussianBlur1" />
      <feOffset
         dx="0"
         dy="0"
         result="offset"
         id="feOffset1" />
      <feComposite
         in="SourceGraphic"
         in2="offset"
         operator="over"
         id="feComposite2" />
    </filter>
    <filter
       style="color-interpolation-filters:sRGB;"
       inkscape:label="Drop Shadow"
       id="filter4"
       x="-0.077457001"
       y="-0.09914078"
       width="1.154914"
       height="1.1982816">
      <feFlood
         result="flood"
         in="SourceGraphic"
         flood-opacity="1.000000"
         flood-color="rgb(58,63,94)"
         id="feFlood3" />
      <feGaussianBlur
         result="blur"
         in="SourceGraphic"
         stdDeviation="0.000000"
         id="feGaussianBlur3" />
      <feOffset
         result="offset"
         in="blur"
         dx="0.000000"
         dy="0.000000"
         id="feOffset3" />
      <feComposite
         result="comp1"
         operator="in"
         in="flood"
         in2="offset"
         id="feComposite3" />
      <feComposite
         result="fbSourceGraphic"
         operator="over"
         in="SourceGraphic"
         in2="comp1"
         id="feComposite4" />
      <feColorMatrix
         result="fbSourceGraphicAlpha"
         in="fbSourceGraphic"
         values="0 0 0 -1 0 0 0 0 -1 0 0 0 0 -1 0 0 0 0 1 0"
         id="feColorMatrix4" />
      <feFlood
         id="feFlood4"
         result="flood"
         in="fbSourceGraphic"
         flood-opacity="1.000000"
         flood-color="rgb(58,63,94)" />
      <feGaussianBlur
         id="feGaussianBlur4"
         result="blur"
         in="fbSourceGraphic"
         stdDeviation="15.000000" />
      <feOffset
         id="feOffset4"
         result="offset"
         in="blur"
         dx="0.000000"
         dy="0.000000" />
      <feComposite
         id="feComposite5"
         result="comp1"
         operator="out"
         in="flood"
         in2="offset" />
      <feComposite
         id="feComposite6"
         result="comp2"
         operator="atop"
         in="comp1"
         in2="fbSourceGraphic" />
    </filter>
  </defs>
  <path
     d="M0 0h512v512H0z"
     fill="#1b1f21"
     fill-opacity="1"
     id="path2" />
  <g
     class=""
     style=""
     transform="translate(0,0)"
     id="g3">
    <path
       d="M239.802 74.44v.19h12.275v29.433h.004v31.265c-3.326-.562-6.698-.92-10.095-1.084-26.8-1.293-55.033 8.738-73.23 13.36l-7.545 1.92.582 5.564c-.46-.176-.917-.356-1.387-.525l-.705-.256-.74-.135c-4.097-.747-8.27-1.193-12.48-1.39-29.477-1.372-60.834 9.463-81.174 14.523l-7.612 1.892.836 7.8c.605 5.644 1.218 11.59 2.774 17.493-10.642 13.072-10.078 18.35-8.417 27.184l211.14 73.916v74.053C184.03 336.45 106.252 295.828 25.582 264.49v-170h18v.125h12.374v34.77l165.848-21.414V74.44zm-2.088 77.845c1.203-.013 2.39 0 3.564.04 2.818.095 5.505.396 8.09.84 13.548 5.197 20.296 12.637 24.25 21.462-23.255 9.644-44.174 13.507-62.515 15.736-5.277-1.15-9.503-2.466-12.944-3.894-3.802-7.298-9.183-14.244-16.522-20.16-.21-1.08-.405-2.186-.584-3.33 17.414-4.63 38.614-10.504 56.66-10.695zm-94.35 18.528c1.38-.014 2.743 0 4.09.046 3.218.11 6.296.446 9.26.95 15.757 5.89 23.546 14.435 28.002 24.526-26.44 10.85-50.22 15.162-70.965 17.62-17.42-3.692-25.116-8.99-29.17-14.665-3.072-4.302-4.524-9.753-5.53-16.518 19.495-5.077 43.62-11.753 64.314-11.96zM291.8 186.295l26.406 7.453c-59.194 10.41-125.095 28.732-165.18 45.766l-27.443-9.17c21.235-3.146 45.785-8.753 72.568-20.846l5.29-2.39c1.72.44 3.5.853 5.35 1.232l1.42.29 1.44-.17c21.562-2.54 47.905-7.294 77.15-20.782zm68.797 19.418l51.336 14.49-147.905 38.377v17.6l-82.517-27.147-1.77-.59c49.176-17.717 124.438-36.303 180.857-42.73zm127.79 13.68v90.57L283.69 372.127v-99.62zM23.613 282.45L60.837 299v14.674L39.98 322.13l-16.366-10.57zm463.26 49.243v34.995l-21.91 9.515-16.367-7.4v-25.487zm-234.453 52.49l11.608 5.16 9.442 4.196 19.342-6.87v40.848l-22.704 10.043-17.687-12.685z"
       fill="#e64539"
       fill-opacity="1"
       filter="url(#shadow-1)"
       id="path3"
       style="filter:url(#filter4)" />
  </g>
</svg>
