<svg style="height: 512px; width: 512px;" xmlns="http://www.w3.org/2000/svg" viewBox="0 0 512 512"><defs><filter id="shadow-1" height="300%" width="300%" x="-100%" y="-100%"><feFlood flood-color="rgba(58, 63, 94, 1)" result="flood"></feFlood><feComposite in="flood" in2="SourceGraphic" operator="out" result="composite"></feComposite><feGaussianBlur in="composite" stdDeviation="15" result="blur"></feGaussianBlur><feOffset dx="0" dy="0" result="offset"></feOffset><feComposite in="offset" in2="SourceGraphic" operator="atop"></feComposite></filter></defs><path d="M0 0h512v512H0z" fill="#1b1f21" fill-opacity="1"></path><g class="" style="" transform="translate(0,0)"><path d="M313 80v48h18V80zm-78.5 29.2l-17 5.6 16 48 17-5.6zm175 0l-16 48 17 5.6 16-48zM322 167c-71.9 0-130.9 55.5-136.6 126h127.1c5.7-18 6.2-37.7 8.4-54.8 10.5 6.9 21.1 22.4 26 37.7 4.9-22.7 5.7-46.6 8.2-67.6 20.3 14.8 40.9 56.5 37 84.7h66.5c-5.7-70.5-64.7-126-136.6-126zM20 311v18h472v-18zm190 38v18h224v-18zm16 38v18h192v-18zm32 38v18h128v-18zm42 38v18h44v-18z" fill="#e64539" fill-opacity="1" filter="url(#shadow-1)"></path></g></svg>