<?xml version="1.0" encoding="UTF-8" standalone="no"?>
<svg
   style="height: 512px; width: 512px;"
   viewBox="0 0 512 512"
   version="1.1"
   id="svg3"
   sodipodi:docname="booze-item.svg"
   inkscape:version="1.3.2 (091e20e, 2023-11-25, custom)"
   xmlns:inkscape="http://www.inkscape.org/namespaces/inkscape"
   xmlns:sodipodi="http://sodipodi.sourceforge.net/DTD/sodipodi-0.dtd"
   xmlns="http://www.w3.org/2000/svg"
   xmlns:svg="http://www.w3.org/2000/svg">
  <sodipodi:namedview
     id="namedview3"
     pagecolor="#505050"
     bordercolor="#ffffff"
     borderopacity="1"
     inkscape:showpageshadow="0"
     inkscape:pageopacity="0"
     inkscape:pagecheckerboard="1"
     inkscape:deskcolor="#505050"
     inkscape:zoom="1.6035156"
     inkscape:cx="255.68819"
     inkscape:cy="256"
     inkscape:window-width="1920"
     inkscape:window-height="1017"
     inkscape:window-x="-8"
     inkscape:window-y="-8"
     inkscape:window-maximized="1"
     inkscape:current-layer="svg3" />
  <defs
     id="defs2">
    <filter
       id="shadow-1"
       height="1.1545064"
       width="1.371134"
       x="-0.18556701"
       y="-0.077253219">
      <feFlood
         flood-color="rgba(58, 63, 94, 1)"
         result="flood"
         id="feFlood1" />
      <feComposite
         in="flood"
         in2="SourceGraphic"
         operator="atop"
         result="composite"
         id="feComposite1" />
      <feGaussianBlur
         in="composite"
         stdDeviation="15"
         result="blur"
         id="feGaussianBlur1" />
      <feOffset
         dx="0"
         dy="0"
         result="offset"
         id="feOffset1" />
      <feComposite
         in="SourceGraphic"
         in2="offset"
         operator="over"
         id="feComposite2" />
    </filter>
    <filter
       style="color-interpolation-filters:sRGB;"
       inkscape:label="Drop Shadow"
       id="filter4"
       x="-0.18556701"
       y="-0.077253219"
       width="1.371134"
       height="1.1545064">
      <feFlood
         result="flood"
         in="SourceGraphic"
         flood-opacity="1.000000"
         flood-color="rgb(58,63,94)"
         id="feFlood3" />
      <feGaussianBlur
         result="blur"
         in="SourceGraphic"
         stdDeviation="15.000000"
         id="feGaussianBlur3" />
      <feOffset
         result="offset"
         in="blur"
         dx="0.000000"
         dy="0.000000"
         id="feOffset3" />
      <feComposite
         result="comp1"
         operator="out"
         in="flood"
         in2="offset"
         id="feComposite3" />
      <feComposite
         result="fbSourceGraphic"
         operator="atop"
         in="comp1"
         in2="SourceGraphic"
         id="feComposite4" />
      <feColorMatrix
         result="fbSourceGraphicAlpha"
         in="fbSourceGraphic"
         values="0 0 0 -1 0 0 0 0 -1 0 0 0 0 -1 0 0 0 0 1 0"
         id="feColorMatrix4" />
      <feFlood
         id="feFlood4"
         result="flood"
         in="fbSourceGraphic"
         flood-opacity="1.000000"
         flood-color="rgb(58,63,94)" />
      <feGaussianBlur
         id="feGaussianBlur4"
         result="blur"
         in="fbSourceGraphic"
         stdDeviation="0.000000" />
      <feOffset
         id="feOffset4"
         result="offset"
         in="blur"
         dx="0.000000"
         dy="0.000000" />
      <feComposite
         id="feComposite5"
         result="comp1"
         operator="in"
         in="flood"
         in2="offset" />
      <feComposite
         id="feComposite6"
         result="comp2"
         operator="over"
         in="fbSourceGraphic"
         in2="comp1" />
    </filter>
  </defs>
  <path
     d="M0 0h512v512H0z"
     fill="#1b1f21"
     fill-opacity="1"
     id="path2" />
  <g
     class=""
     style=""
     transform="translate(0,0)"
     id="g3">
    <path
       d="M200 23v18h21.895l-14.31 123.303c-14.473 8.144-25.962 16.414-34.18 25.265-9.02 9.712-14.405 20.57-14.405 31.97V445.54c0 11.4 5.042 21.877 12.348 29.794 7.305 7.917 17.208 13.666 28.35 13.666H312c11.23 0 21.24-5.72 28.596-13.645C347.953 467.432 353 456.94 353 445.54v-224c0-11.402-5.386-22.26-14.404-31.972-8.22-8.85-19.708-17.12-34.18-25.265L290.106 41H312V23H200zm40.016 18h31.968l8.094 69.727c-2.328-.97-4.98-1.573-8.078-1.573-10.342 0-17.062 6.425-22.15 10.772-5.09 4.346-5.982 7.135-9.85 6.46-4.685-.82-6.447-6.444-8.57-11.41L240.016 41zm31.25 86.113c.235.003.48.016.734.04 5.087.508 7.665 5.963 11.2 10.476l1.212 10.438a9.6 10.338 0 0 0-9.213-7.453 9.6 10.338 0 0 0-9.6 10.338 9.6 10.338 0 0 0 9.6 10.338 9.6 10.338 0 0 0 9.585-10.01l2.817 24.265 4.13 2.225c15.45 8.318 26.69 16.527 33.672 24.046 6.982 7.52 9.596 13.893 9.596 19.723v42.69h-25.568A64 94.77 0 0 0 256 221.54a64 94.77 0 0 0-53.416 42.69H177v-42.69c0-5.83 2.614-12.204 9.596-19.724s18.223-15.728 33.672-24.046l4.13-2.225 4.047-34.856c3.09 2.163 6.88 3.695 11.555 3.695 10.237 0 16.543-6.503 21.54-10.772 4.686-4.002 6.196-6.534 9.726-6.5zM256 166.4a9.6 10.338 0 0 0-9.6 10.338 9.6 10.338 0 0 0 9.6 10.338 9.6 10.338 0 0 0 9.6-10.338A9.6 10.338 0 0 0 256 166.4zm19.2 15.57a9.6 10.338 0 0 0-9.6 10.337 9.6 10.338 0 0 0 9.6 10.338 9.6 10.338 0 0 0 9.6-10.338 9.6 10.338 0 0 0-9.6-10.338zM256 247c13.42 0 23.9 9.857 30.578 22.445 1.962 3.698 3.663 7.726 5.098 12.016H336v18h-40.156c.757 5.4 1.156 11.038 1.156 16.85 0 12.354-1.775 23.944-5.06 34.075H336v18h-52.535c-6.64 9.987-15.97 17.23-27.465 17.23-11.496 0-20.825-7.243-27.465-17.23H176v-18h44.06c-3.285-10.13-5.06-21.72-5.06-34.076 0-5.812.4-11.45 1.156-16.85H176v-18h44.324c1.435-4.29 3.136-8.317 5.098-12.015C232.102 256.857 242.58 247 256 247zm0 18c-4.253 0-9.775 3.644-14.678 12.883-4.902 9.24-8.322 23.063-8.322 38.426 0 15.362 3.42 29.183 8.322 38.422 4.903 9.24 10.425 12.883 14.678 12.883s9.775-3.643 14.678-12.883c4.902-9.24 8.322-23.06 8.322-38.423 0-15.364-3.42-29.188-8.322-38.427C265.775 268.643 260.253 265 256 265zm-79 120.615h35.47a64 94.77 0 0 0 43.53 25.46 64 94.77 0 0 0 43.572-25.46H335v59.924c0 5.83-2.953 12.567-7.596 17.567-4.643 5-10.635 7.893-15.404 7.893H199.697c-4.555 0-10.502-2.867-15.12-7.873-4.62-5.006-7.577-11.758-7.577-17.588v-59.925z"
       fill="#e64539"
       fill-opacity="1"
       filter="url(#shadow-1)"
       id="path3"
       style="filter:url(#filter4)" />
  </g>
</svg>
