<?xml version="1.0" encoding="UTF-8" standalone="no"?>
<svg
   style="height: 512px; width: 512px;"
   viewBox="0 0 512 512"
   version="1.1"
   id="svg3"
   sodipodi:docname="camper-livingonstreet.svg"
   inkscape:version="1.3.2 (091e20e, 2023-11-25, custom)"
   xmlns:inkscape="http://www.inkscape.org/namespaces/inkscape"
   xmlns:sodipodi="http://sodipodi.sourceforge.net/DTD/sodipodi-0.dtd"
   xmlns="http://www.w3.org/2000/svg"
   xmlns:svg="http://www.w3.org/2000/svg">
  <sodipodi:namedview
     id="namedview3"
     pagecolor="#505050"
     bordercolor="#ffffff"
     borderopacity="1"
     inkscape:showpageshadow="0"
     inkscape:pageopacity="0"
     inkscape:pagecheckerboard="1"
     inkscape:deskcolor="#505050"
     inkscape:zoom="1.6035156"
     inkscape:cx="255.68819"
     inkscape:cy="256"
     inkscape:window-width="1920"
     inkscape:window-height="1017"
     inkscape:window-x="-8"
     inkscape:window-y="-8"
     inkscape:window-maximized="1"
     inkscape:current-layer="svg3" />
  <defs
     id="defs2">
    <filter
       id="shadow-1"
       height="1.2834646"
       width="1.1528662"
       x="-0.076433121"
       y="-0.14173228">
      <feFlood
         flood-color="rgba(58, 63, 94, 1)"
         result="flood"
         id="feFlood1" />
      <feComposite
         in="flood"
         in2="SourceGraphic"
         operator="atop"
         result="composite"
         id="feComposite1" />
      <feGaussianBlur
         in="composite"
         stdDeviation="15"
         result="blur"
         id="feGaussianBlur1" />
      <feOffset
         dx="0"
         dy="0"
         result="offset"
         id="feOffset1" />
      <feComposite
         in="SourceGraphic"
         in2="offset"
         operator="over"
         id="feComposite2" />
    </filter>
    <filter
       style="color-interpolation-filters:sRGB;"
       inkscape:label="Drop Shadow"
       id="filter4"
       x="-0.076433121"
       y="-0.14173228"
       width="1.1528662"
       height="1.2834646">
      <feFlood
         result="flood"
         in="SourceGraphic"
         flood-opacity="1.000000"
         flood-color="rgb(58,63,94)"
         id="feFlood3" />
      <feGaussianBlur
         result="blur"
         in="SourceGraphic"
         stdDeviation="0.000000"
         id="feGaussianBlur3" />
      <feOffset
         result="offset"
         in="blur"
         dx="0.000000"
         dy="0.000000"
         id="feOffset3" />
      <feComposite
         result="comp1"
         operator="in"
         in="flood"
         in2="offset"
         id="feComposite3" />
      <feComposite
         result="fbSourceGraphic"
         operator="over"
         in="SourceGraphic"
         in2="comp1"
         id="feComposite4" />
      <feColorMatrix
         result="fbSourceGraphicAlpha"
         in="fbSourceGraphic"
         values="0 0 0 -1 0 0 0 0 -1 0 0 0 0 -1 0 0 0 0 1 0"
         id="feColorMatrix4" />
      <feFlood
         id="feFlood4"
         result="flood"
         in="fbSourceGraphic"
         flood-opacity="1.000000"
         flood-color="rgb(58,63,94)" />
      <feGaussianBlur
         id="feGaussianBlur4"
         result="blur"
         in="fbSourceGraphic"
         stdDeviation="15.000000" />
      <feOffset
         id="feOffset4"
         result="offset"
         in="blur"
         dx="0.000000"
         dy="0.000000" />
      <feComposite
         id="feComposite5"
         result="comp1"
         operator="out"
         in="flood"
         in2="offset" />
      <feComposite
         id="feComposite6"
         result="comp2"
         operator="atop"
         in="comp1"
         in2="fbSourceGraphic" />
    </filter>
  </defs>
  <path
     d="M0 0h512v512H0z"
     fill="#1b1f21"
     fill-opacity="1"
     id="path2" />
  <g
     class=""
     style=""
     transform="translate(0,0)"
     id="g3">
    <path
       d="M60.5 129c-5 0-16.557 3.44-25.322 8.773S21.5 150.095 21.5 152.672V335h105.063c6.948-18.637 24.952-32 45.937-32 20.985 0 38.99 13.363 45.938 32H275.5V175h98v160h31.97c3.642-14.619 13.747-56.938 14.03-79.115.399-31.276-15.2-98.237-15.615-100.012-1.874-5.313-8.415-12.755-16.512-18.14-8.178-5.44-17.92-8.733-22.873-8.733zm-9 46h170v82h-170v-82zm41.963 18L69.5 227.36V239h13.828l32.08-46zm44.844 0l-32.08 46h43.888l32.08-46zm155.193 0v142h62v-62h-23v-18h23v-62zm143.104 77.113c-1.55 14.901-4.853 31.89-8.01 46.08l22.906-3.818v-34.813zM172.5 321c-17.227 0-31 13.773-31 31s13.773 31 31 31 31-13.773 31-31-13.773-31-31-31zm251.637 14c-1.498 6.021-3.126 12.008-4.735 18H492.5v-18z"
       fill="#e64539"
       fill-opacity="1"
       filter="url(#shadow-1)"
       id="path3"
       style="filter:url(#filter4)" />
  </g>
</svg>
