<?xml version="1.0" encoding="UTF-8" standalone="no"?>
<svg
   style="height: 512px; width: 512px;"
   viewBox="0 0 512 512"
   version="1.1"
   id="svg3"
   sodipodi:docname="corpo-mcmansion.svg"
   inkscape:version="1.3.2 (091e20e, 2023-11-25, custom)"
   xmlns:inkscape="http://www.inkscape.org/namespaces/inkscape"
   xmlns:sodipodi="http://sodipodi.sourceforge.net/DTD/sodipodi-0.dtd"
   xmlns="http://www.w3.org/2000/svg"
   xmlns:svg="http://www.w3.org/2000/svg">
  <sodipodi:namedview
     id="namedview3"
     pagecolor="#505050"
     bordercolor="#ffffff"
     borderopacity="1"
     inkscape:showpageshadow="0"
     inkscape:pageopacity="0"
     inkscape:pagecheckerboard="1"
     inkscape:deskcolor="#505050"
     inkscape:zoom="1.6035156"
     inkscape:cx="255.68819"
     inkscape:cy="256"
     inkscape:window-width="1920"
     inkscape:window-height="1017"
     inkscape:window-x="-8"
     inkscape:window-y="-8"
     inkscape:window-maximized="1"
     inkscape:current-layer="svg3" />
  <defs
     id="defs2">
    <filter
       id="shadow-1"
       height="1.1769042"
       width="1.15"
       x="-0.075"
       y="-0.088452088">
      <feFlood
         flood-color="rgba(58, 63, 94, 1)"
         result="flood"
         id="feFlood1" />
      <feComposite
         in="flood"
         in2="SourceGraphic"
         operator="atop"
         result="composite"
         id="feComposite1" />
      <feGaussianBlur
         in="composite"
         stdDeviation="15"
         result="blur"
         id="feGaussianBlur1" />
      <feOffset
         dx="0"
         dy="0"
         result="offset"
         id="feOffset1" />
      <feComposite
         in="SourceGraphic"
         in2="offset"
         operator="over"
         id="feComposite2" />
    </filter>
    <filter
       style="color-interpolation-filters:sRGB;"
       inkscape:label="Drop Shadow"
       id="filter4"
       x="-0.075"
       y="-0.088452088"
       width="1.15"
       height="1.1769042">
      <feFlood
         result="flood"
         in="SourceGraphic"
         flood-opacity="1.000000"
         flood-color="rgb(58,63,94)"
         id="feFlood3" />
      <feGaussianBlur
         result="blur"
         in="SourceGraphic"
         stdDeviation="0.000000"
         id="feGaussianBlur3" />
      <feOffset
         result="offset"
         in="blur"
         dx="0.000000"
         dy="0.000000"
         id="feOffset3" />
      <feComposite
         result="comp1"
         operator="in"
         in="flood"
         in2="offset"
         id="feComposite3" />
      <feComposite
         result="fbSourceGraphic"
         operator="over"
         in="SourceGraphic"
         in2="comp1"
         id="feComposite4" />
      <feColorMatrix
         result="fbSourceGraphicAlpha"
         in="fbSourceGraphic"
         values="0 0 0 -1 0 0 0 0 -1 0 0 0 0 -1 0 0 0 0 1 0"
         id="feColorMatrix4" />
      <feFlood
         id="feFlood4"
         result="flood"
         in="fbSourceGraphic"
         flood-opacity="1.000000"
         flood-color="rgb(58,63,94)" />
      <feGaussianBlur
         id="feGaussianBlur4"
         result="blur"
         in="fbSourceGraphic"
         stdDeviation="15.000000" />
      <feOffset
         id="feOffset4"
         result="offset"
         in="blur"
         dx="0.000000"
         dy="0.000000" />
      <feComposite
         id="feComposite5"
         result="comp1"
         operator="out"
         in="flood"
         in2="offset" />
      <feComposite
         id="feComposite6"
         result="comp2"
         operator="atop"
         in="comp1"
         in2="fbSourceGraphic" />
    </filter>
  </defs>
  <path
     d="M0 0h512v512H0z"
     fill="#1b1f21"
     fill-opacity="1"
     id="path2" />
  <g
     class=""
     style=""
     transform="translate(0,0)"
     id="g3">
    <path
       d="M208 80v25h-13v126h18v-71c0-5.5 1.4-10.5 4.3-14.4 3-3.9 7.8-6.5 12.7-6.5 5 0 9.7 2.7 12.7 6.6 2.9 3.9 4.3 8.8 4.3 14.3v71h18v-71c0-5.5 1.4-10.5 4.3-14.4 2.9-3.9 7.7-6.6 12.7-6.6 5 0 9.8 2.7 12.7 6.6 2.9 3.9 4.3 8.9 4.3 14.4v71h18V105h-13V80h-18v25h-21V80h-18v25h-21V80h-18zM16 112v32h9v71h78v-65.9h9V112H94v25H73v-25H55v25H34v-25H16zm384 0v32h9v71h78v-71h9v-32h-18v25h-21v-25h-18v25h-21v-25h-18zm-265 32v25h-14v64h-16v254h110v-81.6c0-17.5 4.4-31.5 11.8-41.4 7.4-9.9 18.2-15.6 29.2-15.6s21.8 5.7 29.2 15.6c7.4 9.9 11.8 23.9 11.8 41.4V487h110V233h-16v-64h-14v-25h-18v25h-24v80H177v-80h-24v-25h-18zm-94 89v254h46V233H41zm384 0v254h46V233h-46zm-290 7h18v48h-18v-48zm224 0h18v48h-18v-48zM135 359h50v50h-50v-50zm192 0h50v50h-50v-50zm-71 7.4c-5 0-10.2 2.3-14.8 8.4-4.6 6.1-8.2 16.1-8.2 30.6V432h46v-26.6c0-14.5-3.6-24.5-8.2-30.6-4.6-6.1-9.8-8.4-14.8-8.4zM153 377v14h14v-14h-14zm192 0v14h14v-14h-14z"
       fill="#e64539"
       fill-opacity="1"
       filter="url(#shadow-1)"
       id="path3"
       style="filter:url(#filter4)" />
  </g>
</svg>
