<?xml version="1.0" encoding="UTF-8" standalone="no"?>
<svg
   style="height: 512px; width: 512px;"
   viewBox="0 0 512 512"
   version="1.1"
   id="svg3"
   sodipodi:docname="corpo-house.svg"
   inkscape:version="1.3.2 (091e20e, 2023-11-25, custom)"
   xmlns:inkscape="http://www.inkscape.org/namespaces/inkscape"
   xmlns:sodipodi="http://sodipodi.sourceforge.net/DTD/sodipodi-0.dtd"
   xmlns="http://www.w3.org/2000/svg"
   xmlns:svg="http://www.w3.org/2000/svg">
  <sodipodi:namedview
     id="namedview3"
     pagecolor="#505050"
     bordercolor="#ffffff"
     borderopacity="1"
     inkscape:showpageshadow="0"
     inkscape:pageopacity="0"
     inkscape:pagecheckerboard="1"
     inkscape:deskcolor="#505050"
     inkscape:zoom="1.6035156"
     inkscape:cx="255.68819"
     inkscape:cy="256"
     inkscape:window-width="1920"
     inkscape:window-height="1017"
     inkscape:window-x="-8"
     inkscape:window-y="-8"
     inkscape:window-maximized="1"
     inkscape:current-layer="svg3" />
  <defs
     id="defs2">
    <filter
       id="shadow-1"
       height="1.1558442"
       width="1.1571912"
       x="-0.078595584"
       y="-0.077922078">
      <feFlood
         flood-color="rgba(58, 63, 94, 1)"
         result="flood"
         id="feFlood1" />
      <feComposite
         in="flood"
         in2="SourceGraphic"
         operator="atop"
         result="composite"
         id="feComposite1" />
      <feGaussianBlur
         in="composite"
         stdDeviation="15"
         result="blur"
         id="feGaussianBlur1" />
      <feOffset
         dx="0"
         dy="0"
         result="offset"
         id="feOffset1" />
      <feComposite
         in="SourceGraphic"
         in2="offset"
         operator="over"
         id="feComposite2" />
    </filter>
    <filter
       style="color-interpolation-filters:sRGB;"
       inkscape:label="Drop Shadow"
       id="filter4"
       x="-0.078595584"
       y="-0.077922078"
       width="1.1571912"
       height="1.1558442">
      <feFlood
         result="flood"
         in="SourceGraphic"
         flood-opacity="1.000000"
         flood-color="rgb(58,63,94)"
         id="feFlood3" />
      <feGaussianBlur
         result="blur"
         in="SourceGraphic"
         stdDeviation="15.000000"
         id="feGaussianBlur3" />
      <feOffset
         result="offset"
         in="blur"
         dx="0.000000"
         dy="0.000000"
         id="feOffset3" />
      <feComposite
         result="comp1"
         operator="out"
         in="flood"
         in2="offset"
         id="feComposite3" />
      <feComposite
         result="fbSourceGraphic"
         operator="atop"
         in="comp1"
         in2="SourceGraphic"
         id="feComposite4" />
      <feColorMatrix
         result="fbSourceGraphicAlpha"
         in="fbSourceGraphic"
         values="0 0 0 -1 0 0 0 0 -1 0 0 0 0 -1 0 0 0 0 1 0"
         id="feColorMatrix4" />
      <feFlood
         id="feFlood4"
         result="flood"
         in="fbSourceGraphic"
         flood-opacity="1.000000"
         flood-color="rgb(58,63,94)" />
      <feGaussianBlur
         id="feGaussianBlur4"
         result="blur"
         in="fbSourceGraphic"
         stdDeviation="0.000000" />
      <feOffset
         id="feOffset4"
         result="offset"
         in="blur"
         dx="0.000000"
         dy="0.000000" />
      <feComposite
         id="feComposite5"
         result="comp1"
         operator="in"
         in="flood"
         in2="offset" />
      <feComposite
         id="feComposite6"
         result="comp2"
         operator="over"
         in="fbSourceGraphic"
         in2="comp1" />
    </filter>
  </defs>
  <path
     d="M0 0h512v512H0z"
     fill="#1b1f21"
     fill-opacity="1"
     id="path2" />
  <g
     class=""
     style=""
     transform="translate(0,0)"
     id="g3">
    <path
       d="M55.379 25l-28.4 142H172.27L256 83.271 339.729 167H485.02l-28.4-142zM256 108.727L179.729 185H41v302h158v-87c0-18.25 7.166-33.077 18.021-42.727C227.877 347.624 242 343 256 343s28.123 4.624 38.979 14.273C305.834 366.923 313 381.75 313 400v87h158V185H332.271zm0 38.544l57 57V297H199v-92.729zm0 25.456l-39 39V279h78v-67.271zM71 199h98v98H71zm272 0h98v98h-98zM89 217v30h62v-30zm272 0v30h62v-30zM89 265v14h62v-14zm272 0v14h62v-14zM71 359h98v98H71v-98zm272 0h98v98h-98v-98zm-87 2c-10 0-19.877 3.376-27.021 9.727C221.834 377.077 217 386.25 217 400v87h78v-87c0-13.75-4.834-22.923-11.979-29.273C275.877 364.376 266 361 256 361zM89 377v62h62v-62zm272 0v62h62v-62z"
       fill="#e64539"
       fill-opacity="1"
       filter="url(#shadow-1)"
       id="path3"
       style="filter:url(#filter4)" />
  </g>
</svg>
