<?xml version="1.0" encoding="UTF-8" standalone="no"?>
<svg
   style="height: 512px; width: 512px;"
   viewBox="0 0 512 512"
   version="1.1"
   id="svg2"
   sodipodi:docname="corpo-conapt.svg"
   inkscape:version="1.3.2 (091e20e, 2023-11-25, custom)"
   xmlns:inkscape="http://www.inkscape.org/namespaces/inkscape"
   xmlns:sodipodi="http://sodipodi.sourceforge.net/DTD/sodipodi-0.dtd"
   xmlns="http://www.w3.org/2000/svg"
   xmlns:svg="http://www.w3.org/2000/svg">
  <defs
     id="defs2">
    <filter
       style="color-interpolation-filters:sRGB;"
       inkscape:label="Drop Shadow"
       id="filter3"
       x="-0.077922078"
       y="-0.077922078"
       width="1.1558442"
       height="1.1558442">
      <feFlood
         result="flood"
         in="SourceGraphic"
         flood-opacity="1.000000"
         flood-color="rgb(58,63,94)"
         id="feFlood2" />
      <feGaussianBlur
         result="blur"
         in="SourceGraphic"
         stdDeviation="15.000000"
         id="feGaussianBlur2" />
      <feOffset
         result="offset"
         in="blur"
         dx="0.000000"
         dy="0.000000"
         id="feOffset2" />
      <feComposite
         result="comp1"
         operator="out"
         in="flood"
         in2="offset"
         id="feComposite2" />
      <feComposite
         result="comp2"
         operator="atop"
         in="comp1"
         in2="SourceGraphic"
         id="feComposite3" />
    </filter>
  </defs>
  <sodipodi:namedview
     id="namedview2"
     pagecolor="#505050"
     bordercolor="#ffffff"
     borderopacity="1"
     inkscape:showpageshadow="0"
     inkscape:pageopacity="0"
     inkscape:pagecheckerboard="1"
     inkscape:deskcolor="#505050"
     inkscape:zoom="1.6035156"
     inkscape:cx="255.68819"
     inkscape:cy="256"
     inkscape:window-width="1920"
     inkscape:window-height="1017"
     inkscape:window-x="-8"
     inkscape:window-y="-8"
     inkscape:window-maximized="1"
     inkscape:current-layer="svg2" />
  <path
     d="M0 0h512v512H0z"
     fill="#000"
     fill-opacity="1"
     id="path1"
     style="fill:#1b1f21;fill-opacity:1" />
  <g
     class=""
     style=""
     transform="translate(0,0)"
     id="g2">
    <path
       d="M217 25v30h30V25h-30zm48 0v30h30V25h-30zm48 0v30h30V25h-30zm-96 48v46h30V73h-30zm48 0v46h30V73h-30zm48 0v46h30V73h-30zm-96 64v46h30v-46h-30zm48 0v46h30v-46h-30zm48 0v46h30v-46h-30zm174 6.508l-94 53.715V215h94v-71.492zM217 201v46h30v-46h-30zm48 0v46h30v-46h-30zm48 0v46h30v-46h-30zm80 32v110h94V233h-94zM39 256v23h18v-23H39zm178 9v46h30v-46h-30zm48 0v46h30v-46h-30zm48 0v46h30v-46h-30zM37.562 297l-7 14h146.875l-7-14H37.563zM25 329v158h23v-23h32v23h48v-23h32v23h23V329H25zm192 0v46h30v-46h-30zm48 0v46h30v-46h-30zm48 0v46h30v-46h-30zM48 352h32v16H48v-16zm80 0h32v16h-32v-16zm265 9v126h31v-23h32v23h31V361h-94zM48 384h32v16H48v-16zm80 0h32v16h-32v-16zm89 9v46h30v-46h-30zm48 0v46h30v-46h-30zm48 0v46h30v-46h-30zM48 416h32v16H48v-16zm80 0h32v16h-32v-16zm89 41v30h30v-30h-30zm48 0v30h30v-30h-30zm48 0v30h30v-30h-30z"
       fill="#fff"
       fill-opacity="1"
       id="path2"
       style="fill:#e64539;fill-opacity:1;filter:url(#filter3)" />
  </g>
</svg>
