<?xml version="1.0" encoding="UTF-8" standalone="no"?>
<svg
   viewBox="0 0 512 512"
   version="1.1"
   id="svg3"
   sodipodi:docname="agent_double_agent.svg"
   inkscape:version="1.3.2 (091e20e, 2023-11-25, custom)"
   xml:space="preserve"
   inkscape:export-filename="brain_lotus.svg"
   inkscape:export-xdpi="96"
   inkscape:export-ydpi="96"
   width="512"
   height="512"
   xmlns:inkscape="http://www.inkscape.org/namespaces/inkscape"
   xmlns:sodipodi="http://sodipodi.sourceforge.net/DTD/sodipodi-0.dtd"
   xmlns="http://www.w3.org/2000/svg"
   xmlns:svg="http://www.w3.org/2000/svg"><sodipodi:namedview
     id="namedview3"
     pagecolor="#505050"
     bordercolor="#eeeeee"
     borderopacity="1"
     inkscape:showpageshadow="0"
     inkscape:pageopacity="0"
     inkscape:pagecheckerboard="0"
     inkscape:deskcolor="#505050"
     inkscape:zoom="1.3007812"
     inkscape:cx="256"
     inkscape:cy="255.61562"
     inkscape:window-width="1920"
     inkscape:window-height="1017"
     inkscape:window-x="-8"
     inkscape:window-y="-8"
     inkscape:window-maximized="1"
     inkscape:current-layer="svg3" /><defs
     id="defs2"><filter
       style="color-interpolation-filters:sRGB"
       inkscape:label="Drop Shadow"
       id="filter17"
       x="-0.084505494"
       y="-0.079978299"
       width="1.169011"
       height="1.1599566"><feFlood
         result="flood"
         in="SourceGraphic"
         flood-opacity="1.000000"
         flood-color="rgb(58,63,94)"
         id="feFlood15" /><feGaussianBlur
         result="blur"
         in="SourceGraphic"
         stdDeviation="15.000000"
         id="feGaussianBlur15" /><feOffset
         result="offset"
         in="blur"
         dx="0.000000"
         dy="0.000000"
         id="feOffset15" /><feComposite
         result="comp1"
         operator="out"
         in="flood"
         in2="offset"
         id="feComposite16" /><feComposite
         result="comp2"
         operator="atop"
         in="comp1"
         in2="SourceGraphic"
         id="feComposite17" /></filter></defs><path
     d="M 0,0 H 512 V 512 H 0 Z"
     fill="#1b1f21"
     fill-opacity="1"
     id="path2" /><path
     style="fill:#e64539;fill-opacity:1;filter:url(#filter17)"
     d="m 238.5,478.44151 c -2.68006,-1.27801 -10.73123,-4.99233 -27.5,-12.68684 -3.025,-1.38805 -8.5375,-3.92569 -12.25,-5.6392 C 195.0375,458.40196 189.075,455.65 185.5,454 c -3.575,-1.65 -9.425,-4.35 -13,-6 -3.575,-1.65 -9.3125,-4.29611 -12.75,-5.88024 -3.4375,-1.58414 -9.85,-4.5584 -14.25,-6.60947 -8.26901,-3.85462 -29.5968,-13.6845 -37.5,-17.28357 -5.3626,-2.44209 -19.224089,-8.85291 -31,-14.33723 -4.675,-2.17726 -14.125,-6.56122 -21,-9.74213 l -12.5,-5.78349 -0.253902,-124.14186 -0.253901,-124.14186 6.253901,2.82858 c 26.011513,11.76477 98.416002,45.41903 99.079082,46.05286 0.45385,0.43383 -1.34615,1.08896 -4,1.45585 -2.65385,0.36689 -7.07518,1.10679 -9.82518,1.64422 C 121.641,194.57469 90.436031,200 88.840786,200 c -1.617484,0 -1.812034,-1.33694 -2.063329,-14.17908 L 86.5,171.64184 l -11.973829,0.2584 c -6.585606,0.14212 -12.323106,0.47426 -12.75,0.73809 C 61.349277,172.90217 61,205.18142 61,244.37001 v 71.25197 l 21.25,7.80009 c 28.93395,10.62058 39.84908,14.96781 114.75,45.70213 7.975,3.27241 21.58692,8.74567 30.24871,12.16281 l 15.7487,6.21299 0.001,46.25 c 7.1e-4,25.4375 -0.33621,46.22122 -0.74871,46.18605 -0.4125,-0.0352 -2.1,-0.70772 -3.75,-1.49454 z M 90.791666,349.25622 90.5,342.86549 75.674762,336.93275 C 67.520881,333.66974 60.419531,331 59.893983,331 c -0.570619,0 -0.842434,4.92833 -0.674762,12.23421 l 0.280779,12.2342 6.892318,4.14289 6.892318,4.14289 8.899348,-4.05362 8.899348,-4.05362 z M 269,465.18312 v -14.81688 l 8.5,-4.19392 8.5,-4.19392 V 424.4892 C 286,414.87014 285.83099,407 285.62443,407 c -0.20656,0 -3.01906,1.1741 -6.25,2.60911 -3.23094,1.43502 -6.88693,2.99888 -8.12443,3.47525 L 269,413.9505 v -57.43528 -57.43527 l 11.75,-3.65402 c 6.4625,-2.0097 16.475,-5.14547 22.25,-6.96837 5.775,-1.8229 15.225,-4.72564 21,-6.45053 5.775,-1.7249 11.625,-3.52806 13,-4.00703 1.375,-0.47897 7.225,-2.29594 13,-4.03772 5.775,-1.74179 14.55,-4.44951 19.5,-6.01718 4.95,-1.56767 10.24175,-3.14648 11.75945,-3.50848 1.5177,-0.362 2.98673,-1.02593 3.26452,-1.4754 0.5951,-0.96289 0.027,-1.1375 -13.02397,-4.00284 -5.5,-1.20752 -14.17771,-3.22104 -19.2838,-4.47448 -5.10609,-1.25344 -10.05609,-2.11862 -11,-1.92262 -0.94391,0.196 -8.9162,1.76178 -17.7162,3.47952 -14.54324,2.83879 -35.2158,7.80705 -47.9315,11.51944 C 272.85617,268.35211 270.26867,269 269.8185,269 269.36832,269 269,265.64234 269,261.53854 v -7.46145 l 4.05126,-1.09089 c 2.22819,-0.59999 10.44069,-2.67723 18.25,-4.61608 13.81786,-3.43063 18.75213,-5.37155 13.64874,-5.3688 -1.3475,7.3e-4 -6.44976,-0.96714 -11.33835,-2.15083 l -8.88835,-2.15215 -7.37819,3.65083 C 273.2871,244.35713 269.74936,246 269.48346,246 269.21756,246 269,242.91662 269,239.14804 v -6.85196 l 7.25,-3.30221 c 3.9875,-1.81622 12.36861,-5.70783 18.62468,-8.64804 C 301.13075,217.40562 306.37666,215 306.53225,215 c 0.1556,0 4.48699,-1.96344 9.62533,-4.3632 5.13833,-2.39976 11.59242,-5.38175 14.34242,-6.62665 2.75,-1.2449 10.11861,-4.68146 16.37468,-7.6368 C 353.13075,193.41801 358.37666,191 358.53225,191 c 0.1556,0 4.48699,-1.96344 9.62533,-4.3632 5.13833,-2.39976 11.59242,-5.38175 14.34242,-6.62665 2.75,-1.2449 10.11861,-4.68146 16.37468,-7.6368 C 405.13075,169.41801 410.37666,167 410.53225,167 c 0.1556,0 4.48699,-1.96344 9.62533,-4.3632 C 425.29591,160.23704 431.75,157.25048 434.5,156 c 2.75,-1.25048 9.275,-4.29106 14.5,-6.75684 5.225,-2.46579 11.8625,-5.54855 14.75,-6.85059 L 469,140.02522 V 264.51261 C 469,338.38603 468.631,389 468.09242,389 c -0.49916,0 -5.11166,1.96344 -10.25,4.3632 -5.13833,2.39976 -11.59242,5.38536 -14.34242,6.63467 -9.83903,4.46982 -43.18085,19.85746 -52.84242,24.3874 -5.41334,2.5381 -9.96973,4.61473 -10.12533,4.61473 -0.15559,0 -5.4015,2.41693 -11.65757,5.37095 -6.25607,2.95402 -13.84968,6.50206 -16.87468,7.88453 -3.025,1.38246 -8.5375,3.91554 -12.25,5.62905 -3.7125,1.71351 -9.675,4.46547 -13.25,6.11547 -3.575,1.65 -9.425,4.35 -13,6 -3.575,1.65 -9.425,4.35 -13,6 -3.575,1.65 -9.5375,4.40196 -13.25,6.11547 C 271.96938,479.16827 270.10371,480 269.56408,480 269.25383,480 269,473.3324 269,465.18312 Z m 18.57567,-72.6203 c 3.80838,-1.34045 13.22433,-4.6671 20.92433,-7.39256 7.7,-2.72545 22.325,-7.90155 32.5,-11.50244 10.175,-3.60089 26.825,-9.46242 37,-13.02562 10.175,-3.56321 21.65,-7.60937 25.5,-8.99147 3.85,-1.38211 15.325,-5.43298 25.5,-9.00195 10.175,-3.56897 19.2875,-6.79812 20.25,-7.17589 1.62379,-0.63733 1.75,-3.41963 1.75,-38.57988 C 451,266.81021 450.73669,259 449.7225,259 c -0.70263,0 -6.89013,1.74995 -13.75,3.88878 -6.85988,2.13883 -34.7475,10.73716 -61.9725,19.10741 -27.225,8.37025 -59.85,18.45052 -72.5,22.40061 l -23,7.18198 -0.26097,41.71061 C 278.02459,387.56334 278.21637,395 279.3147,395 c 0.73515,0 4.45259,-1.09673 8.26097,-2.43718 z m 161.20101,-24.52525 c 0.25882,-14.28627 0.162,-15.22732 -1.5,-14.57941 -1.98619,0.77429 -15.72313,5.66066 -24.52668,8.72439 -3.1625,1.10058 -5.79856,2.29725 -5.8579,2.65925 -0.40534,2.47252 -0.32999,20.43337 0.0883,21.04286 0.2858,0.41646 3.40768,1.90063 6.93753,3.29816 l 6.41789,2.54096 9.08211,-4.2071 9.0821,-4.20709 z M 212,316.89122 c -16.225,-4.93572 -49.75,-15.09094 -74.5,-22.56715 -24.75,-7.47622 -46.8,-14.14964 -49,-14.82984 l -4,-1.23673 0.0033,-5.97242 c 0.0028,-5.04404 0.527594,-6.81279 3.375981,-11.37875 L 91.251962,255.5 90.119373,248 C 88.049663,234.29439 87.91388,234.64753 96.25,232.0554 c 40.93983,-12.73029 49.11221,-14.48572 67.5,-14.49902 11.7512,-0.008 12.25,-0.0938 12.25,-2.09611 0,-1.75034 1.29559,-2.46162 8.02642,-4.40652 l 8.02641,-2.31927 9.22359,4.25923 c 5.07297,2.34258 9.38831,4.40456 9.58966,4.58217 0.20134,0.17762 -3.7869,1.56611 -8.86274,3.08554 -5.07585,1.51943 -9.45785,3.35945 -9.73778,4.08892 -0.27993,0.72948 2.13331,4.16805 5.36274,7.64127 3.22944,3.47321 6.64351,7.45732 7.58684,8.85356 1.15397,1.70801 3.3192,2.92343 6.61768,3.71472 5.30188,1.27191 10.23655,0.67719 23.95764,-2.88733 l 7.29045,-1.89394 -0.29045,7.66069 L 242.5,255.5 l -10,2.32278 c -5.5,1.27753 -12.925,2.40452 -16.5,2.50443 -4.67609,0.13068 -8.04331,0.91901 -12,2.80942 -16.41298,7.84175 -34.56239,14.20575 -49.75,17.44461 -7.56299,1.61285 -10.78001,3.33393 -6.5,3.47744 0.9625,0.0323 6.025,1.31797 11.25,2.8571 9.26011,2.72777 9.58838,2.75492 13,1.07496 10.3226,-5.0831 58.56211,-23.00842 68.25,-25.36103 L 243,261.9619 v 7.38457 7.38458 l -12.25,4.21165 c -6.7375,2.31641 -18.4375,6.49462 -26,9.28492 -12.77925,4.71509 -16.28396,6.70634 -12,6.81799 0.9625,0.0251 12.55,3.08466 25.75,6.79906 l 24,6.75347 0.29206,7.70093 c 0.16064,4.23551 -0.0644,7.67061 -0.5,7.63356 C 241.85643,325.89558 228.225,321.82694 212,316.89122 Z M 147.7919,267.38177 C 164.53744,263.93171 195,253.70617 195,251.53516 c 0,-1.50865 -5.17752,-8.50825 -8.15706,-11.02771 -1.83862,-1.55471 -6.20174,-4.16898 -9.69582,-5.8095 -6.2329,-2.92642 -6.57284,-2.97136 -18,-2.37942 -6.40592,0.33184 -15.02212,1.48354 -19.14712,2.55934 -14.96607,3.90314 -22.6071,6.0725 -28,7.94944 -5.27014,1.83422 -5.4886,2.05084 -5.22725,5.18313 0.15001,1.7979 1.30125,5.34355 2.55832,7.87923 2.78127,5.61023 9.99122,10.33237 19.06233,12.4848 3.35863,0.79695 6.23795,1.48872 6.3985,1.53727 0.16054,0.0485 6.01054,-1.08994 13,-2.52997 z M 244.5,203 l -10,-4.84205 8.75,-0.079 L 252,198 V 172.5 147 h -8.36043 c -4.59823,0 -10.44823,0.28617 -13,0.63592 L 226,148.27185 v 13.86407 c 0,7.62525 -0.1125,13.86706 -0.25,13.87071 -0.6136,0.0163 -22.57037,3.93667 -25.35911,4.52788 -2.6605,0.56403 -12.79106,-3.79176 -70.20962,-30.18769 C 93.275987,133.38107 63.062589,119.1625 63.04038,118.75 63.01817,118.3375 63.441501,118 63.981114,118 c 0.539613,0 6.659861,-2.7 13.60055,-6 6.94069,-3.3 12.772136,-6 12.95877,-6 0.186633,0 4.753886,-2.05806 10.149446,-4.57347 C 106.08545,98.911129 112.3,96.023371 114.5,95.009296 116.7,93.995221 123.8336,90.65328 130.35245,87.582761 136.87129,84.512243 142.36758,82 142.56641,82 c 0.19884,0 5.58896,-2.475 11.97805,-5.5 6.38909,-3.025 11.79773,-5.5 12.0192,-5.5 0.22147,0 6.54385,-2.925 14.04974,-6.5 7.50589,-3.575 13.78641,-6.5 13.95672,-6.5 0.1703,0 4.7242,-2.058059 10.11976,-4.573465 5.39557,-2.515406 11.61012,-5.403164 13.81012,-6.417239 2.2,-1.014075 9.175,-4.273338 15.5,-7.242805 6.325,-2.969468 13.975,-6.409184 17,-7.643814 l 5.5,-2.244781 95.48334,44.094389 c 52.51583,24.251914 95.91833,44.529385 96.45,45.061055 0.62221,0.62221 0.56049,0.96666 -0.17322,0.96666 -0.62694,0 -5.55444,2.07916 -10.95,4.62035 -5.39557,2.54119 -12.62262,5.91619 -16.06012,7.5 -3.4375,1.58381 -9.2875,4.28161 -13,5.99512 -3.7125,1.71351 -9.225,4.25115 -12.25,5.6392 -3.025,1.38805 -9.70409,4.48609 -14.84242,6.88453 -5.13834,2.39844 -9.46973,4.3608 -9.62533,4.3608 -0.15559,0 -5.4015,2.41693 -11.65757,5.37095 -6.25607,2.95402 -13.96218,6.55402 -17.12468,8 -11.95642,5.46679 -17.52595,8.03625 -26.59242,12.26825 -5.13834,2.39844 -9.46973,4.3608 -9.62533,4.3608 -0.15559,0 -5.4015,2.41801 -11.65757,5.37335 -6.25607,2.95534 -13.62468,6.38947 -16.37468,7.6314 -2.75,1.24192 -8.77543,3.99892 -13.38985,6.12665 -4.61441,2.12773 -8.88941,3.83306 -9.5,3.78962 C 254.99957,207.87759 250,205.66313 244.5,203 Z"
     id="path15" /></svg>
