<?xml version="1.0" encoding="UTF-8" standalone="no"?>
<svg
   style="height: 512px; width: 512px;"
   viewBox="0 0 512 512"
   version="1.1"
   id="svg3"
   sodipodi:docname="fresh-food-plus.svg"
   inkscape:version="1.3.2 (091e20e, 2023-11-25, custom)"
   xmlns:inkscape="http://www.inkscape.org/namespaces/inkscape"
   xmlns:sodipodi="http://sodipodi.sourceforge.net/DTD/sodipodi-0.dtd"
   xmlns="http://www.w3.org/2000/svg"
   xmlns:svg="http://www.w3.org/2000/svg">
  <sodipodi:namedview
     id="namedview3"
     pagecolor="#505050"
     bordercolor="#ffffff"
     borderopacity="1"
     inkscape:showpageshadow="0"
     inkscape:pageopacity="0"
     inkscape:pagecheckerboard="1"
     inkscape:deskcolor="#505050"
     inkscape:zoom="1.6035156"
     inkscape:cx="255.37637"
     inkscape:cy="255.37637"
     inkscape:window-width="1920"
     inkscape:window-height="1017"
     inkscape:window-x="-8"
     inkscape:window-y="-8"
     inkscape:window-maximized="1"
     inkscape:current-layer="svg3" />
  <defs
     id="defs2">
    <filter
       id="shadow-1"
       height="1.152863"
       width="1.1461258"
       x="-0.073062919"
       y="-0.076431498">
      <feFlood
         flood-color="rgba(58, 63, 94, 1)"
         result="flood"
         id="feFlood1" />
      <feComposite
         in="flood"
         in2="SourceGraphic"
         operator="atop"
         result="composite"
         id="feComposite1" />
      <feGaussianBlur
         in="composite"
         stdDeviation="15"
         result="blur"
         id="feGaussianBlur1" />
      <feOffset
         dx="0"
         dy="0"
         result="offset"
         id="feOffset1" />
      <feComposite
         in="SourceGraphic"
         in2="offset"
         operator="over"
         id="feComposite2" />
    </filter>
    <filter
       style="color-interpolation-filters:sRGB;"
       inkscape:label="Drop Shadow"
       id="filter4"
       x="-0.073062919"
       y="-0.076431498"
       width="1.1461258"
       height="1.152863">
      <feFlood
         result="flood"
         in="SourceGraphic"
         flood-opacity="1.000000"
         flood-color="rgb(58,63,94)"
         id="feFlood3" />
      <feGaussianBlur
         result="blur"
         in="SourceGraphic"
         stdDeviation="0.000000"
         id="feGaussianBlur3" />
      <feOffset
         result="offset"
         in="blur"
         dx="0.000000"
         dy="0.000000"
         id="feOffset3" />
      <feComposite
         result="comp1"
         operator="in"
         in="flood"
         in2="offset"
         id="feComposite3" />
      <feComposite
         result="fbSourceGraphic"
         operator="over"
         in="SourceGraphic"
         in2="comp1"
         id="feComposite4" />
      <feColorMatrix
         result="fbSourceGraphicAlpha"
         in="fbSourceGraphic"
         values="0 0 0 -1 0 0 0 0 -1 0 0 0 0 -1 0 0 0 0 1 0"
         id="feColorMatrix4" />
      <feFlood
         id="feFlood4"
         result="flood"
         in="fbSourceGraphic"
         flood-opacity="1.000000"
         flood-color="rgb(58,63,94)" />
      <feGaussianBlur
         id="feGaussianBlur4"
         result="blur"
         in="fbSourceGraphic"
         stdDeviation="15.000000" />
      <feOffset
         id="feOffset4"
         result="offset"
         in="blur"
         dx="0.000000"
         dy="0.000000" />
      <feComposite
         id="feComposite5"
         result="comp1"
         operator="out"
         in="flood"
         in2="offset" />
      <feComposite
         id="feComposite6"
         result="comp2"
         operator="atop"
         in="comp1"
         in2="fbSourceGraphic" />
    </filter>
  </defs>
  <path
     d="M0 0h512v512H0z"
     fill="#1b1f21"
     fill-opacity="1"
     id="path2" />
  <g
     class=""
     style=""
     transform="translate(0,0)"
     id="g3">
    <path
       d="M267.895 20.495s-12.96 6.614-25.907 16.354c-6.473 4.87-13.025 10.52-18.205 17.027-5.18 6.506-9.402 14.232-8.76 23.266.714 10.04 7.52 17.517 14.78 22 7.259 4.482 15.502 7.194 23.265 9.869 7.764 2.675 15.05 5.313 19.672 8.168 4.623 2.854 6.052 4.703 6.283 7.963.027.37-.418 2.346-2.613 5.103-2.195 2.757-5.726 5.93-9.42 8.71-7.388 5.557-15.095 9.54-15.095 9.54l8.21 16.016s8.826-4.494 17.706-11.174c4.44-3.34 8.976-7.227 12.681-11.88 3.705-4.655 6.993-10.44 6.485-17.593-.714-10.04-7.52-17.517-14.78-22-7.259-4.483-15.502-7.194-23.265-9.869-7.764-2.675-15.05-5.313-19.672-8.168-4.623-2.855-6.052-4.703-6.283-7.963-.16-2.252 1.217-6.168 4.886-10.777 3.67-4.61 9.218-9.549 14.946-13.858 11.454-8.617 23.296-14.718 23.296-14.718zm-128 48s-12.96 6.614-25.907 16.354c-6.473 4.87-13.025 10.52-18.205 17.027-5.18 6.506-9.402 14.232-8.76 23.266.714 10.04 7.52 17.517 14.78 22 7.259 4.482 15.502 7.194 23.265 9.869 7.764 2.675 15.05 5.313 19.672 8.168 4.623 2.854 6.052 4.703 6.283 7.963.027.37-.418 2.346-2.613 5.103-2.195 2.757-5.726 5.93-9.42 8.71-7.388 5.557-15.095 9.54-15.095 9.54l8.21 16.016s8.826-4.494 17.706-11.174c4.44-3.34 8.976-7.227 12.681-11.881 3.705-4.654 6.993-10.44 6.485-17.592-.714-10.04-7.52-17.517-14.78-22-7.259-4.483-15.502-7.194-23.265-9.869-7.764-2.675-15.05-5.313-19.672-8.168-4.623-2.855-6.052-4.703-6.283-7.963-.16-2.252 1.217-6.168 4.886-10.777 3.67-4.61 9.218-9.549 14.946-13.858 11.454-8.617 23.296-14.718 23.296-14.718zm256 0s-12.96 6.614-25.907 16.354c-6.473 4.87-13.025 10.52-18.205 17.027-5.18 6.506-9.402 14.232-8.76 23.266.714 10.04 7.52 17.517 14.78 22 7.259 4.482 15.502 7.194 23.265 9.869 7.764 2.675 15.05 5.313 19.672 8.168 4.623 2.854 6.052 4.703 6.283 7.963.027.37-.418 2.346-2.613 5.103-2.195 2.757-5.726 5.93-9.42 8.71-7.388 5.557-15.095 9.54-15.095 9.54l8.21 16.016s8.826-4.494 17.706-11.174c4.44-3.34 8.976-7.227 12.681-11.881 3.705-4.654 6.993-10.44 6.485-17.592-.714-10.04-7.52-17.517-14.78-22-7.259-4.483-15.502-7.194-23.265-9.869-7.764-2.675-15.05-5.313-19.672-8.168-4.623-2.855-6.052-4.703-6.283-7.963-.16-2.252 1.217-6.168 4.886-10.777 3.67-4.61 9.218-9.549 14.946-13.858 11.454-8.617 23.296-14.718 23.296-14.718zM256 187.501c-13 0-21.792 5.914-28.512 15.994-2.782 4.173-5.027 9.1-6.715 14.465 11.32-1.607 23.07-2.455 35.227-2.455 12.157 0 23.906.848 35.227 2.455-1.688-5.365-3.933-10.292-6.715-14.465-6.72-10.08-15.512-15.994-28.512-15.994zm0 46c-119.427 0-193.752 86.039-198.54 174.004h397.08C449.751 319.54 375.426 233.5 256 233.5zM22.363 412.14L9.637 424.866C27.757 442.987 48 443.501 64 443.501h384c16 0 36.242-.514 54.363-18.635l-12.726-12.726C475.757 426.019 464 425.505 448 425.505H64c-16 0-27.758.514-41.637-13.365zm90.451 49.361l20.002 30.004h246.368l20.002-30.004z"
       fill="#e64539"
       fill-opacity="1"
       filter="url(#shadow-1)"
       id="path3"
       style="filter:url(#filter4)" />
  </g>
  <path
     style="display:inline;fill:#ffffff;stroke:none;stroke-width:2.13183"
     d="m 418.01896,392.437 v 25.58196 H 392.437 v 25.58197 h 25.58196 v 25.58196 h 25.58197 v -25.58196 h 25.58196 V 418.01896 H 443.60093 V 392.437 Z"
     id="path40"
     inkscape:label="Plus Sign" />
</svg>
