<?xml version="1.0" encoding="UTF-8" standalone="no"?>
<svg
   style="height: 512px; width: 512px;"
   viewBox="0 0 512 512"
   version="1.1"
   id="svg4"
   sodipodi:docname="furniture-house-excellent.svg"
   inkscape:version="1.3.2 (091e20e, 2023-11-25, custom)"
   xmlns:inkscape="http://www.inkscape.org/namespaces/inkscape"
   xmlns:sodipodi="http://sodipodi.sourceforge.net/DTD/sodipodi-0.dtd"
   xmlns="http://www.w3.org/2000/svg"
   xmlns:svg="http://www.w3.org/2000/svg">
  <defs
     id="defs4">
    <filter
       style="color-interpolation-filters:sRGB;"
       inkscape:label="Drop Shadow"
       id="filter5"
       x="-0.077922078"
       y="-0.077922078"
       width="1.1558442"
       height="1.1558442">
      <feFlood
         result="flood"
         in="SourceGraphic"
         flood-opacity="1.000000"
         flood-color="rgb(58,63,94)"
         id="feFlood4" />
      <feGaussianBlur
         result="blur"
         in="SourceGraphic"
         stdDeviation="15.000000"
         id="feGaussianBlur4" />
      <feOffset
         result="offset"
         in="blur"
         dx="0.000000"
         dy="0.000000"
         id="feOffset4" />
      <feComposite
         result="comp1"
         operator="out"
         in="flood"
         in2="offset"
         id="feComposite4" />
      <feComposite
         result="comp2"
         operator="atop"
         in="comp1"
         in2="SourceGraphic"
         id="feComposite5" />
    </filter>
  </defs>
  <sodipodi:namedview
     id="namedview4"
     pagecolor="#505050"
     bordercolor="#ffffff"
     borderopacity="1"
     inkscape:showpageshadow="0"
     inkscape:pageopacity="0"
     inkscape:pagecheckerboard="1"
     inkscape:deskcolor="#505050"
     inkscape:zoom="1.6035156"
     inkscape:cx="255.37637"
     inkscape:cy="255.37637"
     inkscape:window-width="1920"
     inkscape:window-height="1017"
     inkscape:window-x="-8"
     inkscape:window-y="-8"
     inkscape:window-maximized="1"
     inkscape:current-layer="svg4" />
  <path
     d="M0 0h512v512H0z"
     fill="#000"
     fill-opacity="1"
     id="path1"
     style="fill:#1b1f21;fill-opacity:1" />
  <g
     class=""
     style=""
     transform="translate(0,0)"
     id="g2">
    <path
       d="M133.2 25l-53.69 94H432.5l-53.7-94H133.2zM25 137v46h462v-46H25zm32 64v46h46v-46H57zm352 0v46h46v-46h-46zm-171.4.6s-22 8.8-24 18.8c-4.6 22.8 33.9 60.8 33.9 60.8s-13.3-34.6-14.3-52.8c-.5-9.1 4.4-26.8 4.4-26.8zm54.4 14.8c-6.1 40.2-11.2 83.7-45.9 100.2-30.3 14.4-36.4-78.5-94.1-91.5 44.9 101.1-68.9 139.9 42.2 185.2h19.5c-24-25.9-34.4-90.8-34.4-90.8s30.2 72 62.5 74.2c15 1 33.5-30.2 33.5-30.2s5.9 29.8-.1 46.8H319c27.3-14.8 44.6-35.7 51.2-57.3 6.5-20.9 3-42.5-10.9-59.9-8.6 51.8-21.4 62.8-55.1 74.1 36.6-44.7 20.2-119.2-12.2-150.8zM57 265v46h46v-46H57zm352 0v46h46v-46h-46zM57 329v78h46v-78H57zm352 0v78h46v-78h-46zM25 425v62h462v-62H25z"
       fill="#fff"
       fill-opacity="1"
       id="path2"
       style="fill:#e64539;fill-opacity:1;filter:url(#filter5)" />
  </g>
  <path
     style="fill:#ffffff;stroke:none;stroke-width:2.13183"
     d="m 418.01896,392.437 v 25.58196 H 392.437 v 25.58197 h 25.58196 v 25.58196 h 25.58197 v -25.58196 h 25.58196 V 418.01896 H 443.60093 V 392.437 Z"
     id="path40"
     inkscape:label="Plus Sign" />
</svg>
