<?xml version="1.0" encoding="UTF-8" standalone="no"?>
<svg
   style="height: 512px; width: 512px;"
   viewBox="0 0 512 512"
   version="1.1"
   id="svg2"
   sodipodi:docname="furniture-container.svg"
   inkscape:version="1.3.2 (091e20e, 2023-11-25, custom)"
   xmlns:inkscape="http://www.inkscape.org/namespaces/inkscape"
   xmlns:sodipodi="http://sodipodi.sourceforge.net/DTD/sodipodi-0.dtd"
   xmlns="http://www.w3.org/2000/svg"
   xmlns:svg="http://www.w3.org/2000/svg">
  <defs
     id="defs2">
    <filter
       style="color-interpolation-filters:sRGB;"
       inkscape:label="Drop Shadow"
       id="filter3"
       x="-0.080466303"
       y="-0.083688649"
       width="1.1609326"
       height="1.1673773">
      <feFlood
         result="flood"
         in="SourceGraphic"
         flood-opacity="1.000000"
         flood-color="rgb(58,63,94)"
         id="feFlood2" />
      <feGaussianBlur
         result="blur"
         in="SourceGraphic"
         stdDeviation="15.000000"
         id="feGaussianBlur2" />
      <feOffset
         result="offset"
         in="blur"
         dx="0.000000"
         dy="0.000000"
         id="feOffset2" />
      <feComposite
         result="comp1"
         operator="out"
         in="flood"
         in2="offset"
         id="feComposite2" />
      <feComposite
         result="comp2"
         operator="atop"
         in="comp1"
         in2="SourceGraphic"
         id="feComposite3" />
    </filter>
  </defs>
  <sodipodi:namedview
     id="namedview2"
     pagecolor="#505050"
     bordercolor="#eeeeee"
     borderopacity="1"
     inkscape:showpageshadow="0"
     inkscape:pageopacity="0"
     inkscape:pagecheckerboard="0"
     inkscape:deskcolor="#505050"
     inkscape:zoom="1.1338568"
     inkscape:cx="197.11484"
     inkscape:cy="289.71913"
     inkscape:window-width="1920"
     inkscape:window-height="1017"
     inkscape:window-x="-8"
     inkscape:window-y="-8"
     inkscape:window-maximized="1"
     inkscape:current-layer="svg2" />
  <path
     style="height:512px;width:512px;fill:#1b1f21;stroke:none;stroke-width:2.13183"
     d="M 0.18037645,0.18037645 V 511.81962 H 511.81962 V 0.18037645 Z"
     id="path1-6" />
  <path
     d="m409.296 439.472-1.109 31.597c-18.425.373-33.223-6.696-39.349-31.525zm-306.592 0 1.109 31.597c18.425.373 33.223-6.696 39.349-31.525zm325.607-21.249H83.69l-3.902-25.05h352.426zM256 303.98c76.92 0 99.528 22.227 99.528 22.227l-4.786 45.443H161.258l-4.786-45.443S179.08 303.98 256 303.98zm118.19 67.67s11.777-82.262 15.23-109.121c7.474-58.138 96.66-36.047 89.912 11.16-4.33 30.29-39.08 25.984-39.08 25.984l-9.454 71.977zm-236.38 0s-11.777-82.262-15.23-109.121c-7.474-58.138-96.66-36.047-89.912 11.16 4.33 30.29 39.08 25.984 39.08 25.984l9.454 71.977zM256 40.917c88.106 0 185.768 20.55 174.504 169.052-30.952-4.267-59.122 3.8-62.996 31.9-1.49 10.811-7.78 57.679-7.78 57.679S322.777 282.119 256 282.119s-103.729 17.429-103.729 17.429-6.29-46.868-7.78-57.679c-3.873-28.1-32.043-36.167-62.995-31.9C70.232 61.467 167.894 40.917 256 40.917z"
     fill="#fff"
     fill-opacity="1"
     id="path2"
     style="height:512px;width:512px;fill:#e64539;fill-opacity:1;filter:url(#filter3)" />
  <g
     class=""
     style=""
     transform="translate(0,0)"
     id="g2" />
</svg>
