<?xml version="1.0" encoding="UTF-8" standalone="no"?>
<svg
   style="height: 512px; width: 512px;"
   viewBox="0 0 512 512"
   version="1.1"
   id="svg2"
   sodipodi:docname="gas-pump-car.svg"
   inkscape:version="1.3.2 (091e20e, 2023-11-25, custom)"
   xmlns:inkscape="http://www.inkscape.org/namespaces/inkscape"
   xmlns:sodipodi="http://sodipodi.sourceforge.net/DTD/sodipodi-0.dtd"
   xmlns="http://www.w3.org/2000/svg"
   xmlns:svg="http://www.w3.org/2000/svg">
  <defs
     id="defs2">
    <filter
       style="color-interpolation-filters:sRGB;"
       inkscape:label="Drop Shadow"
       id="filter3"
       x="-0.092377331"
       y="-0.076911737"
       width="1.1847547"
       height="1.1538235">
      <feFlood
         result="flood"
         in="SourceGraphic"
         flood-opacity="1.000000"
         flood-color="rgb(58,63,94)"
         id="feFlood2" />
      <feGaussianBlur
         result="blur"
         in="SourceGraphic"
         stdDeviation="15.000000"
         id="feGaussianBlur2" />
      <feOffset
         result="offset"
         in="blur"
         dx="0.000000"
         dy="0.000000"
         id="feOffset2" />
      <feComposite
         result="comp1"
         operator="out"
         in="flood"
         in2="offset"
         id="feComposite2" />
      <feComposite
         result="comp2"
         operator="atop"
         in="comp1"
         in2="SourceGraphic"
         id="feComposite3" />
    </filter>
    <filter
       style="color-interpolation-filters:sRGB"
       id="a"
       x="-0.024815082"
       y="-0.034133151"
       width="1.0496302"
       height="1.0682663">
      <feFlood
         flood-opacity="1"
         flood-color="#3A3F5E"
         result="flood"
         id="feFlood1" />
      <feComposite
         in="flood"
         in2="SourceGraphic"
         operator="out"
         result="composite1"
         id="feComposite1" />
      <feGaussianBlur
         in="composite1"
         stdDeviation="8"
         result="blur"
         id="feGaussianBlur1" />
      <feOffset
         result="offset"
         id="feOffset1" />
      <feComposite
         in="offset"
         in2="SourceGraphic"
         operator="atop"
         result="composite2"
         id="feComposite2-9" />
    </filter>
  </defs>
  <sodipodi:namedview
     id="namedview2"
     pagecolor="#505050"
     bordercolor="#ffffff"
     borderopacity="1"
     inkscape:showpageshadow="0"
     inkscape:pageopacity="0"
     inkscape:pagecheckerboard="1"
     inkscape:deskcolor="#505050"
     showguides="true"
     inkscape:zoom="1.244321"
     inkscape:cx="360.43753"
     inkscape:cy="271.23226"
     inkscape:window-width="1920"
     inkscape:window-height="1017"
     inkscape:window-x="-8"
     inkscape:window-y="-8"
     inkscape:window-maximized="1"
     inkscape:current-layer="layer1">
    <sodipodi:guide
       position="-20.579781,21.20341"
       orientation="0,-1"
       id="guide3"
       inkscape:locked="false" />
    <sodipodi:guide
       position="490.72947,22.425778"
       orientation="1,0"
       id="guide4"
       inkscape:locked="false" />
  </sodipodi:namedview>
  <path
     d="M0 0h512v512H0z"
     fill="#000"
     fill-opacity="1"
     id="path1"
     style="fill:#1b1f21;fill-opacity:1" />
  <g
     class=""
     style=""
     transform="translate(0,0)"
     id="g2">
    <path
       d="M372.533 21.966L362.7 39.524l24.878 36.62-8.488 44.453 34.125 50.234 19.025-12.923-2.898 61.932.1.003-9.272 173.553c-1.28 17.17-8.718 21.912-14.123 21.93-5.393.02-13.577-5.053-15.95-22.354l-15.988-223.815-.03-.234c-1.673-13.444-7.012-24.765-17.11-31.393-8.642-5.673-19.398-7.853-32.822-8.365v-7.13c0-23.016-3.88-36.357-11.302-43.844-7.42-7.487-20.523-11.384-43.608-11.156H141.148c-23 0-36.182 3.91-43.636 11.363-7.455 7.455-11.364 20.637-11.364 43.637v320h-25v48h288v-48h-25V147.208c11.228.57 18.628 2.538 22.944 5.37 5.138 3.374 7.793 8.046 9.105 18.466l15.994 223.912.04.28c3.114 23.126 17.402 38.15 33.883 38.09 16.48-.06 30.304-15.588 32.01-38.628l.008-.092 9.407-176.086-.113-.006 3.428-73.25-1.334-9.974-76.985-113.324zm29.35 75.236l27.69 40.756-11.583 7.87-19.82-29.18 3.713-19.446zm-292.735 8.832h192v80h-192v-80zm16 103h160v18h-160v-18zm0 32h160v18h-160v-18z"
       fill="#fff"
       fill-opacity="1"
       id="path2"
       style="fill:#e64539;fill-opacity:1;filter:url(#filter3)" />
  </g>
  <g
     inkscape:groupmode="layer"
     id="layer1"
     inkscape:label="Layer 1">
    <g
       transform="matrix(0.33086777,0,0,0.33086777,209.31381,185.66855)"
       style="fill:#ffffff;fill-opacity:1"
       id="g5">
      <path
         d="m 692.689,731.25 a 93.77,93.77 0 0 0 -66.293,27.457 93.77,93.77 0 0 0 -27.457,66.293 93.77,93.77 0 0 0 27.457,66.293 93.77,93.77 0 0 0 66.293,27.457 93.77,93.77 0 0 0 66.293,-27.457 93.77,93.77 0 0 0 27.457,-66.293 93.868,93.868 0 0 0 -93.75,-93.75 z m -448.939,0 A 93.77,93.77 0 0 0 177.457,758.707 93.77,93.77 0 0 0 150,825 93.77,93.77 0 0 0 177.457,891.293 93.77,93.77 0 0 0 243.75,918.75 93.77,93.77 0 0 0 310.043,891.293 93.77,93.77 0 0 0 337.5,825 93.868,93.868 0 0 0 243.75,731.25 Z m -150,-37.5 A 18.752,18.752 0 0 0 112.5,675 V 637.5 A 18.752,18.752 0 0 0 93.75,618.75 H 75 v 75 z M 467.459,431.252 H 245.95 l -55.263,112.5 h 287.76 l 56.25,-56.25 z M 531.47,543.75 h 59.477 l -29.738,-29.738 z"
         style="fill:#ffffff;fill-opacity:1"
         id="path3" />
      <path
         d="m 748.939,618.75 -0.515,-41.053 -231.137,-220.43 c 0,0 -25.54,-0.89 -68.575,-1.02 h -231.58 l -128.57,225 h 5.195 a 56.234,56.234 0 0 1 39.773,16.477 56.236,56.236 0 0 1 16.477,39.773 v 3.75 l -1.078,44.305 c 0,0 -9.304,24.43 -19.375,32.77 A 56.24,56.24 0 0 1 93.749,731.248 H 75 v 75 h 39 a 131.075,131.075 0 0 1 69.68,-97.87 131.071,131.071 0 0 1 120.14,0 131.081,131.081 0 0 1 69.68,97.87 h 189.44 a 131.075,131.075 0 0 1 69.68,-97.87 131.071,131.071 0 0 1 120.14,0 131.081,131.081 0 0 1 69.68,97.87 h 26.246 v -93.75 h -5.997 a 93.868,93.868 0 0 1 -93.75,-93.75 z m -317.689,37.5 h -37.5 v -37.5 h 37.5 z m 112.5,0 h -75 v -37.5 h 75 z m 139.961,-75 -530.916,-8.887 81.09,-175.812 246.327,-2.8 z"
         style="fill:#ffffff;fill-opacity:1"
         id="path4" />
      <path
         d="m 773.723,594.709 v 28.293 a 56.234,56.234 0 0 0 16.477,39.773 56.236,56.236 0 0 0 39.773,16.477 h 18.75 z"
         style="fill:#ffffff;fill-opacity:1"
         id="path5" />
    </g>
  </g>
</svg>
