<?xml version="1.0" encoding="UTF-8" standalone="no"?>
<svg
   style="height: 512px; width: 512px;"
   viewBox="0 0 512 512"
   version="1.1"
   id="svg3"
   sodipodi:docname="generic-prepack-plus.svg"
   inkscape:version="1.3.2 (091e20e, 2023-11-25, custom)"
   xmlns:inkscape="http://www.inkscape.org/namespaces/inkscape"
   xmlns:sodipodi="http://sodipodi.sourceforge.net/DTD/sodipodi-0.dtd"
   xmlns="http://www.w3.org/2000/svg"
   xmlns:svg="http://www.w3.org/2000/svg">
  <sodipodi:namedview
     id="namedview3"
     pagecolor="#505050"
     bordercolor="#ffffff"
     borderopacity="1"
     inkscape:showpageshadow="0"
     inkscape:pageopacity="0"
     inkscape:pagecheckerboard="1"
     inkscape:deskcolor="#505050"
     inkscape:zoom="1.6035156"
     inkscape:cx="255.37637"
     inkscape:cy="255.37637"
     inkscape:window-width="1920"
     inkscape:window-height="1017"
     inkscape:window-x="-8"
     inkscape:window-y="-8"
     inkscape:window-maximized="1"
     inkscape:current-layer="svg3" />
  <defs
     id="defs2">
    <filter
       id="shadow-1"
       height="1.1585903"
       width="1.2307692"
       x="-0.11538462"
       y="-0.079295154">
      <feFlood
         flood-color="rgba(58, 63, 94, 1)"
         result="flood"
         id="feFlood1" />
      <feComposite
         in="flood"
         in2="SourceGraphic"
         operator="atop"
         result="composite"
         id="feComposite1" />
      <feGaussianBlur
         in="composite"
         stdDeviation="15"
         result="blur"
         id="feGaussianBlur1" />
      <feOffset
         dx="0"
         dy="0"
         result="offset"
         id="feOffset1" />
      <feComposite
         in="SourceGraphic"
         in2="offset"
         operator="over"
         id="feComposite2" />
    </filter>
    <filter
       style="color-interpolation-filters:sRGB;"
       inkscape:label="Drop Shadow"
       id="filter4"
       x="-0.11538462"
       y="-0.079295154"
       width="1.2307692"
       height="1.1585903">
      <feFlood
         result="flood"
         in="SourceGraphic"
         flood-opacity="1.000000"
         flood-color="rgb(58,63,94)"
         id="feFlood3" />
      <feGaussianBlur
         result="blur"
         in="SourceGraphic"
         stdDeviation="15.000000"
         id="feGaussianBlur3" />
      <feOffset
         result="offset"
         in="blur"
         dx="0.000000"
         dy="0.000000"
         id="feOffset3" />
      <feComposite
         result="comp1"
         operator="out"
         in="flood"
         in2="offset"
         id="feComposite3" />
      <feComposite
         result="fbSourceGraphic"
         operator="atop"
         in="comp1"
         in2="SourceGraphic"
         id="feComposite4" />
      <feColorMatrix
         result="fbSourceGraphicAlpha"
         in="fbSourceGraphic"
         values="0 0 0 -1 0 0 0 0 -1 0 0 0 0 -1 0 0 0 0 1 0"
         id="feColorMatrix4" />
      <feFlood
         id="feFlood4"
         result="flood"
         in="fbSourceGraphic"
         flood-opacity="1.000000"
         flood-color="rgb(58,63,94)" />
      <feGaussianBlur
         id="feGaussianBlur4"
         result="blur"
         in="fbSourceGraphic"
         stdDeviation="0.000000" />
      <feOffset
         id="feOffset4"
         result="offset"
         in="blur"
         dx="0.000000"
         dy="0.000000" />
      <feComposite
         id="feComposite5"
         result="comp1"
         operator="in"
         in="flood"
         in2="offset" />
      <feComposite
         id="feComposite6"
         result="comp2"
         operator="over"
         in="fbSourceGraphic"
         in2="comp1" />
    </filter>
  </defs>
  <path
     d="M0 0h512v512H0z"
     fill="#1b1f21"
     fill-opacity="1"
     id="path2" />
  <g
     class=""
     style=""
     transform="translate(0,0)"
     id="g3">
    <path
       d="M100 29v454h312V29zm18 18h210v338H118zm226 16h50v66h-50zm18 18v30h14V81zm-203 7v23h-16v18h160v-18h-64V80l-16 6-6 25h-26V88zm194 55h32v18h-32zm-90 10.8c-5.4 0-10.1 3-12.8 6.7-2.9 4.9-4.5 9.6-4.1 14.5H143v18h160v-18h-23.1c.3-5.1-1.6-11-4.1-14.5-2.7-3.7-7.4-6.7-12.8-6.7zm90 21.2h32v18h-32zm-194 41v23h-16v18h160v-18h-24v-23h-24v23h-32v-31h-16v31h-32v-15zm8 61.4c-6.1 0-10.8 3.9-13.3 8-3.2 6.1-4 11.5-3.5 17.6H143v18h160v-18h-64v-23h-32v23h-23.2c.6-6-.7-13-3.5-17.6-2.5-4.1-7.2-8-13.3-8zM353 351h32v18h-32zm-235 52h210v62H118zm18 18v26h174v-26z"
       fill="#e64539"
       fill-opacity="1"
       filter="url(#shadow-1)"
       id="path3"
       style="filter:url(#filter4)" />
  </g>
  <path
     style="display:inline;fill:#ffffff;stroke:none;stroke-width:2.13183"
     d="m 418.01896,392.437 v 25.58196 H 392.437 v 25.58197 h 25.58196 v 25.58196 h 25.58197 v -25.58196 h 25.58196 V 418.01896 H 443.60093 V 392.437 Z"
     id="path40"
     inkscape:label="Plus Sign" />
</svg>
