<?xml version="1.0" encoding="UTF-8" standalone="no"?>
<svg
   style="height: 512px; width: 512px;"
   viewBox="0 0 512 512"
   version="1.1"
   id="svg3"
   sodipodi:docname="heartthrob-item.svg"
   inkscape:version="1.3.2 (091e20e, 2023-11-25, custom)"
   xmlns:inkscape="http://www.inkscape.org/namespaces/inkscape"
   xmlns:sodipodi="http://sodipodi.sourceforge.net/DTD/sodipodi-0.dtd"
   xmlns="http://www.w3.org/2000/svg"
   xmlns:svg="http://www.w3.org/2000/svg">
  <sodipodi:namedview
     id="namedview3"
     pagecolor="#505050"
     bordercolor="#ffffff"
     borderopacity="1"
     inkscape:showpageshadow="0"
     inkscape:pageopacity="0"
     inkscape:pagecheckerboard="1"
     inkscape:deskcolor="#505050"
     inkscape:zoom="1.6035156"
     inkscape:cx="255.68819"
     inkscape:cy="256"
     inkscape:window-width="1920"
     inkscape:window-height="1017"
     inkscape:window-x="-8"
     inkscape:window-y="-8"
     inkscape:window-maximized="1"
     inkscape:current-layer="svg3" />
  <defs
     id="defs2">
    <filter
       id="shadow-1"
       height="1.1504203"
       width="1.1518444"
       x="-0.075922206"
       y="-0.07521013">
      <feFlood
         flood-color="rgba(58, 63, 94, 1)"
         result="flood"
         id="feFlood1" />
      <feComposite
         in="flood"
         in2="SourceGraphic"
         operator="atop"
         result="composite"
         id="feComposite1" />
      <feGaussianBlur
         in="composite"
         stdDeviation="15"
         result="blur"
         id="feGaussianBlur1" />
      <feOffset
         dx="0"
         dy="0"
         result="offset"
         id="feOffset1" />
      <feComposite
         in="SourceGraphic"
         in2="offset"
         operator="over"
         id="feComposite2" />
    </filter>
    <filter
       style="color-interpolation-filters:sRGB;"
       inkscape:label="Drop Shadow"
       id="filter4"
       x="-0.075922206"
       y="-0.07521013"
       width="1.1518444"
       height="1.1504203">
      <feFlood
         result="flood"
         in="SourceGraphic"
         flood-opacity="1.000000"
         flood-color="rgb(58,63,94)"
         id="feFlood3" />
      <feGaussianBlur
         result="blur"
         in="SourceGraphic"
         stdDeviation="15.000000"
         id="feGaussianBlur3" />
      <feOffset
         result="offset"
         in="blur"
         dx="0.000000"
         dy="0.000000"
         id="feOffset3" />
      <feComposite
         result="comp1"
         operator="out"
         in="flood"
         in2="offset"
         id="feComposite3" />
      <feComposite
         result="comp2"
         operator="atop"
         in="comp1"
         in2="SourceGraphic"
         id="feComposite4" />
    </filter>
  </defs>
  <path
     d="M0 0h512v512H0z"
     fill="#1b1f21"
     fill-opacity="1"
     id="path2" />
  <g
     class=""
     style=""
     transform="translate(0,0)"
     id="g3">
    <path
       d="M154.107 17.063c-34.673-.275-70.37 13.897-96.412 40.218L91.742 74.76l43.76-18.572v.002c-9.262 14.174-11.514 26.673-5.555 38.18l125.397 64.366 44.85-19.035c-9.644 14.762-11.686 27.707-4.77 39.607l33.816 17.357 104.926-38.783c8.248-10.792 7.925-23.806.443-39.605v-.002l40.824 24.356 15.343-5.673C472.074 49.484 371.514-9.895 268.32 132.412c-8.577-79.372-60.15-114.92-114.213-115.35zM45.21 71.876c-8.694 11.797-15.66 25.36-20.274 40.56h-.002c-9 29.648-6.34 73.662 7.503 123.13l39.32 7.27 38.53-31.88v.002c-5.238 17.618-3.123 30.985 8.067 40.497l41.75 7.723 65.986-24.39c7.062-10.477 6.42-22.99-.7-38.024v-.002l39.626 23.638 40.433-14.945-104.257-53.514c-14.988-1.045-25.89 7.22-34.306 23.854l-5.434-44.252L45.21 71.877zm448.274 84.004l-76.423 28.25-11.72 44.284c-6.167-17.892-16.05-27.584-31.434-28.334l-22.097 8.168L454.6 261.012c1.278-1.31 2.537-2.624 3.765-3.946 27.47-29.563 37.69-66.53 35.117-101.185zm-165.468 61.16L196.03 265.827l104.134 19.262 37.877-31.34v.002c-5.085 17.108-3.24 30.207 7.114 39.66l57.744 10.68c13.354-9.636 25.997-19.393 37.34-29.444l-17.697-9.084c-16.508-2.382-28.276 5.84-37.23 23.536l-5.59-45.516-51.704-26.54zM38.602 255.71c4.598 13.867 10.014 28.046 16.265 42.368l70.967-26.23-87.232-16.137zm123.158 22.782l-23.75 8.778-11.494 43.44c-5.933-17.213-15.304-26.836-29.704-28.212l-34.134 12.617c9.832 20.524 21.326 41.177 34.457 61.444H219.69c13.318-7.02 18.227-19.807 16.59-38.4h.003l30.946 38.4h30.502c26.816-19.846 56.13-38.564 83.723-57.43l-141.512-26.177c-16.92 2.232-26.034 13.515-29.603 33.287l-18.432-42.172-30.148-5.576zm-51.963 116.756c25.755 36.38 56.895 70.928 93.293 100.47 7.933-38.946 35.506-71.23 70.707-100.47H175.84l-23.64 33.588c.35-15.51-3.554-26.72-12.776-33.588h-29.627z"
       fill="#e64539"
       fill-opacity="1"
       filter="url(#shadow-1)"
       id="path3"
       style="filter:url(#filter4)" />
  </g>
</svg>
