<?xml version="1.0" encoding="UTF-8" standalone="no"?>
<svg
   viewBox="0 0 512 512"
   version="1.1"
   id="svg3"
   sodipodi:docname="agent_double_agent.svg"
   inkscape:version="1.3.2 (091e20e, 2023-11-25, custom)"
   xml:space="preserve"
   inkscape:export-filename="loan_auto.svg"
   inkscape:export-xdpi="96"
   inkscape:export-ydpi="96"
   width="512"
   height="512"
   xmlns:inkscape="http://www.inkscape.org/namespaces/inkscape"
   xmlns:sodipodi="http://sodipodi.sourceforge.net/DTD/sodipodi-0.dtd"
   xmlns="http://www.w3.org/2000/svg"
   xmlns:svg="http://www.w3.org/2000/svg"><sodipodi:namedview
     id="namedview3"
     pagecolor="#505050"
     bordercolor="#eeeeee"
     borderopacity="1"
     inkscape:showpageshadow="0"
     inkscape:pageopacity="0"
     inkscape:pagecheckerboard="0"
     inkscape:deskcolor="#505050"
     inkscape:zoom="1.3007812"
     inkscape:cx="256"
     inkscape:cy="255.61562"
     inkscape:window-width="1920"
     inkscape:window-height="1017"
     inkscape:window-x="-8"
     inkscape:window-y="-8"
     inkscape:window-maximized="1"
     inkscape:current-layer="svg3" /><defs
     id="defs2"><filter
       style="color-interpolation-filters:sRGB"
       inkscape:label="Drop Shadow"
       id="filter25"
       x="-0.075635248"
       y="-0.081988661"
       width="1.1512705"
       height="1.1639773"><feFlood
         result="flood"
         in="SourceGraphic"
         flood-opacity="1.000000"
         flood-color="rgb(58,63,94)"
         id="feFlood23" /><feGaussianBlur
         result="blur"
         in="SourceGraphic"
         stdDeviation="15.000000"
         id="feGaussianBlur23" /><feOffset
         result="offset"
         in="blur"
         dx="0.000000"
         dy="0.000000"
         id="feOffset23" /><feComposite
         result="comp1"
         operator="out"
         in="flood"
         in2="offset"
         id="feComposite24" /><feComposite
         result="comp2"
         operator="atop"
         in="comp1"
         in2="SourceGraphic"
         id="feComposite25" /></filter></defs><path
     d="M 0,0 H 512 V 512 H 0 Z"
     fill="#1b1f21"
     fill-opacity="1"
     id="path2" /><path
     style="fill:#e64539;fill-opacity:1;filter:url(#filter25)"
     d="m 17.518811,467.05368 c 0,-13.45278 0.365015,-24.4596 0.811145,-24.4596 0.446129,0 2.129966,1.40797 3.741859,3.12882 5.739514,6.1275 24.395821,16.82776 29.339818,16.82776 0.489276,0 1.60889,-2.58188 2.48803,-5.73752 0.87914,-3.15563 2.030831,-6.76296 2.559314,-8.01627 0.767949,-1.82123 0.611486,-2.38934 -0.77926,-2.8295 -0.957076,-0.30291 -5.05555,-2.17584 -9.10772,-4.16207 -8.526265,-4.17926 -18.480475,-13.31763 -24.895335,-22.85492 l -4.157851,-6.18168 v -13.71247 -13.71246 l 7.050867,7.65202 c 12.992356,14.10009 32.29358,26.25391 51.833929,32.63939 5.031156,1.64411 9.493697,2.98929 9.916757,2.98929 0.819929,0 5.59918,-15.80071 4.933132,-16.30945 C 91.036667,412.1494 86.841224,410.73 81.930289,409.16081 64.737758,403.66728 48.745889,394.07186 38.43935,383.06542 31.080546,375.20689 27.694884,370.32178 22.473698,360.02888 l -4.93768,-9.73401 -0.0086,-75.05741 -0.0086,-75.0574 5.517632,-2.52382 c 3.034698,-1.3881 5.738556,-2.52382 6.008574,-2.52382 0.270018,0 4.342505,-1.79609 9.049971,-3.99132 4.707465,-2.19522 8.72771,-3.99131 8.933877,-3.99131 0.534653,0 12.165289,-5.35229 24.158532,-11.11748 l 10.263012,-4.93347 2.945002,2.09703 c 1.619751,1.15336 6.801343,3.90417 11.514648,6.1129 6.911194,3.23869 8.432594,4.33773 7.861454,5.67898 -2.82973,6.64533 -3.57291,10.09437 -3.08499,14.3172 1.57678,13.64656 13.42708,22.62624 28.43741,21.54871 14.17416,-1.0175 24.09966,-10.72197 24.09966,-23.56297 0,-4.87623 0.011,-4.89246 3.74186,-5.50913 2.05802,-0.34017 6.69793,-0.62344 10.3109,-0.62948 3.61298,-0.006 6.81963,-0.26156 7.1259,-0.56784 0.30628,-0.30627 -0.61222,-4.12297 -2.04111,-8.48155 l -2.59798,-7.92468 h -11.5389 c -19.8437,0 -38.75612,-3.40417 -52.37582,-9.42744 -6.907986,-3.05504 -7.784345,-1.99797 9.95655,-12.00964 28.51117,-16.08962 49.90844,-30.33506 72.13553,-48.02492 16.08793,-12.803885 24.50132,-20.438955 40.71569,-36.949093 l 15.06394,-15.338733 4.49663,5.744844 c 2.47314,3.159664 6.97901,9.786052 10.01303,14.725307 16.96893,27.624625 25.87852,55.690985 29.04175,91.485205 l 0.50124,5.67189 -37.09027,18.47048 c -80.90583,40.29005 -125.4745,69.61267 -150.36037,98.92512 l -7.035622,8.28709 4.887572,14.80551 c 19.53299,59.16964 43.70859,88.88205 92.43427,113.60399 13.59787,6.89915 19.70506,9.57209 63.89488,27.96489 11.52493,4.79693 21.40344,9.14211 21.95224,9.65596 0.64514,0.60403 -2.6016,4.41663 -9.18568,10.78658 -8.33412,8.06309 -11.77715,10.63156 -18.95875,14.14304 l -8.77525,4.2907 -111.0085,0.26225 -111.008512,0.26225 z M 239.75356,120.62897 c 3.69035,-6.97503 6.85902,-17.53823 7.76532,-25.886799 l 0.6617,-6.095384 -3.19982,-0.639964 c -1.7599,-0.35198 -5.77195,-0.639963 -8.91565,-0.639963 h -5.71583 l -0.64474,7.627237 c -0.80736,9.551063 -5.48783,19.776883 -12.10185,26.439903 l -4.59712,4.63117 5.73414,6.75907 5.73413,6.75908 6.09976,-6.56627 c 3.35486,-3.61145 7.48584,-9.18608 9.17996,-12.38808 z m 40.19435,323.12826 -12.47287,-5.63474 4.49023,-0.87464 c 7.48656,-1.45829 19.04549,-5.25095 28.73573,-9.42864 6.48623,-2.79637 9.18178,-3.55885 9.18178,-2.59722 0,2.70713 -5.10323,14.83871 -7.64235,18.16768 -2.06561,2.70816 -8.10875,6.57028 -9.53815,6.09576 -0.15483,-0.0514 -5.8943,-2.62909 -12.75437,-5.7282 z M 241.727,427.7015 c -7.57575,-3.1916 -13.77761,-6.16466 -13.78191,-6.60679 -0.004,-0.44214 4.84697,-2.49281 10.7806,-4.55706 5.93363,-2.06425 16.12753,-6.48726 22.6531,-9.82891 6.52557,-3.34166 11.98426,-5.95173 12.13042,-5.80016 0.14617,0.15157 -3.06008,6.99556 -7.12498,15.20887 -4.06491,8.21331 -7.39074,15.50994 -7.39074,16.21473 0,2.18214 -3.0137,1.3739 -17.26649,-4.63068 z m 125.08598,2.79677 c -14.76093,-1.71011 -25.4735,-5.73153 -45.30471,-17.00703 -9.56414,-5.43792 -28.93937,-18.11432 -38.95743,-25.4882 -12.37828,-9.11116 -26.59993,-20.59166 -26.33183,-21.25652 0.36328,-0.90095 15.32598,-13.95708 15.9952,-13.95708 0.28035,0 10.3298,6.14894 22.3321,13.66432 12.0023,7.51537 24.96174,14.98697 28.79875,16.60354 15.47326,6.51906 30.86408,9.66618 46.90639,9.59146 9.74812,-0.0454 24.67782,-1.84019 25.95821,-3.12058 0.2599,-0.2599 -5.53483,-0.55423 -12.87717,-0.65407 -26.0684,-0.35446 -53.12845,-5.61448 -61.21284,-11.89876 l -2.23166,-1.73475 5.69953,-8.61234 5.69954,-8.61233 18.98328,-0.66211 c 28.49249,-0.99378 37.13838,-2.11569 51.41274,-6.67146 16.40402,-5.23546 21.72284,-5.68019 34.92402,-2.92016 20.05211,4.1924 40.14106,7.00289 50.14092,7.01485 l 6.73535,0.008 0.002,27.19085 0.002,27.19085 -13.4829,-0.30359 c -27.23454,-0.61323 -53.7985,5.3461 -77.42759,17.37004 -10.57075,5.37904 -10.59121,5.38457 -19.45767,5.25525 -4.88169,-0.0712 -12.2192,-0.5168 -16.30559,-0.99023 z m -164.6776,-20.35709 c -8.40547,-4.15928 -14.87906,-7.91756 -14.38576,-8.35172 0.4933,-0.43416 4.45242,-2.02438 8.79805,-3.53381 12.50714,-4.34431 25.19645,-10.96232 34.42297,-17.95305 1.1747,-0.89005 1.31768,-0.4772 0.84747,2.44711 -0.75531,4.69733 -12.20992,34.22376 -13.43539,34.63225 -0.53057,0.17686 -7.84187,-3.08149 -16.24734,-7.24078 z m -28.7995,-16.3757 c -4.57921,-3.16401 -11.88216,-9.2752 -16.22877,-13.58043 l -7.90292,-7.8277 9.24396,-3.14637 c 7.69197,-2.61812 13.45671,-4.90774 25.38574,-10.08265 2.92896,-1.27061 2.31559,21.43672 -0.95179,35.23589 l -1.22038,5.15401 z m 121.08211,-35.07384 c -9.87766,-5.9851 -18.05693,-11.22088 -18.17617,-11.63505 -0.11924,-0.41417 1.76523,-1.95615 4.18772,-3.42662 l 4.40453,-2.67357 10.27924,5.45335 c 5.65358,2.99934 13.53466,7.10731 17.5135,9.12882 3.97885,2.0215 7.23305,4.13828 7.23157,4.70394 -0.001,0.56567 -1.68532,2.89658 -3.74186,5.17981 l -3.73916,4.15133 z m 15.23395,-10.71611 c -6.98704,-3.66362 -12.70902,-6.88564 -12.71551,-7.16004 -0.006,-0.2744 1.56962,-1.57593 3.50245,-2.89229 l 3.51424,-2.39337 15.65208,7.38252 c 14.31063,6.74981 15.34346,7.40852 12.05114,7.6859 -1.98142,0.16694 -4.39124,1.17667 -5.35817,2.24512 -0.96649,1.06795 -2.24894,1.90833 -2.84988,1.86751 -0.60095,-0.0408 -6.80931,-3.07173 -13.79635,-6.73535 z m 25.42603,-3.74512 c -6.17407,-2.96448 -11.22558,-5.78623 -11.22558,-6.27057 0,-0.48433 1.7966,-1.16789 3.99244,-1.51902 3.55076,-0.56779 5.5653,0.12683 18.21038,6.27905 l 14.21795,6.91747 -6.9848,-0.008 c -6.39193,-0.008 -7.93765,-0.46599 -18.21039,-5.39844 z m 22.5436,-6.32054 c -7.62408,-2.48328 -11.70694,-7.39074 -10.4188,-12.52306 1.54742,-6.16545 10.7425,-13.21454 21.67657,-16.61761 8.17475,-2.54427 21.77853,-2.53816 27.3941,0.0123 4.27777,1.94287 8.40312,6.303 8.40312,8.88135 0,3.13326 -5.10388,10.06879 -9.60246,13.04852 -7.85865,5.20536 -14.80566,7.3208 -25.32156,7.71069 -5.21366,0.19331 -10.6726,-0.0372 -12.13097,-0.5122 z M 141.49169,302.56501 c -2.33649,-1.75136 -7.72477,-4.97478 -11.97395,-7.16317 -4.24917,-2.1884 -7.95028,-4.1298 -8.22469,-4.31425 -0.2744,-0.18444 0.62365,-1.23672 1.99566,-2.33839 1.37202,-1.10167 4.29067,-3.65126 6.48589,-5.66575 6.42209,-5.89336 17.50808,-14.39821 18.05501,-13.85128 0.2769,0.2769 0.88113,4.26054 1.34272,8.85254 1.18658,11.80419 -0.16266,26.81468 -2.46406,27.41287 -0.53262,0.13844 -2.88008,-1.18122 -5.21658,-2.93257 z m 195.33248,-12.7662 c -18.17996,-2.93591 -37.91154,-18.21002 -33.2274,-25.72116 1.739,-2.78852 8.19754,-4.31693 15.51026,-3.67051 18.57697,1.64216 39.16973,16.09843 36.21105,25.42043 -1.13404,3.57304 -9.64405,5.40041 -18.49391,3.97124 z M 182.09515,277.38229 c -3.29646,-3.51072 -15.27588,-9.0943 -21.38784,-9.96883 -9.566,-1.36874 -9.62916,-1.25941 7.07556,-12.2483 8.57579,-5.64143 15.79636,-10.05313 16.0457,-9.80378 1.50077,1.50076 3.35541,17.94661 2.7848,24.69393 -0.81806,9.67335 -1.41147,10.63567 -4.51822,7.32698 z m 42.97215,-24.5494 c -7.1134,-4.66651 -17.35767,-9.41976 -24.42405,-11.33254 -3.57976,-0.969 -6.50866,-2.0646 -6.50866,-2.43467 0,-0.37007 1.90835,-1.65928 4.24077,-2.86491 2.33243,-1.20563 6.26138,-3.36736 8.73101,-4.80385 2.46963,-1.43649 7.40888,-4.17379 10.97612,-6.08289 3.56724,-1.9091 6.91246,-3.86817 7.43383,-4.35349 1.82985,-1.70332 2.69595,-0.82526 5.77319,5.85296 3.6595,7.94181 4.02362,14.02644 1.32861,22.2017 -0.99503,3.01843 -2.09073,5.775 -2.43487,6.12571 -0.34415,0.35071 -2.64633,-0.6879 -5.11595,-2.30802 z m 136.70261,-9.07888 c -4.39224,-2.18409 -6.48589,-8.05513 -6.48589,-18.1878 0,-7.99664 0.3403,-9.691 3.10635,-15.46635 10.0264,-20.93455 24.74671,-18.84931 24.65388,3.4924 -0.0534,12.8631 -6.09209,25.25394 -14.36407,29.47399 -4.50908,2.30036 -3.80769,2.23055 -6.91027,0.68776 z m -95.2284,-17.69246 c -6.40415,-4.41324 -17.30773,-8.93295 -25.38825,-10.52385 l -3.3717,-0.66382 5.36736,-2.99766 c 4.15475,-2.32041 28.49083,-13.60542 37.70744,-17.48551 2.13925,-0.9006 0.80427,13.95091 -2.34125,26.04614 -1.40719,5.41094 -2.55852,10.01342 -2.55852,10.22775 0,1.22341 -3.30477,-0.39229 -9.41508,-4.60305 z m -143.2528,-22.65656 c -5.36177,-1.97149 -6.75881,-8.06486 -2.49028,-10.86171 6.29043,-4.12165 16.57567,0.012 15.0596,6.05249 -0.97227,3.87382 -7.90215,6.52531 -12.56932,4.80922 z"
     id="path23" /></svg>
