<?xml version="1.0" encoding="UTF-8" standalone="no"?>
<svg
   viewBox="0 0 512 512"
   version="1.1"
   id="svg3"
   sodipodi:docname="agent_double_agent.svg"
   inkscape:version="1.3.2 (091e20e, 2023-11-25, custom)"
   xml:space="preserve"
   inkscape:export-filename="Large_Air_Drone.svg"
   inkscape:export-xdpi="96"
   inkscape:export-ydpi="96"
   width="512"
   height="512"
   xmlns:inkscape="http://www.inkscape.org/namespaces/inkscape"
   xmlns:sodipodi="http://sodipodi.sourceforge.net/DTD/sodipodi-0.dtd"
   xmlns="http://www.w3.org/2000/svg"
   xmlns:svg="http://www.w3.org/2000/svg"><sodipodi:namedview
     id="namedview3"
     pagecolor="#505050"
     bordercolor="#eeeeee"
     borderopacity="1"
     inkscape:showpageshadow="0"
     inkscape:pageopacity="0"
     inkscape:pagecheckerboard="0"
     inkscape:deskcolor="#505050"
     inkscape:zoom="1.3007812"
     inkscape:cx="256"
     inkscape:cy="255.61562"
     inkscape:window-width="1920"
     inkscape:window-height="1017"
     inkscape:window-x="-8"
     inkscape:window-y="-8"
     inkscape:window-maximized="1"
     inkscape:current-layer="svg3" /><defs
     id="defs2"><filter
       style="color-interpolation-filters:sRGB"
       inkscape:label="Drop Shadow"
       id="filter23"
       x="-0.075635248"
       y="-0.081988661"
       width="1.1512705"
       height="1.1639773"><feFlood
         result="flood"
         in="SourceGraphic"
         flood-opacity="1.000000"
         flood-color="rgb(58,63,94)"
         id="feFlood21" /><feGaussianBlur
         result="blur"
         in="SourceGraphic"
         stdDeviation="15.000000"
         id="feGaussianBlur21" /><feOffset
         result="offset"
         in="blur"
         dx="0.000000"
         dy="0.000000"
         id="feOffset21" /><feComposite
         result="comp1"
         operator="out"
         in="flood"
         in2="offset"
         id="feComposite22" /><feComposite
         result="comp2"
         operator="atop"
         in="comp1"
         in2="SourceGraphic"
         id="feComposite23" /></filter></defs><path
     d="M 0,0 H 512 V 512 H 0 Z"
     fill="#1b1f21"
     fill-opacity="1"
     id="path2" /><path
     style="fill:#e64539;fill-opacity:1;filter:url(#filter23)"
     d="m 17.518811,467.05368 c 0,-13.45278 0.365015,-24.4596 0.811145,-24.4596 0.446129,0 2.129966,1.40797 3.741859,3.12882 5.739514,6.1275 24.395821,16.82776 29.339818,16.82776 0.489276,0 1.60889,-2.58188 2.48803,-5.73752 0.87914,-3.15563 2.030831,-6.76296 2.559314,-8.01627 0.767949,-1.82123 0.611486,-2.38934 -0.77926,-2.8295 -0.957076,-0.30291 -5.05555,-2.17584 -9.10772,-4.16207 -8.526265,-4.17926 -18.480475,-13.31763 -24.895335,-22.85492 l -4.157851,-6.18168 v -13.71247 -13.71246 l 7.050867,7.65202 c 12.992356,14.10009 32.29358,26.25391 51.833929,32.63939 5.031156,1.64411 9.493697,2.98929 9.916757,2.98929 0.819929,0 5.59918,-15.80071 4.933132,-16.30945 C 91.036667,412.1494 86.841224,410.73 81.930289,409.16081 53.892657,400.20195 34.890732,384.50782 22.495756,360.07246 l -4.959738,-9.77759 -0.0086,-75.05741 -0.0086,-75.0574 5.517632,-2.52382 c 3.034698,-1.3881 5.738556,-2.52382 6.008574,-2.52382 0.270018,0 4.342505,-1.79609 9.049971,-3.99132 4.707465,-2.19522 8.72771,-3.99131 8.933877,-3.99131 0.534653,0 12.165289,-5.35229 24.158532,-11.11748 l 10.263012,-4.93347 2.945002,2.09703 c 1.619751,1.15336 6.801343,3.90417 11.514648,6.1129 6.911194,3.23869 8.432594,4.33773 7.861454,5.67898 -2.82973,6.64533 -3.57291,10.09437 -3.08499,14.3172 1.57678,13.64656 13.42708,22.62624 28.43741,21.54871 14.17416,-1.0175 24.09966,-10.72197 24.09966,-23.56297 0,-4.87623 0.011,-4.89246 3.74186,-5.50913 2.05802,-0.34017 6.69793,-0.62344 10.3109,-0.62948 3.61298,-0.006 6.81963,-0.26156 7.1259,-0.56784 0.30628,-0.30627 -0.61222,-4.12297 -2.04111,-8.48155 l -2.59798,-7.92468 h -11.5389 c -19.8437,0 -38.75612,-3.40417 -52.37582,-9.42744 -6.907986,-3.05504 -7.784345,-1.99797 9.95655,-12.00964 28.51117,-16.08962 49.90844,-30.33506 72.13553,-48.02492 16.08793,-12.803885 24.50132,-20.438955 40.71569,-36.949093 l 15.06394,-15.338733 4.49663,5.744844 c 2.47314,3.159664 6.97901,9.786052 10.01303,14.725307 16.96893,27.624625 25.87852,55.690985 29.04175,91.485205 l 0.50124,5.67189 -37.09027,18.47048 c -80.35857,40.01752 -125.59587,69.75564 -150.20446,98.74149 l -7.191532,8.47072 4.887572,14.80551 c 19.53299,59.16964 43.70859,88.88205 92.43427,113.60399 13.59787,6.89915 19.70506,9.57209 63.89488,27.96489 11.52493,4.79693 21.40344,9.14211 21.95224,9.65596 0.64514,0.60403 -2.6016,4.41663 -9.18568,10.78658 -8.33412,8.06309 -11.77715,10.63156 -18.95875,14.14304 l -8.77525,4.2907 -111.0085,0.26225 -111.008512,0.26225 z M 239.75356,120.62897 c 3.69035,-6.97503 6.85902,-17.53823 7.76532,-25.886799 l 0.6617,-6.095384 -3.19982,-0.639964 c -1.7599,-0.35198 -5.77195,-0.639963 -8.91565,-0.639963 h -5.71583 l -0.64474,7.627237 c -0.80736,9.551063 -5.48783,19.776883 -12.10185,26.439903 l -4.59712,4.63117 5.73414,6.75907 5.73413,6.75908 6.09976,-6.56627 c 3.35486,-3.61145 7.48584,-9.18608 9.17996,-12.38808 z m 40.19435,323.12826 -12.47287,-5.63474 4.49023,-0.85869 c 8.78821,-1.6806 25.876,-7.56702 34.17565,-11.77286 4.61591,-2.3391 4.71395,-1.68799 1.16762,7.75441 -3.15906,8.41129 -6.61982,13.1142 -10.99594,14.94266 -1.83085,0.76498 -3.45549,1.34882 -3.61032,1.29742 -0.15483,-0.0514 -5.8943,-2.62909 -12.75437,-5.7282 z m -27.93922,-11.79962 c -1.92082,-0.86783 -8.12532,-3.46871 -13.78778,-5.77971 -5.66246,-2.31101 -10.29273,-4.58101 -10.28951,-5.04445 0.003,-0.46345 4.86066,-2.53155 10.79429,-4.5958 5.93363,-2.06425 16.12753,-6.48726 22.6531,-9.82891 6.52557,-3.34166 11.98426,-5.95173 12.13042,-5.80016 0.14617,0.15157 -3.06008,6.99556 -7.12498,15.20887 -4.06491,8.21331 -7.39074,15.50994 -7.39074,16.21473 0,1.70427 -2.70465,1.55923 -6.9848,-0.37457 z m 114.80429,-1.45934 c -14.58366,-1.68958 -25.72124,-5.8781 -45.45516,-17.09436 -20.30563,-11.54121 -66.07756,-44.35455 -65.1281,-46.68954 0.36137,-0.88871 15.33443,-13.92493 15.99381,-13.92493 0.28549,0 10.31011,6.14214 22.27692,13.64919 11.96682,7.50706 24.92206,14.97865 28.78942,16.60355 15.57456,6.54373 30.91268,9.68133 46.96158,9.60658 9.74812,-0.0454 24.67782,-1.84019 25.95821,-3.12058 0.2599,-0.2599 -5.53483,-0.55423 -12.87717,-0.65407 -26.0684,-0.35446 -53.12845,-5.61448 -61.21284,-11.89876 l -2.23166,-1.73475 5.696,-8.60699 5.696,-8.60699 18.4879,-0.67019 c 29.31335,-1.06261 37.81662,-2.15421 51.91519,-6.66459 16.39371,-5.24463 21.71602,-5.6911 34.92402,-2.92964 20.05211,4.1924 40.14106,7.00289 50.14092,7.01485 l 6.73535,0.008 0.002,27.19085 0.002,27.19085 -13.4829,-0.30359 c -27.40085,-0.61698 -52.79307,5.09852 -77.47782,17.43935 -10.5666,5.28264 -10.68648,5.3146 -19.45767,5.18594 -4.85406,-0.0712 -12.16897,-0.5168 -16.25536,-0.99023 z m -164.6776,-20.35709 c -8.40547,-4.15928 -14.87906,-7.91756 -14.38576,-8.35172 0.4933,-0.43416 4.45242,-2.02438 8.79805,-3.53381 12.50714,-4.34431 25.19645,-10.96232 34.42297,-17.95305 1.1747,-0.89005 1.31768,-0.4772 0.84747,2.44711 -0.75531,4.69733 -12.20992,34.22376 -13.43539,34.63225 -0.53057,0.17686 -7.84187,-3.08149 -16.24734,-7.24078 z m -28.92189,-16.40745 c -4.64653,-3.27989 -11.94947,-9.43135 -16.22877,-13.66991 l -7.78053,-7.70647 9.24396,-3.14637 c 7.69197,-2.61812 13.45671,-4.90774 25.38574,-10.08265 2.92851,-1.27041 2.32142,21.26162 -0.95179,35.32536 l -1.22038,5.24348 z m 121.2045,-35.04209 c -9.87766,-5.9851 -18.05693,-11.22088 -18.17617,-11.63505 -0.11924,-0.41417 1.76523,-1.95615 4.18772,-3.42662 l 4.40453,-2.67357 10.27924,5.45335 c 5.65358,2.99934 13.53466,7.10731 17.5135,9.12882 3.97885,2.0215 7.23305,4.13828 7.23157,4.70394 -0.001,0.56567 -1.68532,2.89658 -3.74186,5.17981 l -3.73916,4.15133 z m 15.23395,-10.71611 c -6.98704,-3.66362 -12.70902,-6.88564 -12.71551,-7.16004 -0.006,-0.2744 1.56962,-1.57593 3.50245,-2.89229 l 3.51424,-2.39337 15.65208,7.38252 c 14.31063,6.74981 15.34346,7.40852 12.05114,7.6859 -1.98142,0.16694 -4.39124,1.17667 -5.35817,2.24512 -0.96649,1.06795 -2.24894,1.90833 -2.84988,1.86751 -0.60095,-0.0408 -6.80931,-3.07173 -13.79635,-6.73535 z m 25.70353,-3.66539 c -6.02144,-2.92713 -11.09031,-5.74876 -11.26416,-6.27031 -0.17385,-0.52154 1.49787,-1.23832 3.71493,-1.59284 3.59987,-0.57564 5.55174,0.0953 18.24897,6.27288 l 14.21795,6.91747 -6.9848,-0.003 c -6.40384,-0.002 -7.89543,-0.44525 -17.93289,-5.32462 z m 115.92297,-9.85485 c -6.21225,-2.26909 -5.90887,-1.60737 -4.11744,-8.98072 0.50545,-2.08039 0.14488,-2.44994 -2.95849,-3.03213 -4.54155,-0.852 -4.99158,-1.71289 -3.17195,-6.06786 1.63454,-3.91201 2.04197,-3.44528 -5.25917,-6.02468 -0.96359,-0.34043 -1.15362,-1.54285 -0.68354,-4.32525 0.58538,-3.46481 -0.15628,-5.41997 -7.3488,-19.37278 -5.9605,-11.56282 -7.69405,-15.76476 -6.80018,-16.48291 2.04897,-1.64617 13.54533,-7.18415 14.91367,-7.18415 0.71391,0 6.40335,9.99076 12.64321,22.2017 6.23986,12.21094 13.30195,25.90958 15.69354,30.44143 4.29535,8.13931 5.33105,13.10764 3.37679,16.19875 -0.6144,0.9718 -1.26492,1.14497 -1.87427,0.49891 -0.91126,-0.96616 -10.10791,-18.61248 -23.50547,-45.10181 -6.52425,-12.89956 -6.71795,-13.15589 -9.11605,-12.06324 -1.34759,0.61401 -2.45017,1.45769 -2.45017,1.87485 0,0.41717 6.75486,14.0403 15.0108,30.27363 11.65501,22.91679 14.61073,29.48651 13.22124,29.38707 -0.98426,-0.0704 -4.39243,-1.0788 -7.57372,-2.24081 z M 141.24964,302.383 c -2.46963,-1.85146 -7.85791,-5.07489 -11.97395,-7.16318 -4.11605,-2.08828 -7.70823,-3.94778 -7.98264,-4.13223 -0.2744,-0.18444 0.62365,-1.23672 1.99566,-2.33839 1.37202,-1.10167 4.29067,-3.65126 6.48589,-5.66575 6.42209,-5.89336 17.50808,-14.39821 18.05501,-13.85128 0.2769,0.2769 0.88113,4.26054 1.34272,8.85254 1.18658,11.80419 -0.16266,26.81468 -2.46406,27.41287 -0.53262,0.13844 -2.989,-1.26312 -5.45863,-3.11458 z m 174.62012,2.53995 c -11.81519,-2.50019 -24.22929,-10.64298 -32.24252,-21.14887 -3.0025,-3.93647 -3.35989,-6.40781 -1.26347,-8.73675 0.77992,-0.86642 5.63128,-8.08615 10.7808,-16.04384 22.38526,-34.59249 30.04754,-45.90014 31.1028,-45.90014 1.07049,0 14.19974,4.04933 17.73888,5.47103 1.12872,0.45342 2.03871,-0.0188 2.8087,-1.45757 0.99902,-1.86668 0.65888,-2.58145 -2.76722,-5.81491 -7.48783,-7.06683 -9.92497,-16.4292 -6.75842,-25.96279 2.10626,-6.34136 10.23643,-14.17299 17.16355,-16.5333 18.08771,-6.1631 38.04733,5.3145 40.04376,23.02682 0.5953,5.2815 -2.65656,13.84811 -6.74277,17.76294 l -2.84615,2.72679 -1.69252,-3.27298 c -1.52514,-2.94929 -1.54358,-3.52743 -0.18645,-5.84594 4.89725,-8.36642 3.94753,-15.72782 -2.83577,-21.98045 -14.16285,-13.05485 -38.47561,-3.03899 -35.87796,14.78025 0.56503,3.876 1.52337,5.43723 5.90284,9.61639 2.87556,2.74403 5.75327,6.50027 6.39491,8.3472 1.07102,3.08287 0.96316,3.51811 -1.31617,5.31103 -1.36554,1.07413 -2.48595,2.48165 -2.48981,3.12783 -0.004,0.64617 2.73154,3.64449 6.07865,6.66292 l 6.08567,5.48807 -2.05959,3.99131 c -1.13277,2.19523 -3.42911,7.13448 -5.10297,10.97612 -1.67387,3.84165 -3.67574,8.1238 -4.44861,9.5159 -0.77287,1.3921 -2.28446,4.75978 -3.35909,7.48372 -1.07462,2.72395 -3.74239,8.76932 -5.92838,13.43418 -2.18598,4.66485 -5.80736,12.4105 -8.0475,17.21255 l -4.07298,8.73101 -5.28491,-0.11475 c -2.90669,-0.0631 -6.85648,-0.44731 -8.7773,-0.85377 z m 21.89506,-39.13882 c 3.29835,-6.14409 3.50546,-6.79064 2.17531,-6.79064 -0.48145,0 -6.60594,-3.19986 -13.60997,-7.11081 -11.83699,-6.6096 -12.8127,-6.98026 -13.84262,-5.25863 -3.04128,5.08392 -7.5939,13.60792 -7.5939,14.21831 0,0.37994 1.66615,1.5787 3.70256,2.66391 2.03642,1.08521 7.98459,4.32975 13.21817,7.21009 l 9.51561,5.23698 1.69208,-2.24325 c 0.93065,-1.23378 3.06489,-4.80047 4.74276,-7.92596 z m -17.65429,-2.89946 c -3.97884,-2.22397 -7.22427,-4.34606 -7.21207,-4.71575 0.0122,-0.3697 0.79799,-1.66914 1.7462,-2.88765 l 1.72401,-2.21547 6.80884,3.96168 c 3.74486,2.17892 7.22479,3.96167 7.73318,3.96167 1.05693,0 1.20807,2.09088 0.31867,4.40862 -0.92677,2.41512 -3.23546,1.89331 -11.11883,-2.5131 z m 28.49573,-16.99096 c 2.36411,-4.43963 4.1602,-8.19112 3.99132,-8.33665 -1.22119,-1.05233 -26.90495,-14.64386 -27.1251,-14.35427 -2.8098,3.69601 -8.46848,15.37183 -7.78244,16.05787 0.95904,0.95904 25.27021,14.61548 26.11894,14.67192 0.2744,0.0182 2.43318,-3.59924 4.79728,-8.03887 z m -15.76127,-4.72201 c -6.78707,-3.82399 -7.91509,-5.48686 -5.73992,-8.46158 1.23629,-1.69073 1.75867,-1.54548 8.75984,2.43575 4.09484,2.32854 7.61134,4.3602 7.81445,4.51482 0.20311,0.15461 0.0823,1.42458 -0.26847,2.82215 -0.84352,3.36086 -2.67767,3.13326 -10.5659,-1.31114 z m -150.74984,36.21059 c -3.29646,-3.51072 -15.27588,-9.0943 -21.38784,-9.96883 -9.566,-1.36874 -9.62916,-1.25941 7.07556,-12.2483 8.57579,-5.64143 15.79636,-10.05313 16.0457,-9.80378 1.50077,1.50076 3.35541,17.94661 2.7848,24.69393 -0.81806,9.67335 -1.41147,10.63567 -4.51822,7.32698 z m 225.04852,-17.19998 c -2.14479,-4.22109 -3.91408,-8.05857 -3.93174,-8.52773 -0.0338,-0.8979 25.16223,-14.53365 26.9483,-14.58407 1.35173,-0.0382 8.74464,14.71206 8.14576,16.25229 -0.33593,0.86398 -19.7075,11.23011 -26.7042,14.28998 -0.30717,0.13434 -2.31332,-3.20937 -4.45812,-7.43047 z m -181.07854,-6.81052 c -5.98348,-4.1918 -18.20089,-9.91681 -25.21415,-11.81521 -3.69402,-0.99992 -6.71639,-2.09488 -6.71639,-2.43323 0,-0.33835 2.13286,-1.79019 4.73969,-3.2263 2.60683,-1.4361 10.07139,-5.58286 16.5879,-9.215 6.51652,-3.63214 12.04522,-6.6039 12.28599,-6.6039 0.24078,0 1.83438,3.03091 3.54134,6.73535 3.6595,7.94181 4.02362,14.02644 1.32861,22.2017 -0.99503,3.01843 -2.09073,5.78397 -2.43487,6.14565 -0.34415,0.36167 -2.1973,-0.44341 -4.11812,-1.78906 z m 153.08563,-0.44019 c -5.42529,-1.57529 -5.27541,-1.26454 -16.51826,-34.24844 -5.38821,-15.80776 -5.77937,-20.12911 -2.14181,-23.66134 1.9524,-1.89587 13.37434,-7.87203 15.04542,-7.87203 0.57556,0 1.54379,1.5069 2.15163,3.34867 1.36721,4.14268 0.0713,8.22974 -3.55852,11.22272 l -2.54504,2.09853 3.82387,7.59032 c 2.10313,4.17468 4.32434,7.60831 4.93602,7.6303 1.13263,0.0407 36.12829,-17.55236 37.62632,-18.91557 0.45153,-0.41089 -1.04529,-4.40981 -3.32628,-8.88649 l -4.14724,-8.13942 -5.58192,3.0233 c -3.07006,1.66281 -5.86623,3.02329 -6.21372,3.02329 -0.72367,0 -4.43841,-11.8887 -3.87478,-12.40091 0.2039,-0.18531 3.69029,-1.99908 7.74751,-4.03061 11.44249,-5.72946 14.09881,-4.46718 25.05268,11.90504 2.46962,3.69124 5.41922,7.90358 6.55465,9.36077 1.13543,1.45719 4.46275,6.15224 7.39403,10.43344 6.00914,8.77648 6.75677,13.17817 2.93017,17.2514 -1.71477,1.82528 -60.76942,32.56891 -61.94779,32.24978 -0.18276,-0.0495 -1.71589,-0.49173 -3.40694,-0.98275 z M 266.54151,226.06155 c -6.40415,-4.41324 -17.30773,-8.93295 -25.38825,-10.52385 l -3.3717,-0.66382 5.36736,-2.99766 c 4.1114,-2.2962 27.40584,-13.10613 37.54736,-17.42409 1.53406,-0.65315 1.67811,6.46097 0.30106,14.86819 -1.54827,9.45257 -5.18416,21.74134 -6.39735,21.62213 -0.62589,-0.0615 -4.2522,-2.25791 -8.05848,-4.8809 z m -143.2528,-22.65656 c -5.36177,-1.97149 -6.75881,-8.06486 -2.49028,-10.86171 6.29043,-4.12165 16.57567,0.012 15.0596,6.05249 -0.97227,3.87382 -7.90215,6.52531 -12.56932,4.80922 z"
     id="path21" /></svg>
