<?xml version="1.0" encoding="UTF-8" standalone="no"?>
<svg
   style="height: 512px; width: 512px;"
   viewBox="0 0 512 512"
   version="1.1"
   id="svg2"
   sodipodi:docname="organ-clone.svg"
   inkscape:version="1.3.2 (091e20e, 2023-11-25, custom)"
   xmlns:inkscape="http://www.inkscape.org/namespaces/inkscape"
   xmlns:sodipodi="http://sodipodi.sourceforge.net/DTD/sodipodi-0.dtd"
   xmlns="http://www.w3.org/2000/svg"
   xmlns:svg="http://www.w3.org/2000/svg">
  <defs
     id="defs2">
    <filter
       style="color-interpolation-filters:sRGB;"
       inkscape:label="Drop Shadow"
       id="filter3"
       x="-0.078234168"
       y="-0.07826087"
       width="1.1564683"
       height="1.1565217">
      <feFlood
         result="flood"
         in="SourceGraphic"
         flood-opacity="1.000000"
         flood-color="rgb(58,63,94)"
         id="feFlood2" />
      <feGaussianBlur
         result="blur"
         in="SourceGraphic"
         stdDeviation="15.000000"
         id="feGaussianBlur2" />
      <feOffset
         result="offset"
         in="blur"
         dx="0.000000"
         dy="0.000000"
         id="feOffset2" />
      <feComposite
         result="comp1"
         operator="out"
         in="flood"
         in2="offset"
         id="feComposite2" />
      <feComposite
         result="comp2"
         operator="atop"
         in="comp1"
         in2="SourceGraphic"
         id="feComposite3" />
    </filter>
  </defs>
  <sodipodi:namedview
     id="namedview2"
     pagecolor="#505050"
     bordercolor="#ffffff"
     borderopacity="1"
     inkscape:showpageshadow="0"
     inkscape:pageopacity="0"
     inkscape:pagecheckerboard="1"
     inkscape:deskcolor="#505050"
     inkscape:zoom="1.6035156"
     inkscape:cx="255.68819"
     inkscape:cy="256"
     inkscape:window-width="1920"
     inkscape:window-height="1017"
     inkscape:window-x="-8"
     inkscape:window-y="-8"
     inkscape:window-maximized="1"
     inkscape:current-layer="svg2" />
  <path
     d="M0 0h512v512H0z"
     fill="#000"
     fill-opacity="1"
     id="path1"
     style="fill:#1b1f21;fill-opacity:1" />
  <g
     class=""
     style=""
     transform="translate(0,0)"
     id="g2">
    <path
       d="M486.078 255.922C486.078 382.99 383.092 486 256 486S25.922 382.93 25.922 255.922C25.922 131.537 124.633 30.215 247.99 26c-10.155 16.538-30.154 34.273-57.984 50.786l-1.545.935-.275.167c-22.022 13.712-28.62 33.926-18.106 55.457 4.227 8.646 13.376 20.286 32.069 20.286 7.365 0 16.202-1.808 26.8-6.311l1.102-.467c2.718-.934 5.041-2.85 10.083-6.994 6.562-5.4 20.226-16.633 27.794-17.268 5.617-.467 6.79.36 14.37 5.784 2.61 1.868 5.712 4.084 9.58 6.634a61.073 61.073 0 0 0 1.617 73.983c9.077 12.885 18.142 24.992 7.796 53.05-13.077 35.446.108 36.595-9.245 49.552-7.185 9.94-13.616-2-37.458-4.658a78.64 78.64 0 1 0-14.394 156.227 8.466 8.466 0 0 0 1.832.216c40.105-.168 76.737-22.837 82.305-34.895 5.568-12.06 16.502-18.718 23.46-20.358 58.45-14.203 163.124-172.442 38.99-277.883a61.277 61.277 0 0 0-18.046-13.819l-.096-.06a61.073 61.073 0 0 0-62.75 4.862c-5.34-3.329-9.292-6.143-12.466-8.383-8.718-6.215-14.478-10.322-27.1-9.28-12.621 1.042-25.806 11.22-38.32 21.555-1.796 1.473-3.988 3.281-4.97 3.976l-1.532.634c-23.376 9.928-30.537 2.683-34.165-4.79-6.192-12.681-2.803-22.178 11.017-30.776l.3-.191 1.197-.695c22.86-13.568 56.977-37.721 69.839-67.06 120.66 7.04 216.39 107.2 216.39 229.706z"
       fill="#fff"
       fill-opacity="1"
       id="path2"
       style="fill:#e64539;fill-opacity:1;filter:url(#filter3)" />
  </g>
</svg>
