<?xml version="1.0" encoding="UTF-8" standalone="no"?>
<svg
   xml:space="preserve"
   width="512"
   height="512"
   version="1.1"
   id="svg5"
   sodipodi:docname="overpacked-suburbs.svg"
   inkscape:version="1.3.2 (091e20e, 2023-11-25, custom)"
   xmlns:inkscape="http://www.inkscape.org/namespaces/inkscape"
   xmlns:sodipodi="http://sodipodi.sourceforge.net/DTD/sodipodi-0.dtd"
   xmlns="http://www.w3.org/2000/svg"
   xmlns:svg="http://www.w3.org/2000/svg"><sodipodi:namedview
     id="namedview5"
     pagecolor="#505050"
     bordercolor="#ffffff"
     borderopacity="1"
     inkscape:showpageshadow="0"
     inkscape:pageopacity="0"
     inkscape:pagecheckerboard="1"
     inkscape:deskcolor="#505050"
     showgrid="false"
     inkscape:zoom="1.6035156"
     inkscape:cx="256"
     inkscape:cy="256"
     inkscape:window-width="1920"
     inkscape:window-height="1017"
     inkscape:window-x="-8"
     inkscape:window-y="-8"
     inkscape:window-maximized="1"
     inkscape:current-layer="svg5" /><defs
     id="defs2"><filter
       style="color-interpolation-filters:sRGB"
       id="a"
       x="-0.084758364"
       y="-0.078946822"
       width="1.1695167"
       height="1.1578936"><feFlood
         flood-opacity="1"
         flood-color="#3A3F5E"
         result="flood"
         id="feFlood1" /><feComposite
         in="flood"
         in2="SourceGraphic"
         operator="out"
         result="composite1"
         id="feComposite1" /><feGaussianBlur
         in="composite1"
         stdDeviation="9.5"
         result="blur"
         id="feGaussianBlur1" /><feOffset
         result="offset"
         id="feOffset1" /><feComposite
         in="offset"
         in2="SourceGraphic"
         operator="atop"
         result="composite2"
         id="feComposite2" /></filter></defs><path
     d="M-350.565-27.136h512v512h-512z"
     fill="#b90202"
     style="fill:#1b1f21;fill-opacity:1"
     transform="translate(350.565 27.136)"
     id="path2" /><g
     style="fill:#ffb163;fill-opacity:1;filter:url(#a)"
     transform="translate(45.015 29.998) scale(1.4611)"
     id="g5"><path
       d="M75.102 21.645H25.436c-8.58 0-15.535 6.955-15.535 15.535v43.635h65.201zM9.901 238.936h83.201v-28.5c0-5.523 4.478-10 10-10s10 4.477 10 10v38.5c0 5.522-4.478 10-10 10H9.901v14.331c0 8.58 6.955 15.535 15.535 15.535h112.632V155.936H9.901ZM263.366 21.645h-21.217a58.177 58.177 0 0 1 4.252 21.855 58.38 58.38 0 0 1-6.926 27.593h39.426V37.18c0-8.58-6.955-15.535-15.535-15.535z"
       style="fill:#ffb163;fill-opacity:1"
       id="path3" /><path
       d="M224.978 91.031a63.255 63.255 0 0 0-7.171 15.46l-8.93 28.885c-2.925 9.46-11.544 15.816-21.458 15.816-9.909-.006-18.525-6.372-21.44-15.84l-9.35-30.361c-2.594-8.419-7.052-16.421-12.891-23.138A58.446 58.446 0 0 1 129.401 43.5a58.15 58.15 0 0 1 4.252-21.855H95.102v69.17c0 5.522-4.478 10-10 10H9.901v35.121h138.167c5.522 0 10 4.477 10 10v30h54c5.522 0 10 4.477 10 10v39h56.833V91.093h-52.833c-.369 0-.733-.024-1.09-.062z"
       style="fill:#ffb163;fill-opacity:1"
       id="path4" /><path
       d="M202.068 234.936v-39h-44v92.866h105.298c8.58 0 15.535-6.955 15.535-15.535v-28.331h-66.833c-5.523 0-10-4.478-10-10zm-31.103-134.36 9.351 30.361a7.447 7.447 0 0 0 7.112 5.255h.002a7.447 7.447 0 0 0 7.116-5.247l8.93-28.885c3.439-11.124 9.27-21.156 16.773-29.487 6.933-7.703 11.152-17.894 11.152-29.073 0-24.024-19.476-43.5-43.5-43.5s-43.5 19.476-43.5 43.5c0 10.91 4.019 20.878 10.657 28.511 7.207 8.29 12.674 18.067 15.907 28.565zm17.17-78.931c11.551 0 20.913 9.363 20.913 20.913 0 11.551-9.362 20.913-20.913 20.913-11.55 0-20.913-9.362-20.913-20.913 0-11.55 9.363-20.913 20.913-20.913z"
       style="fill:#ffb163;fill-opacity:1"
       id="path5" /></g></svg>
