<?xml version="1.0" encoding="UTF-8" standalone="no"?>
<svg
   style="height: 512px; width: 512px;"
   viewBox="0 0 512 512"
   version="1.1"
   id="svg2"
   sodipodi:docname="pay-lifestyles.svg"
   inkscape:version="1.3.2 (091e20e, 2023-11-25, custom)"
   xmlns:inkscape="http://www.inkscape.org/namespaces/inkscape"
   xmlns:sodipodi="http://sodipodi.sourceforge.net/DTD/sodipodi-0.dtd"
   xmlns="http://www.w3.org/2000/svg"
   xmlns:svg="http://www.w3.org/2000/svg">
  <defs
     id="defs2">
    <filter
       style="color-interpolation-filters:sRGB;"
       inkscape:label="Drop Shadow"
       id="filter3"
       x="-0.077922078"
       y="-0.078125"
       width="1.1558442"
       height="1.15625">
      <feFlood
         result="flood"
         in="SourceGraphic"
         flood-opacity="1.000000"
         flood-color="rgb(58,63,94)"
         id="feFlood2" />
      <feGaussianBlur
         result="blur"
         in="SourceGraphic"
         stdDeviation="15.000000"
         id="feGaussianBlur2" />
      <feOffset
         result="offset"
         in="blur"
         dx="0.000000"
         dy="0.000000"
         id="feOffset2" />
      <feComposite
         result="comp1"
         operator="out"
         in="flood"
         in2="offset"
         id="feComposite2" />
      <feComposite
         result="comp2"
         operator="atop"
         in="comp1"
         in2="SourceGraphic"
         id="feComposite3" />
    </filter>
  </defs>
  <sodipodi:namedview
     id="namedview2"
     pagecolor="#505050"
     bordercolor="#ffffff"
     borderopacity="1"
     inkscape:showpageshadow="0"
     inkscape:pageopacity="0"
     inkscape:pagecheckerboard="1"
     inkscape:deskcolor="#505050"
     inkscape:zoom="1.6035156"
     inkscape:cx="256"
     inkscape:cy="256"
     inkscape:window-width="1920"
     inkscape:window-height="1017"
     inkscape:window-x="-8"
     inkscape:window-y="-8"
     inkscape:window-maximized="1"
     inkscape:current-layer="svg2" />
  <path
     d="M0 0h512v512H0z"
     fill="#000"
     fill-opacity="1"
     id="path1"
     style="fill:#1b1f21;fill-opacity:1" />
  <g
     class=""
     style=""
     transform="translate(0,0)"
     id="g2">
    <path
       d="M256 25.6L52 134.4h170v-56h68v55.094c2.53.258 5.04.567 7.54.906H460L256 25.6zm-16 70.8v57.38l-6.248 2.005c-14.24 4.573-26.103 11.94-36.07 22.322-17.686 18.425-26.735 43.597-26.735 77.368 0 33.38 8.89 58.507 26.282 77.144 10.118 10.787 22.11 18.3 36.477 22.83l6.293 1.984V420.4h32v-59.85l8.373-.587c9.6-.67 18.958-2.145 28.092-4.45 11.206-2.827 22.043-6.956 32.588-12.26V252.11h-61.035v19.974h30.955v49.576l-5.403 2.356c-4.373 1.906-9.156 3.264-14.322 4.152l-.08.014-.08.013c-5.003.768-10.33 1.133-15.988 1.133-21.365 0-39.558-7.483-51.834-22.228-11.08-13.308-17.89-27.01-17.89-51.625 0-24.844 7.066-38.687 18.532-51.912h.002c12.767-14.722 31.483-22.09 53.56-22.09 11.836 0 23.63 1.875 35.264 5.574 7.058 2.227 14.08 5.21 21.075 8.764v-32.35a138.957 138.957 0 0 0-26.992-9.155h-.006l-.008-.002c-8.43-1.94-17.185-3.16-26.287-3.65l-8.517-.458V96.4h-32zm-192 54v18h25v206H48v18h96v-18h-25v-206h25v-18H48zm320 0v18h25v206h-25v18h96v-18h-25v-206h25v-18h-96zm-327 258v30h181v-30H41zm249 0v30h181v-30H290zm-265 48v30h462v-30H25z"
       fill="#fff"
       fill-opacity="1"
       id="path2"
       style="fill:#e64539;fill-opacity:1;filter:url(#filter3)" />
  </g>
</svg>
