<?xml version="1.0" encoding="UTF-8" standalone="no"?>
<svg
   style="height: 512px; width: 512px;"
   viewBox="0 0 512 512"
   version="1.1"
   id="svg2"
   sodipodi:docname="razor.svg"
   inkscape:version="1.3.2 (091e20e, 2023-11-25, custom)"
   xmlns:inkscape="http://www.inkscape.org/namespaces/inkscape"
   xmlns:sodipodi="http://sodipodi.sourceforge.net/DTD/sodipodi-0.dtd"
   xmlns="http://www.w3.org/2000/svg"
   xmlns:svg="http://www.w3.org/2000/svg">
  <defs
     id="defs2">
    <filter
       style="color-interpolation-filters:sRGB;"
       inkscape:label="Drop Shadow"
       id="filter3"
       x="-0.082220447"
       y="-0.082589723"
       width="1.1644409"
       height="1.1651794">
      <feFlood
         result="flood"
         in="SourceGraphic"
         flood-opacity="1.000000"
         flood-color="rgb(58,63,94)"
         id="feFlood2" />
      <feGaussianBlur
         result="blur"
         in="SourceGraphic"
         stdDeviation="15.000000"
         id="feGaussianBlur2" />
      <feOffset
         result="offset"
         in="blur"
         dx="0.000000"
         dy="0.000000"
         id="feOffset2" />
      <feComposite
         result="comp1"
         operator="out"
         in="flood"
         in2="offset"
         id="feComposite2" />
      <feComposite
         result="comp2"
         operator="atop"
         in="comp1"
         in2="SourceGraphic"
         id="feComposite3" />
    </filter>
  </defs>
  <sodipodi:namedview
     id="namedview2"
     pagecolor="#505050"
     bordercolor="#ffffff"
     borderopacity="1"
     inkscape:showpageshadow="0"
     inkscape:pageopacity="0"
     inkscape:pagecheckerboard="1"
     inkscape:deskcolor="#505050"
     inkscape:zoom="1.6035156"
     inkscape:cx="255.68819"
     inkscape:cy="256"
     inkscape:window-width="1920"
     inkscape:window-height="1017"
     inkscape:window-x="-8"
     inkscape:window-y="-8"
     inkscape:window-maximized="1"
     inkscape:current-layer="svg2" />
  <path
     d="M0 0h512v512H0z"
     fill="#000"
     fill-opacity="1"
     id="path1"
     style="fill:#1b1f21;fill-opacity:1" />
  <g
     class=""
     style=""
     transform="translate(0,0)"
     id="g2">
    <path
       d="M200.9 38.05c-1.7 0-2.9.36-3.6.84-9.3 6.84-14.4 20.81-14.2 36.27.1 7.36 1.6 14.85 4 21.67 8.3-5.28 17.1-10.41 26.3-15.38-.2-1.2-.2-2.38-.2-3.51 0-5.38 1.4-10.15 2.6-14.5 1.2-4.34 2.3-8.28 2.7-11.14.4-2.86.1-4.1-.3-4.65-1.6-2.69-6.4-6.61-11.1-8.39-2.4-.89-4.5-1.21-6.2-1.21zm65.5 42.46c-6.4-.12-13.3 1.3-20.5 4.76h-.1C148.5 130.9 97.96 193 70.73 252.9c-27.27 59.8-31.08 117.5-33.39 154.3-2.8 44.6 18.99 63.6 40.84 66.4 21.92 2.7 44.82-10.6 47.32-43.5C133.1 330 162.2 229 291.7 139.7l-.2.1c8.9-6.5 12.3-13.7 13-21.1.6-7.4-1.9-15.4-7.1-22.13-6.4-8.46-16.3-14.89-28.3-15.95-.9-.1-1.8-.13-2.7-.15zm-30 29.09c13.7 0 25 11.3 25 25s-11.3 25-25 25-25-11.3-25-25 11.3-25 25-25zm0 18c-4 0-7 3-7 7s3 7 7 7 7-3 7-7-3-7-7-7zm52.4 36.3c-8.4 6.1-16.3 12.3-23.8 18.5l57.8 57.8 6.3 6.4-11.4 11.3 142.7 142.7c1.7-2.5 3.3-5 4.7-7.5 5.8-10 9.5-20 9.8-28.7.4-8.7-1.9-16.2-9.5-23.7-58.8-58.9-117.7-117.9-176.6-176.8zM305 270.7l-21.2 21.2 145.6 145.6c6.2-6.3 13.3-13.9 20.2-22.2z"
       fill="#fff"
       fill-opacity="1"
       id="path2"
       style="filter:url(#filter3);fill:#e64539;fill-opacity:1" />
  </g>
</svg>
