<?xml version="1.0" encoding="UTF-8" standalone="no"?>
<svg
   viewBox="0 0 512 512"
   version="1.1"
   id="svg3"
   sodipodi:docname="rough-night.svg"
   inkscape:version="1.3.2 (091e20e, 2023-11-25, custom)"
   xml:space="preserve"
   inkscape:export-filename="Images by Aru\SVG Versions\rough-night.svg"
   inkscape:export-xdpi="96"
   inkscape:export-ydpi="96"
   width="512"
   height="512"
   xmlns:inkscape="http://www.inkscape.org/namespaces/inkscape"
   xmlns:sodipodi="http://sodipodi.sourceforge.net/DTD/sodipodi-0.dtd"
   xmlns="http://www.w3.org/2000/svg"
   xmlns:svg="http://www.w3.org/2000/svg"><sodipodi:namedview
     id="namedview3"
     pagecolor="#505050"
     bordercolor="#eeeeee"
     borderopacity="1"
     inkscape:showpageshadow="0"
     inkscape:pageopacity="0"
     inkscape:pagecheckerboard="0"
     inkscape:deskcolor="#505050"
     inkscape:zoom="1.3007812"
     inkscape:cx="256"
     inkscape:cy="255.61562"
     inkscape:window-width="1920"
     inkscape:window-height="1017"
     inkscape:window-x="-8"
     inkscape:window-y="-8"
     inkscape:window-maximized="1"
     inkscape:current-layer="svg3" /><defs
     id="defs2" /><path
     style="fill:#f9f9f9"
     d="m 295.39714,468.4001 c -1.64571,-1.11477 -5.25181,-3.08122 -8.01358,-4.36987 -2.76176,-1.28865 -5.53749,-2.96488 -6.16829,-3.72494 -0.6308,-0.76007 -1.39913,-4.51323 -1.7074,-8.34036 -0.30827,-3.82712 -0.97902,-10.54904 -1.49056,-14.93758 -1.39735,-11.98799 -1.31611,-17.45443 0.25937,-17.45443 1.74488,0 13.63565,3.75497 15.86018,5.00847 2.94501,1.65948 5.31691,1.12013 13.68369,-3.11155 9.83819,-4.97588 10.62125,-4.62901 10.89713,4.82695 0.10816,3.70754 0.62401,11.67809 1.14633,17.71233 1.21412,14.02661 1.20247,16.45703 -0.0788,16.45703 -1.21309,0 -6.08362,2.36202 -14.06977,6.82328 -3.10205,1.73287 -6.01943,3.14772 -6.48307,3.14411 -0.46365,-0.004 -2.18948,-0.91866 -3.83518,-2.03344 z m -11.47006,-65.77173 c 0,-0.54243 -1.00986,-0.95653 -2.24414,-0.92023 -2.13357,0.0627 -8.05875,-1.66576 -15.70898,-4.58266 -4.28286,-1.63298 -23.78924,-8.12255 -29.92188,-9.9547 -6.60292,-1.97264 -10.94741,-3.52556 -15.73938,-5.62597 -2.34813,-1.02924 -5.93876,-2.2914 -7.97917,-2.80482 -2.04041,-0.51341 -6.85163,-2.1142 -10.69161,-3.5573 -3.83997,-1.44311 -12.3677,-4.41306 -18.95052,-6.5999 -6.58281,-2.18684 -13.31523,-4.57538 -14.96094,-5.30787 -1.6457,-0.73249 -7.25605,-2.73573 -12.46744,-4.45164 -9.10204,-2.99696 -9.7404,-3.40396 -16.20635,-10.33289 -8.55871,-9.17152 -8.73931,-11.46817 -0.74938,-9.52956 1.91998,0.46585 7.30592,1.28895 11.96875,1.8291 7.58004,0.87808 12.68924,1.68528 31.83357,5.02935 2.97142,0.51904 5.57355,0.77273 5.78252,0.56376 0.20897,-0.20896 -2.67102,-3.30046 -6.39998,-6.86999 -3.72895,-3.56953 -11.4822,-11.00163 -17.22944,-16.51578 -5.74724,-5.51415 -10.14386,-10.3314 -9.77026,-10.705 1.24895,-1.24895 54.80913,-1.03108 59.11823,0.24048 2.19427,0.6475 6.45813,1.82286 9.47526,2.6119 3.01712,0.78905 7.5054,1.97294 9.97395,2.63089 4.42975,1.18065 11.71227,2.89814 21.44402,5.05727 2.74283,0.60854 5.88463,1.49851 6.98177,1.97771 1.09713,0.47919 3.34127,1.09977 4.98698,1.37907 8.15174,1.38343 13.39664,2.99874 13.88712,4.27692 0.29891,0.77894 1.23493,10.03804 2.08005,20.57578 0.84512,10.53775 1.95248,22.97458 2.4608,27.6374 2.11673,19.41688 2.24479,24.9349 0.57869,24.9349 -0.85373,0 -1.55224,-0.4438 -1.55224,-0.98622 z m 22.57428,0.20381 c -0.26595,-0.43032 -0.97557,-7.05054 -1.57693,-14.71159 -0.60136,-7.66105 -1.51518,-17.5198 -2.03072,-21.90835 -0.51554,-4.38854 -1.42858,-14.39193 -2.02899,-22.22975 -0.60042,-7.83783 -1.29957,-16.14115 -1.55367,-18.45183 -1.93822,-17.62501 -1.9642,-19.83345 -0.2442,-20.75397 0.92665,-0.49593 2.30294,-0.90169 3.05842,-0.90169 0.75547,0 2.3081,-0.87063 3.45028,-1.93473 1.14218,-1.0641 2.27829,-1.73313 2.52469,-1.48674 0.24639,0.2464 5.5679,-1.38945 11.82557,-3.63522 6.25767,-2.24577 15.41703,-5.42458 20.35414,-7.06403 4.93711,-1.63944 9.87422,-3.53453 10.97136,-4.2113 1.09713,-0.67678 4.01451,-1.79017 6.48307,-2.47421 2.46855,-0.68404 8.07891,-2.61066 12.46745,-4.28138 11.57335,-4.40599 16.97509,-6.31258 25.81716,-9.11242 4.32523,-1.36958 8.66337,-3.17454 9.64032,-4.01103 0.97695,-0.8365 1.94703,-1.35014 2.15574,-1.14143 0.34385,0.34385 7.16933,-1.9526 27.21751,-9.15737 3.83997,-1.37999 8.32825,-2.86332 9.97396,-3.2963 1.6457,-0.43299 4.56308,-1.47561 6.48307,-2.31695 7.45721,-3.26774 42.38942,-15.6946 44.11791,-15.6946 0.32426,0 0.86564,1.68311 1.20306,3.74023 0.78025,4.75688 4.30072,42.44123 5.6139,60.09311 0.55092,7.40566 1.40539,15.9334 1.8988,18.95052 0.85091,5.20318 0.76389,5.59681 -1.6898,7.64369 -1.42279,1.18691 -3.52579,2.37172 -4.67333,2.63292 -2.27025,0.51674 -25.1663,9.74814 -30.01351,12.10107 -1.6457,0.79885 -9.50019,3.98537 -17.45443,7.08115 -7.95423,3.09578 -15.45631,6.26173 -16.67128,7.03545 -1.21498,0.77372 -2.94382,1.40676 -3.84188,1.40676 -0.89805,0 -7.98288,2.72205 -15.74407,6.049 -23.89034,10.24095 -24.95077,10.67966 -29.57089,12.23392 -3.53193,1.18818 -26.29423,10.40888 -38.39974,15.55521 -1.09714,0.46642 -4.91218,2.05938 -8.47787,3.53992 -3.56569,1.48054 -7.89739,3.32596 -9.626,4.10093 -1.7286,0.77498 -3.53686,1.40904 -4.01835,1.40904 -0.48149,0 -4.00428,1.33435 -7.82843,2.96521 -7.32742,3.12487 -9.02436,3.5117 -9.81232,2.23676 z m 176.4062,-12.14532 c -1.09713,-0.45318 -3.94917,-1.40777 -6.33785,-2.12129 -6.31085,-1.88513 -7.30911,-4.05668 -7.88724,-17.15741 l -0.4945,-11.20569 3.57434,-1.40246 c 1.96588,-0.77136 3.30092,-1.84485 2.96675,-2.38555 -0.33417,-0.5407 -0.1187,-0.68094 0.47882,-0.31166 1.13427,0.70102 11.11035,-2.8114 19.66843,-6.92493 2.74284,-1.31837 6.20173,-2.66922 7.68641,-3.00187 3.24085,-0.72614 3.40019,-0.2166 4.23808,13.55317 0.31711,5.21139 0.84355,11.98668 1.16986,15.05619 l 0.59329,5.58094 -5.11336,3.14628 c -2.81235,1.73045 -5.53551,3.14628 -6.05148,3.14628 -0.51596,0 -2.59158,1.12207 -4.61248,2.49349 -3.77913,2.56458 -6.39981,2.97165 -9.87907,1.53451 z M 17.527145,333.04226 c -1.423802,-0.95638 -4.746519,-3.65125 -7.383816,-5.98861 l -4.7950844,-4.24973 0.7521497,-12.2073 c 0.4136823,-6.71401 0.7118369,-13.21716 0.6625657,-14.45144 -0.049271,-1.23427 0.4664237,-2.24353 1.1459886,-2.24279 1.5552967,0.002 32.0625584,17.10778 34.5907974,19.3958 1.52352,1.37877 1.702797,2.28138 0.964457,4.85582 -0.498806,1.73924 -0.90692,4.61238 -0.90692,6.38476 0,3.81293 -2.345925,5.33627 -11.266229,7.31576 -3.179303,0.70552 -6.010967,1.65558 -6.292587,2.11125 -0.860288,1.39198 -4.737664,0.9127 -7.471322,-0.92352 z m 132.222775,-3.58232 c -1.08206,-0.73961 -3.4619,-1.63321 -5.28854,-1.98578 -1.82664,-0.35257 -4.74402,-1.24448 -6.48307,-1.98202 -1.73905,-0.73755 -4.73281,-1.90355 -6.65279,-2.59112 -21.69232,-7.76827 -27.83295,-9.98918 -30.17123,-10.91218 -1.508561,-0.59548 -2.7395,-0.75718 -2.735421,-0.35933 0.0041,0.39784 1.994371,4.20177 4.422871,8.45317 2.53307,4.43447 3.88878,7.72982 3.18004,7.72982 -0.67948,0 -3.2308,-1.25953 -5.66961,-2.79896 -2.438817,-1.53943 -8.249247,-4.85281 -12.912073,-7.36307 -4.662826,-2.51026 -11.395248,-6.24318 -14.960938,-8.29538 -17.382555,-10.00434 -29.636336,-16.6978 -42.389325,-23.15456 -6.582812,-3.33284 -13.436042,-6.89091 -15.229398,-7.90681 l -3.260648,-1.8471 0.590667,-8.47787 c 0.324867,-4.66283 1.253796,-14.53704 2.064287,-21.94271 0.810492,-7.40566 1.906819,-18.62637 2.436283,-24.9349 0.529464,-6.30852 1.423311,-15.73392 1.986327,-20.94531 0.563016,-5.21139 1.442745,-13.96354 1.954955,-19.44922 0.512209,-5.48568 1.387755,-14.46224 1.945658,-19.94792 1.242992,-12.22195 4.027882,-42.51203 4.379539,-47.63439 0.141555,-2.06194 0.73874,-4.23035 1.327078,-4.81869 1.237016,-1.23702 28.116712,0.70915 29.641787,2.14615 0.542263,0.51095 0.241523,6.19668 -0.748047,14.14241 -0.910191,7.30836 -1.654893,14.79753 -1.654893,16.6426 v 3.35466 l 15.210287,-0.6025 c 8.365658,-0.33137 41.691144,-1.32005 74.056644,-2.19707 68.43799,-1.85448 76.69936,-2.33456 76.95554,-4.47197 0.0986,-0.82285 0.73991,-8.13618 1.42509,-16.25185 0.68517,-8.11567 1.50736,-14.8963 1.8271,-15.06806 0.31973,-0.17177 5.06962,0.29608 10.55529,1.03967 5.48568,0.74359 11.99369,1.53698 14.46224,1.76309 l 4.48829,0.4111 -0.0763,5.32581 c -0.042,2.9292 -0.38748,8.2432 -0.76778,11.80889 -0.3803,3.56569 -1.32685,13.58261 -2.10345,22.25983 -1.9051,21.28643 -2.07267,21.95014 -5.38181,21.31648 -22.06462,-4.22507 -35.85421,-3.47591 -81.1127,4.40672 -5.55049,0.96672 -6.75059,1.5277 -7.21344,3.37184 -0.52328,2.08491 -0.8575,2.1606 -5.80923,1.31563 -13.71551,-2.34044 -17.99342,-2.76172 -28.19411,-2.77651 -16.04807,-0.0233 -66.792596,7.00671 -69.386184,9.61253 -0.76705,0.77067 -1.100092,5.29648 -0.994208,13.5106 l 0.159219,12.35174 -3.538505,3.21996 c -1.946178,1.77099 -3.538506,3.73478 -3.538506,4.36399 0,0.62922 -0.624872,1.85261 -1.388604,2.71865 -2.062575,2.33889 -3.005752,11.17321 -1.407004,13.17879 0.714733,0.89661 8.460959,4.87776 17.213836,8.847 8.752876,3.96924 16.607369,7.58219 17.454427,8.02879 3.603858,1.90006 24.963599,11.91459 25.412339,11.91459 0.27031,0 5.5571,2.41414 11.74842,5.36477 17.03372,8.11782 33.54342,15.58054 34.46868,15.58054 0.45403,0 1.34772,0.5222 1.98597,1.16045 0.63825,0.63825 5.07013,2.77019 9.84862,4.73763 4.77849,1.96745 8.89285,4.20156 9.14302,4.96469 0.34548,1.05387 -0.18627,1.22659 -2.21144,0.71831 -4.48312,-1.12519 -18.52086,-3.61974 -28.51305,-5.06685 -5.2114,-0.75473 -11.04616,-1.66374 -12.96615,-2.02001 -2.9677,-0.55068 -3.2595,-0.45019 -1.94704,0.67055 0.84911,0.72506 4.10383,5.13334 7.2327,9.79617 9.15865,13.64874 12.4539,18.35573 13.96507,19.94792 1.58367,1.66857 6.68156,9.64387 6.68156,10.45283 0,0.90974 -1.49075,0.55966 -3.5183,-0.82623 z m 123.87806,-19.26078 c -0.36169,-0.36169 -4.13933,-1.45355 -8.39475,-2.42637 -4.25543,-0.97282 -10.20569,-2.46688 -13.22281,-3.32013 -3.01713,-0.85326 -6.97388,-1.55671 -8.79279,-1.56322 -1.81891,-0.007 -4.28746,-0.54069 -5.48568,-1.18706 -1.19821,-0.64638 -5.32036,-1.73734 -9.16034,-2.42436 -13.87149,-2.48181 -16.2665,-3.40992 -17.50109,-6.78206 -2.50192,-6.83374 -2.78104,-8.4612 -1.61425,-9.41215 1.11766,-0.9109 6.60744,-3.22212 24.40027,-10.27258 l 8.27712,-3.27983 -5.28493,-1.16095 c -2.90671,-0.63852 -6.89006,-1.44466 -8.85188,-1.79141 -1.96183,-0.34675 -4.38962,-1.23201 -5.39511,-1.96723 -1.61369,-1.17996 -0.84423,-1.48268 6.55914,-2.58054 4.61301,-0.68407 12.17248,-1.87623 16.79881,-2.64925 10.56773,-1.76577 12.00042,-1.36278 12.15015,3.41761 0.0633,2.02017 0.17548,4.33891 0.24935,5.15277 0.1452,1.59985 4.71985,2.4665 17.26117,3.27008 6.32286,0.40513 7.06306,0.27187 6.37869,-1.14836 -1.76325,-3.65913 -3.86448,-11.41876 -3.41164,-12.59884 0.26773,-0.6977 1.69089,-1.49727 3.16258,-1.77682 1.47169,-0.27955 4.91993,-1.29613 7.66277,-2.25908 14.0683,-4.93906 26.10621,-8.76034 37.70639,-11.9694 5.46933,-1.51303 10.17824,-1.47013 15.50187,0.14123 2.17347,0.65787 2.24758,0.55889 1.03515,-1.38251 -0.71825,-1.15011 -1.09849,-2.23576 -0.84497,-2.41256 1.02525,-0.715 14.81004,-4.09432 20.40886,-5.0032 6.56446,-1.06563 16.94682,0.27453 40.89323,5.27852 2.74284,0.57316 6.33346,1.27076 7.97916,1.55023 6.15627,1.04543 7.48047,1.45869 7.48047,2.33452 0,0.49453 -1.45869,1.20656 -3.24153,1.5823 -1.78285,0.37573 -4.58802,1.25512 -6.23373,1.9542 -1.6457,0.69908 -8.37812,3.14452 -14.96094,5.43432 -12.39814,4.31262 -14.56203,5.10961 -25.43359,9.36753 -3.56569,1.39653 -10.52253,3.90735 -15.45964,5.57961 -4.93711,1.67225 -12.11836,4.19074 -15.95833,5.59663 -22.29427,8.16239 -54.66944,19.6382 -59.56059,21.11205 -1.39776,0.42119 -1.62012,1.36481 -1.21257,5.14591 1.52213,14.12189 1.59316,13.10801 -0.91823,13.10801 -1.2695,0 -2.6041,-0.29592 -2.96579,-0.65761 z m -98.6664,-30.49599 c -8.41695,-3.91594 -10.64845,-5.75292 -6.98177,-5.74744 0.96,10e-4 4.7864,-0.73525 8.50311,-1.63708 3.71672,-0.90183 6.92025,-1.46404 7.11897,-1.24935 0.83387,0.9009 1.70644,12.85078 0.93289,12.77597 -0.46529,-0.045 -4.77323,-1.90895 -9.5732,-4.1421 z M 134.3177,261.46712 c -2.46855,-1.31521 -7.51787,-3.63205 -11.2207,-5.14854 -7.2157,-2.95518 -8.80493,-5.30556 -3.58742,-5.30556 5.83886,0 31.22003,-3.16735 37.24953,-4.64841 3.29141,-0.80849 9.65147,-2.33068 14.13348,-3.38264 4.48201,-1.05196 10.31678,-2.6718 12.96615,-3.59963 3.72995,-1.30627 8.75609,-1.72256 22.27147,-1.84466 17.04392,-0.15397 40.30663,-2.60624 44.19852,-4.65924 1.22354,-0.64543 2.27286,-0.56956 3.24154,0.23437 1.61751,1.34242 1.94056,6.49703 0.46435,7.40937 -0.53238,0.32904 -4.90846,1.06532 -9.72461,1.63618 -8.02061,0.95069 -26.67154,4.15668 -51.41719,8.83831 -2.61773,0.49525 -6.20836,1.35975 -7.97916,1.92112 -1.77081,0.56136 -6.58586,1.67769 -10.70012,2.48073 -8.45083,1.64946 -25.00434,5.90297 -29.23876,7.51304 -3.94024,1.49821 -5.54119,1.28122 -10.65708,-1.44444 z m 136.74599,-25.91374 c -1.12631,-2.54622 -2.657,-4.48828 -3.53755,-4.48828 -3.93489,0 -0.7736,-1.87219 7.36446,-4.36141 l 8.91663,-2.72737 4.79756,1.92525 c 2.63865,1.05889 8.05156,3.17406 12.02867,4.70037 3.97712,1.52631 7.23113,3.05527 7.23113,3.3977 0,0.69123 -18.45189,3.04714 -23.93751,3.0563 -1.91998,0.003 -4.77646,0.6763 -6.34773,1.49578 -4.05194,2.11323 -4.30636,1.99615 -6.51566,-2.99834 z M 96.336948,232.27331 c -5.948543,-2.60477 -14.74538,-7.97252 -17.430684,-10.63604 -3.345512,-3.31838 -6.427105,-11.98602 -6.427105,-18.07762 v -4.26768 l 5.735026,-0.65161 c 3.154265,-0.35838 10.223308,-1.34002 15.708985,-2.18141 5.485678,-0.8414 18.3457,-1.75561 28.57784,-2.03158 17.13159,-0.46205 19.13124,-0.33139 25.2676,1.65106 12.31672,3.97912 21.16063,11.16459 25.55772,20.76502 1.5851,3.46084 2.882,6.45116 2.882,6.64516 0,2.77271 -40.43506,10.02276 -61.83854,11.08773 -11.06817,0.55071 -11.7,0.47002 -18.032842,-2.30303 z m 105.803672,-11.8376 c -3.07862,-0.49928 -11.96875,-4.44032 -11.96875,-5.30581 0,-0.9661 -9.94577,-16.18898 -12.16964,-18.62669 -1.1036,-1.20974 -1.81354,-3.16254 -1.62671,-4.47455 0.29984,-2.10566 1.09362,-2.43359 8.31067,-3.43334 4.38855,-0.60792 12.00235,-1.67888 16.91957,-2.37989 5.6585,-0.8067 15.05109,-1.1156 25.58688,-0.84148 l 16.64649,0.4331 5.77625,3.92785 c 7.13461,4.85155 10.4836,8.37424 14.5036,15.25586 3.25857,5.57818 2.95695,7.07117 -1.43609,7.10855 -0.98723,0.008 -3.00696,0.62745 -4.48828,1.37566 -3.68114,1.85934 -24.55219,5.38839 -36.10607,6.10511 -5.21139,0.32327 -11.27057,0.73903 -13.46484,0.9239 -2.19428,0.18487 -5.11166,0.15415 -6.48308,-0.0683 z"
     id="path7" /></svg>
