<?xml version="1.0" encoding="UTF-8" standalone="no"?>
<svg
   viewBox="0 0 512 512"
   version="1.1"
   id="svg3"
   sodipodi:docname="agent_double_agent.svg"
   inkscape:version="1.3.2 (091e20e, 2023-11-25, custom)"
   xml:space="preserve"
   inkscape:export-filename="agent_merlyn.svg"
   inkscape:export-xdpi="96"
   inkscape:export-ydpi="96"
   width="512"
   height="512"
   xmlns:inkscape="http://www.inkscape.org/namespaces/inkscape"
   xmlns:sodipodi="http://sodipodi.sourceforge.net/DTD/sodipodi-0.dtd"
   xmlns="http://www.w3.org/2000/svg"
   xmlns:svg="http://www.w3.org/2000/svg"><sodipodi:namedview
     id="namedview3"
     pagecolor="#505050"
     bordercolor="#eeeeee"
     borderopacity="1"
     inkscape:showpageshadow="0"
     inkscape:pageopacity="0"
     inkscape:pagecheckerboard="0"
     inkscape:deskcolor="#505050"
     inkscape:zoom="1.3007812"
     inkscape:cx="256"
     inkscape:cy="255.61562"
     inkscape:window-width="1920"
     inkscape:window-height="1017"
     inkscape:window-x="-8"
     inkscape:window-y="-8"
     inkscape:window-maximized="1"
     inkscape:current-layer="svg3" /><defs
     id="defs2"><filter
       style="color-interpolation-filters:sRGB"
       inkscape:label="Drop Shadow"
       id="filter11"
       x="-0.073704703"
       y="-0.10175992"
       width="1.1474094"
       height="1.2035198"><feFlood
         result="flood"
         in="SourceGraphic"
         flood-opacity="1.000000"
         flood-color="rgb(58,63,94)"
         id="feFlood9" /><feGaussianBlur
         result="blur"
         in="SourceGraphic"
         stdDeviation="15.000000"
         id="feGaussianBlur9" /><feOffset
         result="offset"
         in="blur"
         dx="0.000000"
         dy="0.000000"
         id="feOffset9" /><feComposite
         result="comp1"
         operator="out"
         in="flood"
         in2="offset"
         id="feComposite10" /><feComposite
         result="comp2"
         operator="atop"
         in="comp1"
         in2="SourceGraphic"
         id="feComposite11" /></filter></defs><path
     d="M 0,0 H 512 V 512 H 0 Z"
     fill="#1b1f21"
     fill-opacity="1"
     id="path2" /><path
     style="fill:#e64539;fill-opacity:1;filter:url(#filter11)"
     d="m 294.23999,462.16163 c -1.59737,-1.08204 -5.09756,-2.99072 -7.7782,-4.24153 -2.68065,-1.2508 -5.37485,-2.87779 -5.98712,-3.61553 -0.61227,-0.73774 -1.35804,-4.38067 -1.65726,-8.09539 -0.29921,-3.71472 -0.95027,-10.2392 -1.44678,-14.49884 -1.3563,-11.63589 -1.27746,-16.94177 0.25175,-16.94177 1.69364,0 13.23516,3.64468 15.39435,4.86136 2.85851,1.61074 5.16074,1.08723 13.28178,-3.02016 9.54923,-4.82973 10.30929,-4.49305 10.57706,4.68517 0.10499,3.59865 0.60569,11.33509 1.11266,17.1921 1.17847,13.61463 1.16716,15.97367 -0.0765,15.97367 -1.17745,0 -5.90493,2.29264 -13.65652,6.62286 -3.01093,1.68198 -5.84263,3.05528 -6.29266,3.05177 -0.45002,-0.004 -2.12516,-0.89168 -3.72253,-1.97371 z m -11.13316,-63.83994 c 0,-0.52649 -0.9802,-0.92843 -2.17823,-0.89319 -2.07091,0.0609 -7.82206,-1.61684 -15.24759,-4.44806 -4.15707,-1.58502 -23.09052,-7.88398 -29.04303,-9.66232 -6.40899,-1.91471 -10.62587,-3.42201 -15.2771,-5.46073 -2.27916,-0.999 -5.76432,-2.2241 -7.74481,-2.72243 -1.98048,-0.49834 -6.65039,-2.05211 -10.37758,-3.45283 -3.72719,-1.40072 -12.00445,-4.28344 -18.39392,-6.40605 -6.38946,-2.1226 -12.92414,-4.44099 -14.52151,-5.15197 -1.59737,-0.71098 -7.04294,-2.65538 -12.10126,-4.32089 -8.8347,-2.90893 -9.45431,-3.30398 -15.73035,-10.0294 -8.30733,-8.90214 -8.48263,-11.13134 -0.72737,-9.24966 1.86359,0.45217 7.09134,1.25109 11.61721,1.77537 7.3574,0.8523 12.31655,1.63579 30.89858,4.88164 2.88414,0.50379 5.40985,0.75003 5.61268,0.5472 0.20283,-0.20283 -2.59257,-3.20352 -6.212,-6.66821 -3.61943,-3.46468 -11.14496,-10.6785 -16.7234,-16.03069 -5.57843,-5.35219 -9.84591,-10.02795 -9.48329,-10.39058 1.21227,-1.21227 53.19932,-1.0008 57.38185,0.23341 2.12982,0.62849 6.26845,1.76932 9.19696,2.53519 2.9285,0.76587 7.28496,1.915 9.68101,2.55362 4.29963,1.14598 11.36825,2.81301 20.81417,4.90873 2.66228,0.59067 5.71179,1.4545 6.7767,1.91962 1.06492,0.46512 3.24314,1.06748 4.84051,1.33857 7.91232,1.3428 13.00317,2.91066 13.47924,4.1513 0.29013,0.75606 1.19866,9.74321 2.01896,19.97144 0.82029,10.22824 1.89513,22.29978 2.38851,26.82566 2.05456,18.84657 2.17887,24.20252 0.5617,24.20252 -0.82865,0 -1.50664,-0.43076 -1.50664,-0.95726 z m 21.91124,0.19783 c -0.25814,-0.41768 -0.94692,-6.84345 -1.53062,-14.27949 -0.58369,-7.43603 -1.47068,-17.00522 -1.97107,-21.26487 -0.5004,-4.25964 -1.38663,-13.96922 -1.9694,-21.57684 -0.58278,-7.60761 -1.26139,-15.66706 -1.50803,-17.90987 -1.88129,-17.10734 -1.90652,-19.25091 -0.23703,-20.14439 0.89943,-0.48137 2.2353,-0.87521 2.96859,-0.87521 0.73328,0 2.24031,-0.84506 3.34894,-1.87791 1.10863,-1.03285 2.21137,-1.68223 2.45053,-1.44307 0.23916,0.23916 5.40437,-1.34864 11.47824,-3.52845 6.07387,-2.17981 14.96422,-5.26525 19.75632,-6.85654 4.7921,-1.5913 9.5842,-3.43072 10.64911,-4.08762 1.06491,-0.65689 3.8966,-1.73759 6.29265,-2.40153 2.39605,-0.66395 7.84162,-2.53399 12.10127,-4.15564 11.23343,-4.27657 16.47651,-6.12717 25.05888,-8.84477 4.19818,-1.32935 8.40891,-3.08131 9.35716,-3.89323 0.94826,-0.81192 1.88985,-1.31048 2.09243,-1.1079 0.33375,0.33375 6.95876,-1.89524 26.41809,-8.88841 3.72719,-1.33945 8.08365,-2.77922 9.68101,-3.19948 1.59737,-0.42027 4.42907,-1.43227 6.29266,-2.24889 7.23818,-3.17177 41.14439,-15.23363 42.82211,-15.23363 0.31474,0 0.84021,1.63367 1.16772,3.63038 0.75733,4.61716 4.1744,41.19467 5.44901,58.32808 0.53475,7.18815 1.36411,15.46542 1.84303,18.39392 0.82592,5.05036 0.74146,5.43242 -1.64016,7.41919 -1.38101,1.15205 -3.42224,2.30206 -4.53607,2.55558 -2.20358,0.50157 -24.42713,9.46183 -29.13197,11.74565 -1.59737,0.77539 -9.22117,3.86832 -16.94177,6.87317 -7.72061,3.00485 -15.00234,6.07781 -16.18163,6.82881 -1.17929,0.75099 -2.85736,1.36544 -3.72903,1.36544 -0.87168,0 -7.74842,2.6421 -15.28166,5.87133 -23.18864,9.94016 -24.21792,10.36599 -28.70235,11.8746 -3.42819,1.15328 -25.52193,10.10315 -37.27189,15.09833 -1.06491,0.45272 -4.7679,1.99889 -8.22886,3.43595 -3.46096,1.43705 -7.66543,3.22827 -9.34326,3.98048 -1.67784,0.75221 -3.43299,1.36765 -3.90033,1.36765 -0.46735,0 -3.88667,1.29515 -7.5985,2.87812 -7.1122,3.03309 -8.75931,3.40856 -9.52412,2.17106 z m 171.22491,-11.78859 c -1.06491,-0.43988 -3.83317,-1.36642 -6.1517,-2.05899 -6.12549,-1.82976 -7.09443,-3.93753 -7.65558,-16.65348 l -0.47998,-10.87656 3.46936,-1.36127 c 1.90814,-0.74869 3.20397,-1.79066 2.87962,-2.31548 -0.32436,-0.52481 -0.11522,-0.66094 0.46475,-0.3025 1.10095,0.68043 10.78402,-2.72882 19.09074,-6.72154 2.66228,-1.27965 6.01958,-2.59082 7.46066,-2.9137 3.14566,-0.70482 3.30032,-0.21023 4.1136,13.1551 0.3078,5.05832 0.81877,11.63461 1.13549,14.61397 l 0.57587,5.41701 -4.96318,3.05387 c -2.72974,1.67963 -5.37292,3.05387 -5.87373,3.05387 -0.50081,0 -2.51547,1.08912 -4.47701,2.42026 -3.66813,2.48926 -6.21184,2.88437 -9.58891,1.48944 z M 24.53141,330.77942 c -1.381983,-0.92828 -4.607107,-3.54401 -7.166943,-5.81271 l -4.654246,-4.12491 0.730058,-11.84875 c 0.401532,-6.51682 0.690929,-12.82896 0.643105,-14.02698 -0.04782,-1.19803 0.452724,-2.17764 1.112329,-2.17692 1.509616,0.002 31.120838,16.60529 33.574819,18.82612 1.478774,1.33827 1.652784,2.21437 0.936131,4.7132 -0.484156,1.68815 -0.880283,4.4769 -0.880283,6.19722 0,3.70095 -2.277022,5.17954 -10.935324,7.10089 -3.085923,0.6848 -5.834418,1.60695 -6.107766,2.04924 -0.835021,1.35109 -4.598513,0.88589 -7.25188,-0.8964 z m 128.33921,-3.4771 c -1.05027,-0.71788 -3.36021,-1.58524 -5.1332,-1.92745 -1.77299,-0.34222 -4.60468,-1.20793 -6.29266,-1.92381 -1.68797,-0.71588 -4.59379,-1.84764 -6.45739,-2.51501 -21.05519,-7.54011 -27.01545,-9.69579 -29.28506,-10.59168 -1.46425,-0.57799 -2.65903,-0.73494 -2.65507,-0.34878 0.004,0.38617 1.93579,4.07837 4.29296,8.2049 2.45867,4.30422 3.77456,7.50278 3.08664,7.50278 -0.65952,0 -3.13591,-1.22254 -5.50309,-2.71675 -2.36718,-1.49421 -8.006952,-4.71028 -12.532824,-7.14681 -4.525872,-2.43653 -11.060554,-6.05981 -14.521515,-8.05173 -16.872006,-9.7105 -28.765878,-16.20736 -41.144294,-22.47448 -6.389467,-3.23495 -13.041408,-6.68851 -14.782091,-7.67458 l -3.164878,-1.79285 0.573318,-8.22886 c 0.315325,-4.52587 1.216971,-14.11007 2.003657,-21.29822 0.786686,-7.18815 1.850812,-18.07929 2.364725,-24.20253 0.513913,-6.12324 1.381507,-15.27179 1.927986,-20.33012 0.54648,-5.05833 1.400371,-13.55341 1.897536,-18.87797 0.497165,-5.32455 1.346995,-14.03746 1.888511,-19.36202 1.206484,-11.86298 3.909578,-41.26339 4.250906,-46.23531 0.137397,-2.00138 0.717042,-4.1061 1.2881,-4.67715 1.200683,-1.20069 27.290887,0.68832 28.771169,2.08311 0.526336,0.49594 0.234428,6.01468 -0.726076,13.72703 -0.883458,7.0937 -1.606287,14.3629 -1.606287,16.15378 v 3.25613 l 14.763541,-0.5848 c 8.119947,-0.32164 40.466626,-1.28128 71.881496,-2.13254 66.42788,-1.80001 74.44661,-2.26599 74.69526,-4.34062 0.0957,-0.79869 0.71818,-7.89722 1.38323,-15.77452 0.66504,-7.8773 1.46309,-14.45877 1.77344,-14.62549 0.31034,-0.16672 4.92071,0.28739 10.24527,1.00914 5.32455,0.72175 11.64141,1.49183 14.03746,1.7113 l 4.35646,0.39902 -0.0741,5.16939 c -0.0408,2.84316 -0.37611,8.00108 -0.74524,11.46205 -0.36913,3.46096 -1.28787,13.18367 -2.04166,21.60603 -1.84915,20.66122 -2.01179,21.30543 -5.22374,20.69039 -21.41656,-4.10098 -34.80112,-3.37382 -78.73031,4.27728 -5.38747,0.93833 -6.55232,1.48283 -7.00157,3.27281 -0.50791,2.02367 -0.83232,2.09714 -5.63861,1.27699 -13.31267,-2.2717 -17.46493,-2.68061 -27.36602,-2.69496 -15.57671,-0.0226 -64.830802,6.80091 -67.348212,9.33019 -0.744521,0.74803 -1.067781,5.14092 -0.965007,13.11378 l 0.154542,11.98895 -3.434574,3.12539 c -1.889017,1.71897 -3.434575,3.62508 -3.434575,4.23581 0,0.61074 -0.606519,1.7982 -1.347819,2.63881 -2.001995,2.27019 -2.917469,10.84503 -1.365679,12.7917 0.693741,0.87028 8.21245,4.73449 16.708243,8.58715 8.495793,3.85266 16.119588,7.3595 16.941768,7.79297 3.498007,1.84426 24.230383,11.56465 24.665943,11.56465 0.26237,0 5.39388,2.34324 11.40336,5.2072 16.53341,7.87939 32.55819,15.12292 33.45628,15.12292 0.4407,0 1.30814,0.50686 1.92764,1.12637 0.6195,0.6195 4.92121,2.68882 9.55935,4.59848 4.63815,1.90966 8.63166,4.07815 8.87448,4.81886 0.33534,1.02292 -0.1808,1.19057 -2.14648,0.69722 -4.35145,-1.09215 -17.97688,-3.51342 -27.67559,-4.91803 -5.05833,-0.73257 -10.72172,-1.61487 -12.58531,-1.96068 -2.88054,-0.53451 -3.16377,-0.43697 -1.88986,0.65085 0.82418,0.70377 3.9833,4.98257 7.02027,9.50844 8.88965,13.24787 12.08811,17.8166 13.55489,19.36202 1.53716,1.61957 6.48532,9.36063 6.48532,10.14583 0,0.88302 -1.44696,0.54322 -3.41497,-0.80197 z m 120.2396,-18.69506 c -0.35106,-0.35107 -4.01775,-1.41086 -8.14818,-2.35511 -4.13044,-0.94424 -9.90594,-2.39442 -12.83445,-3.22261 -2.9285,-0.8282 -6.76904,-1.51098 -8.53452,-1.5173 -1.76549,-0.006 -4.16154,-0.52481 -5.32456,-1.1522 -1.16302,-0.62739 -5.1641,-1.68631 -8.89129,-2.35316 -13.46407,-2.40891 -15.78873,-3.30976 -16.98706,-6.58286 -2.42844,-6.63302 -2.69936,-8.21268 -1.56684,-9.1357 1.08483,-0.88415 6.41337,-3.12748 23.6836,-9.97086 l 8.03401,-3.18349 -5.1297,-1.12686 c -2.82134,-0.61977 -6.68769,-1.40222 -8.59189,-1.73879 -1.90421,-0.33657 -4.2607,-1.19582 -5.23665,-1.90945 -1.56629,-1.1453 -0.81943,-1.43914 6.36649,-2.50475 4.47752,-0.66397 11.81496,-1.82112 16.30541,-2.57143 10.25734,-1.71391 11.64794,-1.32276 11.79328,3.31723 0.0614,1.96083 0.17033,4.21147 0.24203,5.00142 0.14093,1.55286 4.58121,2.39406 16.75418,3.17403 6.13715,0.39324 6.85562,0.26389 6.19134,-1.11462 -1.71146,-3.55166 -3.75097,-11.08338 -3.31144,-12.2288 0.25987,-0.67721 1.64124,-1.4533 3.0697,-1.72463 1.42846,-0.27134 4.77543,-1.25807 7.4377,-2.19273 13.6551,-4.794 25.33944,-8.50304 36.5989,-11.61784 5.3087,-1.46859 9.87929,-1.42695 15.04657,0.13708 2.10963,0.63854 2.18156,0.54247 1.00474,-1.34191 -0.69715,-1.11632 -1.06623,-2.17009 -0.82015,-2.3417 0.99514,-0.694 14.37505,-3.97406 19.80942,-4.85624 6.37165,-1.03434 16.44907,0.26646 39.69214,5.12347 2.66228,0.55633 6.14744,1.23344 7.74481,1.5047 5.97545,1.01473 7.26076,1.41585 7.26076,2.26596 0,0.48 -1.41585,1.17112 -3.14633,1.53582 -1.73048,0.3647 -4.45327,1.21826 -6.05063,1.89681 -1.59737,0.67854 -8.13205,3.05216 -14.52152,5.2747 -12.03399,4.18595 -14.13432,4.95953 -24.68657,9.0924 -3.46097,1.35551 -10.21347,3.79258 -15.00557,5.41572 -4.7921,1.62314 -11.76243,4.06765 -15.48962,5.43225 -21.63945,7.92266 -53.06372,19.06141 -57.81121,20.49197 -1.35671,0.40881 -1.57253,1.32472 -1.17696,4.99477 1.47743,13.7071 1.54637,12.72301 -0.89126,12.72301 -1.23221,0 -2.52762,-0.28724 -2.87868,-0.6383 z m -95.76843,-29.60029 c -8.16974,-3.80091 -10.33569,-5.58394 -6.77671,-5.57862 0.9318,10e-4 4.64581,-0.71366 8.25336,-1.589 3.60756,-0.87534 6.717,-1.42104 6.90988,-1.21266 0.80938,0.87444 1.65632,12.47334 0.90549,12.40072 -0.45163,-0.0437 -4.63303,-1.85287 -9.29202,-4.02044 z m -39.45012,-17.70043 c -2.39605,-1.27657 -7.29706,-3.52537 -10.89113,-4.99732 -7.00376,-2.86838 -8.54632,-5.14973 -3.48205,-5.14973 5.66736,0 30.30305,-3.07431 36.15546,-4.51188 3.19473,-0.78474 9.36799,-2.26222 13.71836,-3.28329 4.35037,-1.02106 10.01376,-2.59332 12.58531,-3.4939 3.6204,-1.2679 8.49892,-1.67197 21.61733,-1.79048 16.54332,-0.14945 39.12277,-2.52969 42.90035,-4.52239 1.18761,-0.62647 2.2061,-0.55283 3.14633,0.22748 1.57001,1.303 1.88357,6.30621 0.45072,7.19176 -0.51675,0.31937 -4.7643,1.03402 -9.43899,1.58812 -7.78504,0.92276 -25.88816,4.03459 -49.907,8.57872 -2.54084,0.4807 -6.02601,1.31981 -7.7448,1.86468 -1.7188,0.54488 -6.39243,1.62842 -10.38584,2.40787 -8.20262,1.60102 -24.26993,5.7296 -28.37998,7.29238 -3.82451,1.4542 -5.37844,1.24359 -10.34407,-1.40202 z m 132.72958,-25.15261 c -1.09323,-2.47144 -2.57896,-4.35646 -3.43365,-4.35646 -3.81932,0 -0.75088,-1.8172 7.14815,-4.23331 l 8.65475,-2.64726 4.65664,1.8687 c 2.56116,1.02779 7.81508,3.08083 11.67538,4.56231 3.8603,1.48148 7.01873,2.96554 7.01873,3.29791 0,0.67093 -17.90992,2.95764 -23.23442,2.96653 -1.8636,0.003 -4.63618,0.65644 -6.16129,1.45185 -3.93293,2.05116 -4.17988,1.93752 -6.32429,-2.91027 z m -169.59479,-3.18374 c -5.773822,-2.52826 -14.312285,-7.73836 -16.918717,-10.32365 -3.24725,-3.22091 -6.238332,-11.63397 -6.238332,-17.54665 v -4.14233 l 5.56658,-0.63247 c 3.06162,-0.34786 9.923036,-1.30066 15.247592,-2.11734 5.324557,-0.81669 17.806867,-1.70404 27.738467,-1.97191 16.62842,-0.44848 18.56933,-0.32166 24.52546,1.60257 11.95496,3.86225 20.53912,10.83666 24.80706,20.15512 1.53854,3.35919 2.79735,6.26168 2.79735,6.44998 0,2.69127 -39.24743,9.72838 -60.02227,10.76207 -10.74308,0.53454 -11.35635,0.45621 -17.50319,-2.23539 z m 102.69608,-11.48991 c -2.98819,-0.48462 -11.61721,-4.3099 -11.61721,-5.14997 0,-0.93773 -9.65365,-15.71349 -11.8122,-18.0796 -1.07119,-1.17421 -1.76028,-3.06965 -1.57894,-4.34313 0.29104,-2.04381 1.06151,-2.36211 8.06659,-3.33249 4.25964,-0.59007 11.64982,-1.62957 16.42261,-2.31 5.4923,-0.783 14.60902,-1.08282 24.83536,-0.81676 l 16.15756,0.42038 5.60659,3.81249 c 6.92506,4.70904 10.17569,8.12827 14.07761,14.80777 3.16287,5.41434 2.87011,6.86348 -1.3939,6.89976 -0.95824,0.008 -2.91865,0.60902 -4.35646,1.33526 -3.57302,1.80472 -23.83106,5.23012 -35.04559,5.92579 -5.05832,0.31378 -10.93954,0.71732 -13.06936,0.89676 -2.12982,0.17944 -4.96152,0.14962 -6.29266,-0.0663 z"
     id="path9" /></svg>
