<?xml version="1.0" encoding="UTF-8" standalone="no"?>
<svg
   style="height: 512px; width: 512px;"
   viewBox="0 0 512 512"
   version="1.1"
   id="svg2"
   sodipodi:docname="smart-oven.svg"
   inkscape:version="1.3.2 (091e20e, 2023-11-25, custom)"
   xmlns:inkscape="http://www.inkscape.org/namespaces/inkscape"
   xmlns:sodipodi="http://sodipodi.sourceforge.net/DTD/sodipodi-0.dtd"
   xmlns="http://www.w3.org/2000/svg"
   xmlns:svg="http://www.w3.org/2000/svg">
  <defs
     id="defs2">
    <filter
       style="color-interpolation-filters:sRGB;"
       inkscape:label="Drop Shadow"
       id="filter3"
       x="-0.081851667"
       y="-0.079418913"
       width="1.1637033"
       height="1.1588378">
      <feFlood
         result="flood"
         in="SourceGraphic"
         flood-opacity="1.000000"
         flood-color="rgb(58,63,94)"
         id="feFlood2" />
      <feGaussianBlur
         result="blur"
         in="SourceGraphic"
         stdDeviation="15.000000"
         id="feGaussianBlur2" />
      <feOffset
         result="offset"
         in="blur"
         dx="0.000000"
         dy="0.000000"
         id="feOffset2" />
      <feComposite
         result="comp1"
         operator="out"
         in="flood"
         in2="offset"
         id="feComposite2" />
      <feComposite
         result="comp2"
         operator="atop"
         in="comp1"
         in2="SourceGraphic"
         id="feComposite3" />
    </filter>
  </defs>
  <sodipodi:namedview
     id="namedview2"
     pagecolor="#505050"
     bordercolor="#ffffff"
     borderopacity="1"
     inkscape:showpageshadow="0"
     inkscape:pageopacity="0"
     inkscape:pagecheckerboard="1"
     inkscape:deskcolor="#505050"
     inkscape:zoom="1.6035156"
     inkscape:cx="255.68819"
     inkscape:cy="256"
     inkscape:window-width="1920"
     inkscape:window-height="1017"
     inkscape:window-x="-8"
     inkscape:window-y="-8"
     inkscape:window-maximized="1"
     inkscape:current-layer="svg2" />
  <path
     d="M0 0h512v512H0z"
     fill="#000"
     fill-opacity="1"
     id="path1"
     style="fill:#1b1f21;fill-opacity:1" />
  <g
     class=""
     style=""
     transform="translate(0,0)"
     id="g2">
    <path
       d="M256 29.37c-144.8 0-140.1 65.85-140.1 65.85l57.8-11.42s8.2-35.08 82.3-35.08 82.3 35.08 82.3 35.08L396 95.22s4.8-65.85-140-65.85zM238 67.7l-3.3 11.01 43.4.4c-1.5-3.85-2.7-7.82-4-11.76zm18 26.71c-48.7.1-97.5 5.99-146.2 17.39l-25.87 27.6-1.18 10.8c115.55-16.6 230.95-16.9 346.55 0l-1.2-10.8-25.9-27.6c-48.7-11.7-97.4-17.46-146.2-17.39zm0 60.89c-61.9 0-123.8 4.2-185.7 12.4H36.08v18.6l35.78 29.2v-25.1c122.74-17.7 245.54-17.9 368.34 0v25.1l35.7-29.2v-18.6h-34.2c-61.9-8.4-123.8-12.5-185.7-12.4zM110.7 197l-27.87 3.8v218.8l27.87 2.7zm290.9 0v225.3l27.8-2.7V200.8zm-195.9 28.8c-17.2 0-31 13.8-31 31v117.9c0 15.8 11.9 29.1 27.8 30.8 35.8 3.6 71.5 3.5 107.2 0h.2c15.7-1.7 27.7-15 27.7-30.8V256.8c0-17.2-13.8-31-31-31zm0 18.1h100.9c7.3 0 13.1 5.8 13.1 12.9 0 27.6 0 91.5-.1 117.9 0 6.6-5.1 12.1-11.6 12.9-34.5 3.3-69.1 3.5-103.7 0-6.6-.7-11.5-6.3-11.5-12.9V256.8c0-7.1 5.7-12.9 12.9-12.9zM217 261v47.6h78.5V261zm-4.1 65.5c-4.3 0-7.9 3.4-7.9 7.8s3.6 7.8 7.9 7.8h27.5c4.4 0 7.9-3.4 7.9-7.8s-3.5-7.8-7.9-7.8zm59.3 0c-4.3 0-7.9 3.4-7.9 7.8s3.6 7.8 7.9 7.8h27.6c4.3 0 7.8-3.4 7.8-7.8s-3.5-7.8-7.8-7.8zm-59.3 32.1c-4.3 0-7.9 3.5-7.9 7.9 0 4.3 3.6 7.8 7.9 7.8h27.5c4.4 0 7.9-3.5 7.9-7.8 0-4.4-3.5-7.9-7.9-7.9zm59.3 0c-4.3 0-7.9 3.5-7.9 7.9 0 4.3 3.6 7.8 7.9 7.8h27.6c4.3 0 7.8-3.5 7.8-7.8 0-4.4-3.5-7.9-7.8-7.9zM87.32 437.8 111 470.4c96.7 16.3 193.2 16.4 289.9 0l23.7-32.6c-99.7 12.7-211.3 13.5-337.28 0z"
       fill="#fff"
       fill-opacity="1"
       id="path2"
       style="fill:#e64539;fill-opacity:1;filter:url(#filter3)" />
  </g>
</svg>
