<?xml version="1.0" encoding="UTF-8" standalone="no"?>
<svg
   style="height: 512px; width: 512px;"
   viewBox="0 0 512 512"
   version="1.1"
   id="svg2"
   sodipodi:docname="supplements-discount.svg"
   inkscape:version="1.3.2 (091e20e, 2023-11-25, custom)"
   xmlns:inkscape="http://www.inkscape.org/namespaces/inkscape"
   xmlns:sodipodi="http://sodipodi.sourceforge.net/DTD/sodipodi-0.dtd"
   xmlns="http://www.w3.org/2000/svg"
   xmlns:svg="http://www.w3.org/2000/svg">
  <defs
     id="defs2">
    <filter
       style="color-interpolation-filters:sRGB;"
       inkscape:label="Drop Shadow"
       id="filter3"
       x="-0.076334249"
       y="-0.078754981"
       width="1.1526685"
       height="1.15751">
      <feFlood
         result="flood"
         in="SourceGraphic"
         flood-opacity="1.000000"
         flood-color="rgb(58,63,94)"
         id="feFlood2" />
      <feGaussianBlur
         result="blur"
         in="SourceGraphic"
         stdDeviation="15.000000"
         id="feGaussianBlur2" />
      <feOffset
         result="offset"
         in="blur"
         dx="0.000000"
         dy="0.000000"
         id="feOffset2" />
      <feComposite
         result="comp1"
         operator="out"
         in="flood"
         in2="offset"
         id="feComposite2" />
      <feComposite
         result="comp2"
         operator="atop"
         in="comp1"
         in2="SourceGraphic"
         id="feComposite3" />
    </filter>
  </defs>
  <sodipodi:namedview
     id="namedview2"
     pagecolor="#505050"
     bordercolor="#ffffff"
     borderopacity="1"
     inkscape:showpageshadow="0"
     inkscape:pageopacity="0"
     inkscape:pagecheckerboard="1"
     inkscape:deskcolor="#505050"
     inkscape:zoom="1.6035156"
     inkscape:cx="255.68819"
     inkscape:cy="256"
     inkscape:window-width="1920"
     inkscape:window-height="1017"
     inkscape:window-x="-8"
     inkscape:window-y="-8"
     inkscape:window-maximized="1"
     inkscape:current-layer="svg2" />
  <path
     d="M0 0h512v512H0z"
     fill="#000"
     fill-opacity="1"
     id="path1"
     style="fill:#1b1f21;fill-opacity:1" />
  <g
     class=""
     style=""
     transform="translate(0,0)"
     id="g2">
    <path
       d="M217.4 27.43c-27.9.47-53.1 17.11-64.5 42.84l136.5 41.23c6-35.79-15.5-70.49-50.1-81.02-6.2-1.88-12.7-2.91-19.2-3.05h-2.7zm-69.7 60.08c-6.1 35.89 15.4 70.69 50.1 81.19 34.8 10.5 71.9-6.7 86.5-40zm265.5 44.29c-25.3.1-52.2 12.3-72.5 41L215.9 349.7c-33.5 47.4-18.9 97 14.1 120.4 33.1 23.5 84.6 20.8 118.1-26.6l124.7-176.8c33.5-47.5 18.9-97-14.1-120.5-12.4-8.8-27.3-13.9-43-14.4zm-1.8 17.3c1.3 0 2.6 0 3.8.1 12.1.5 23.5 4.8 33.1 11.7 25.7 18.2 38.6 54.5 9.7 95.4l-64.5 91.5c-35.8-9.6-81.8-42.3-102.7-73l64.7-91.6c16.9-23.9 37-33.7 55.9-34.1zM91.25 225.3c-9.62.1-19.11 2.1-27.93 6-33.11 14.5-50.34 51.5-40.24 86.3l130.72-57.1c-13.1-22.1-36.9-35.5-62.55-35.2zm69.65 51.6L30.2 334.1c18.45 31.4 57.3 44 90.6 29.5 33.2-14.6 50.4-51.8 40.1-86.7z"
       fill="#fff"
       fill-opacity="1"
       id="path2"
       style="fill:#e64539;fill-opacity:1;filter:url(#filter3)" />
  </g>
</svg>
