<?xml version="1.0" encoding="UTF-8" standalone="no"?>
<svg
   style="height: 512px; width: 512px;"
   viewBox="0 0 512 512"
   version="1.1"
   id="svg2"
   sodipodi:docname="upscale-condapt.svg"
   inkscape:version="1.3.2 (091e20e, 2023-11-25, custom)"
   xmlns:inkscape="http://www.inkscape.org/namespaces/inkscape"
   xmlns:sodipodi="http://sodipodi.sourceforge.net/DTD/sodipodi-0.dtd"
   xmlns="http://www.w3.org/2000/svg"
   xmlns:svg="http://www.w3.org/2000/svg">
  <defs
     id="defs2">
    <filter
       style="color-interpolation-filters:sRGB;"
       inkscape:label="Drop Shadow"
       id="filter3"
       x="-0.16071429"
       y="-0.077922078"
       width="1.3214286"
       height="1.1558442">
      <feFlood
         result="flood"
         in="SourceGraphic"
         flood-opacity="1.000000"
         flood-color="rgb(58,63,94)"
         id="feFlood2" />
      <feGaussianBlur
         result="blur"
         in="SourceGraphic"
         stdDeviation="15.000000"
         id="feGaussianBlur2" />
      <feOffset
         result="offset"
         in="blur"
         dx="0.000000"
         dy="0.000000"
         id="feOffset2" />
      <feComposite
         result="comp1"
         operator="out"
         in="flood"
         in2="offset"
         id="feComposite2" />
      <feComposite
         result="comp2"
         operator="atop"
         in="comp1"
         in2="SourceGraphic"
         id="feComposite3" />
    </filter>
  </defs>
  <sodipodi:namedview
     id="namedview2"
     pagecolor="#505050"
     bordercolor="#ffffff"
     borderopacity="1"
     inkscape:showpageshadow="0"
     inkscape:pageopacity="0"
     inkscape:pagecheckerboard="1"
     inkscape:deskcolor="#505050"
     inkscape:zoom="1.6035156"
     inkscape:cx="255.68819"
     inkscape:cy="256"
     inkscape:window-width="1920"
     inkscape:window-height="1017"
     inkscape:window-x="-8"
     inkscape:window-y="-8"
     inkscape:window-maximized="1"
     inkscape:current-layer="svg2" />
  <path
     d="M0 0h512v512H0z"
     fill="#000"
     fill-opacity="1"
     id="path1"
     style="fill:#1b1f21;fill-opacity:1" />
  <g
     class=""
     style=""
     transform="translate(0,0)"
     id="g2">
    <path
       d="M215.6 25l-3.5 21H144v18h224V46h-68.1l-3.5-21h-80.8zm-34.4 55c2.8 3.14 5.5 6.32 8 9.6 4.7 6.29 8.7 13 10.5 20.4h112.6c1.8-7.4 5.8-14.11 10.5-20.4 2.5-3.28 5.2-6.46 8-9.6H181.2zM144 126v18h224v-18H144zm37.2 34c2.8 3.1 5.5 6.3 8 9.6 4.7 6.3 8.7 13 10.5 20.4h112.6c1.8-7.4 5.8-14.1 10.5-20.4 2.5-3.3 5.2-6.5 8-9.6H181.2zM144 206v18h224v-18H144zm37.2 34c2.8 3.1 5.5 6.3 8 9.6 4.7 6.3 8.7 13 10.5 20.4h112.6c1.8-7.4 5.8-14.1 10.5-20.4 2.5-3.3 5.2-6.5 8-9.6H181.2zM144 286v18h224v-18H144zm37.2 34c2.8 3.1 5.5 6.3 8 9.6 4.7 6.3 8.7 13 10.5 20.4h112.6c1.8-7.4 5.8-14.1 10.5-20.4 2.5-3.3 5.2-6.5 8-9.6H181.2zm19.8 48v16c0 19-8.8 39.9-21.3 60.6-8.8 14.8-19.7 29.3-31.1 42.4h214.8c-11.4-13.1-22.3-27.6-31.1-42.4C319.8 423.9 311 403 311 384v-16H201z"
       fill="#fff"
       fill-opacity="1"
       id="path2"
       style="filter:url(#filter3);fill:#e64539;fill-opacity:1" />
  </g>
</svg>
